<?xml version="1.0" encoding="UTF-8"?>
<svg id="Layer_1" xmlns="http://www.w3.org/2000/svg" version="1.1" viewBox="0 0 512 512">
  <!-- Generator: Adobe Illustrator 29.7.1, SVG Export Plug-In . SVG Version: 2.1.1 Build 8)  -->
  <defs>
    <style>
      .st0 {
        fill: #231f20;
      }
    </style>
  </defs>
  <path class="st0" d="M366.03,76.33c-2.11-2.26-4.5-4.26-7.13-5.92-2.84-1.81-5.95-3.23-9.15-4.26-2.15-.66-4.35-1.18-6.56-1.57.39-1.93.63-3.9.66-5.89,0-1.3-.03-2.57-.18-3.86v-.12c3.08.45,6.13,1.15,9.09,2.11,3.99,1.3,7.85,3.05,11.42,5.28,3.32,2.11,6.37,4.62,9.06,7.49,1.03,1.09,1.99,2.23,2.9,3.41-.24.45-.48.88-.72,1.33-.24.45-.48.91-.7,1.36-.3.66-.6,1.33-.88,1.99-.57,1.33-1.09,2.72-1.57,4.08-.24.69-.45,1.39-.7,2.08l-.06-.06c-1.54-2.66-3.38-5.19-5.5-7.46Z"/>
  <path class="st0" d="M159.8,56.82c3.72-1.21,7.55-1.99,11.42-2.45.12,1.33.33,2.69.48,4.02.12,1.33.21,2.69.24,4.05v1.75c-3.08.39-6.16,1.03-9.12,1.96-3.23,1.03-6.34,2.45-9.18,4.26-2.6,1.66-5.01,3.65-7.13,5.92-2.11,2.26-3.93,4.8-5.5,7.46,0,.03-.03.06-.03.09-.12-.42-.27-.85-.42-1.24-.76-2.39-1.66-4.71-2.75-6.94-.45-.91-.91-1.81-1.39-2.69.91-1.18,1.87-2.33,2.87-3.41,2.69-2.87,5.74-5.37,9.06-7.49,3.56-2.23,7.43-3.99,11.45-5.28Z"/>
  <path class="st0" d="M261.2,229.68c-1.06,1.54-2.08,3.11-3.11,4.68-.6.94-1.21,1.9-1.81,2.87-1.6-2.57-3.23-5.07-4.95-7.55v-65.25c0-7.31,0-20.23-2.3-27.54.18-.21.36-.39.54-.57,1.72-1.87,3.32-3.83,4.77-5.95.36-.51.7-1.03,1.03-1.57.57.94,1.21,1.87,1.87,2.75,1.75,2.32,3.75,4.41,5.98,6.28-2.02,7.46-2.02,19.6-2.02,26.6v65.25Z"/>
  <path class="st0" d="M239.34,220.2c5.35,6.61,10.24,13.59,14.65,20.83-1.3,2.17-2.51,4.35-3.69,6.58-.66,1.15-1.27,2.33-1.87,3.5-4.86-8.7-10.45-16.97-16.74-24.7-7.79-9.6-16.64-18.36-26.22-26.18-9.88-8.06-20.57-15.16-31.69-21.41-7.61-4.32-15.47-8.21-23.44-11.84-2.57,3.14-6.13,4.29-10,4.83-3.17.42-6.56.42-9.88,0-1.69-.24-3.41-.57-5.04-1.06-4.86-1.39-9.3-3.83-20.45,1.27-2.96,1.39-6.22,2.48-9.91,2.93-4.59.54-9.85.09-15.5-1.81-11.09.6-14.74-.21-17.4-1.42-3.47-1.54-5.29-3.68-7.73-5.62-2.45-1.93-5.59-3.62-8.1-5.71-2.51-2.05-4.44-4.47-5.62-7.22-1.45-3.32-3.5-5.8-7.16-7.94-3.66-2.08-8.82-3.86-13.02-3.86,7.34-5.83,13.68-6.97,18.19-7.07,4.5-.09,7.16.85,9.03,1.39,1.87.57,2.96.72,4.86,1.09,1.93.33,4.71.82,12.39-1.9.03,0,.06-.03.12-.03,1.15-.42,2.18-.72,3.2-1-4.89-3.74-8.13-8.36-9.79-12.05-1.66-3.71-1.78-6.46-1.78-9.03s.21-4.89-.12-6.61c-.36-1.72-1.21-2.78-2.08-4.32-.91-1.57-1.84-3.56-1.63-5.34.21-1.81,1.57-3.38,3.29-4.44,1.72-1.09,3.78-1.63,6.1-2.26,2.33-.66,4.95-1.39,7.46-2.29,2.48-.88,4.89-1.93,7.52-2.42,2.6-.48,5.47-.36,8.37.15,2.93.54,5.92,1.48,9.61,3.38,3.69,1.93,8.1,4.8,12.54,9.3,1.99,2.05,4.02,4.41,6.31,7.67.18-4.14.51-8.33.33-12.5-.21-4.47-1.03-8.94-2.96-13.44-7.19-12.62-14.98-20.26-15.38-25.97,11.3,0,16.71,2.9,21.3,5.65,4.56,2.75,8.28,5.37,12.26,10.6,2.39,3.11,4.86,7.13,7.13,13.95,1.57,4.68,3.05,10.66,4.38,18.57.39,2.14.79,4.29,1.21,6.4,1.24,6.16,2.72,12.14,4.74,16.4,1.99,4.26,4.53,6.76,6.83,10.42,2.27,3.65,4.29,8.45,4.62,13.95.18,3.23-.18,6.67-1.63,9.57,7.37,3.41,14.62,7.07,21.69,11.05,11.6,6.55,22.75,13.95,33.08,22.37,10.09,8.24,19.39,17.48,27.61,27.6v-.03Z"/>
  <path class="st0" d="M132.63,176c1.57.09,3.14.12,4.71.06.6,2.36,1.24,4.71,1.9,7.04,2.63,9.09,5.92,17.99,9.64,26.69-3.44,0-6.89.21-10.33.57h-.09c-3.29-8.03-6.22-16.24-8.64-24.58-1.03-3.5-1.93-7-2.75-10.57l.36.09c.88.18,1.75.3,2.63.42.85.12,1.72.21,2.57.27Z"/>
  <path class="st0" d="M236.31,247.98c3.23,2.84,6.31,5.8,9.27,8.91-.82,1.75-1.63,3.53-2.39,5.35-.66,1.48-1.33,2.99-1.93,4.5-3.63-4.02-7.46-7.79-11.48-11.35-9.31-8.15-19.67-15.07-30.84-20.35-6.52-3.11-13.32-5.64-20.3-7.55-6.86-1.87-13.9-3.08-20.97-3.62-3.87-.27-7.76-.36-11.63-.18-3.17.09-6.34.36-9.49.78-7.07.97-14.05,2.69-20.75,5.16-.06,0-.12.03-.21.06,1.78,1.54,2.69,3.35,3.35,5.53,1.15,3.78,1.63,8.73,1.57,13.44-.06,4.68-.66,9.12-1.12,13.65-.48,4.53-.82,9.15-.82,13.92s.33,9.63-.15,14.64c-.45,5.04-1.72,10.21-3.9,15.49-2.14,5.31-5.17,10.72-8.94,15.31-3.78,4.56-8.28,8.3-16.55,11.11,4.14-12.92,3.29-18.15,3.17-22.19-.09-4.01.51-6.88.91-9.84,0-.45.09-.91.15-1.36-2.45,3.44-4.77,6.07-6.98,8.24-5.29,5.19-9.91,7.85-15.1,9.66-5.2,1.78-10.97,2.78-20.03.81-.33-7.52.66-14.89,3.44-22.07.18-.54.42-1.06.63-1.6-3.53,1.72-6.13,2.45-9.09,3.05-6.01,1.27-13.41,2.05-21.21-.6-1.48-6.61-1.36-11.59.18-17.3,1.24-4.62,3.38-9.72,12.45-18.36-2.81-.45-5.5-.78-8.34-.87-6.37-.24-13.35.78-20.84,6.28,3.41-12.2,8.37-17.24,13.87-21.8,5.5-4.53,11.57-8.57,18.25-10.75,6.65-2.17,13.9-2.48,20.03-2.6,6.13-.15,11.15-.12,14.92-.97,3.78-.85,6.31-2.54,9.73-4.56,3.41-2.02,7.67-4.32,11.72-4.86,2.87-.42,5.62.06,8.73,2.05,2.21-1,4.47-1.9,6.77-2.75,7.37-2.72,15.04-4.62,22.84-5.68,1.24-.18,2.45-.3,3.69-.42,6.46-.66,12.99-.72,19.48-.24,7.7.54,15.35,1.9,22.81,3.92,7.55,2.05,14.89,4.8,21.96,8.15,11.99,5.68,23.14,13.1,33.14,21.86Z"/>
  <path class="st0" d="M145.32,441.58c-8.7,12.41-20.78,22.28-36.28,29.65l-1.87-3.56c12.26-6.22,20.97-14.55,26.1-25,3.08-7.07,3.96-14.55,2.6-22.52-1.57-9.21-1.15-18.33,1.3-27.45,2.42-9.09,6.62-17.27,12.54-24.52,5.92-7.28,13.9-10.96,23.96-11.08-5.04,7.28-7.19,15.25-6.5,23.91.69,8.67-.06,17.09-2.3,25.3-2.27,8.21-5.89,15.76-10.91,22.68-3.14,4.29-6.01,8.49-8.64,12.59Z"/>
  <path class="st0" d="M91.43,459.85c3.5,2.75,7.13,5.31,10.94,7.64.76.48,1.54.94,2.3,1.39.85-.39,1.69-.78,2.51-1.21l1.87,3.56c1.72.87,3.47,1.72,5.26,2.48,7.04,2.99,14.53,4.98,22.17,5.5,3.38.21,6.8.15,10.18-.21,3.84-.42,7.61-1.24,11.27-2.42,6.1-1.93,11.84-4.89,17.1-8.55,5.23-3.65,9.97-8,14.14-12.8,4.11-4.77,7.67-9.96,10.63-15.49,2.87-5.37,5.17-11.08,6.89-16.94,1.72-5.86,2.87-11.87,3.53-17.94.64-6.19.79-12.41.51-18.63-.27-6.34-1-12.65-2.05-18.93-1.09-6.34-2.51-12.59-4.23-18.78-2.51-8.97-5.62-17.72-9.15-26.3-4.83-11.71-10.51-23.04-16.46-34.21-5.95-11.11-12.21-22.07-18.31-33.12-4.98-9-9.82-18.06-14.29-27.29,3.69-.15,7.37-.06,11.06.18,3.78,7.55,7.79,14.95,11.87,22.34,6.13,11.08,12.42,22.07,18.4,33.24,6.13,11.44,11.9,23.1,16.86,35.08,3.68,8.94,6.92,18.09,9.52,27.42,3.41,12.17,5.71,24.61,6.49,37.2.06.91.12,1.81.15,2.72.3,6.73.15,13.47-.58,20.14-.69,6.67-1.96,13.25-3.87,19.69-1.9,6.49-4.44,12.8-7.64,18.78-3.29,6.19-7.28,12.02-11.87,17.3-4.74,5.47-10.09,10.39-16.01,14.49-6.04,4.2-12.69,7.58-19.7,9.78-4.29,1.39-8.7,2.33-13.2,2.81-3.93.42-7.91.51-11.9.24-4.2-.27-8.37-.94-12.45-1.93-4.2-1.03-8.34-2.38-12.33-4.07,2.57,2.08,5.26,3.99,8.07,5.74,5.41,3.38,11.21,6.16,17.22,8.27,5.98,2.11,12.2,3.56,18.52,4.41,9.06,1.21,18.31,1.15,27.37-.09,12.78-1.75,25.22-5.83,36.55-11.99,5.65-3.05,11.03-6.64,15.98-10.72,4.95-4.11,9.49-8.7,13.5-13.71,3.44-4.29,6.53-8.91,9.21-13.71,3.87-6.82,7.04-14.07,9.61-21.53,4.71-13.74,7.43-28.08,8.73-42.54,1.33-15.19,1.12-30.49-.39-45.65-.21-2.14-.45-4.26-.73-6.4-2.69-15.58-8.16-30.62-15.98-44.33-.06-.09-.09-.15-.12-.24,1.15-1.93,2.36-3.84,3.6-5.71,1.24-1.87,2.57-3.71,3.9-5.53,1.27-1.72,2.6-3.41,3.96-5.04,2.51,6.64,4.68,13.41,6.62,20.26,4.2,15.04,7.04,30.47,8.58,46.02,1.39,13.98,1.72,28.11.81,42.18-.12,1.75-.27,3.53-.42,5.31-1.36,15.28-4.2,30.43-9.21,44.96-4.74,13.71-11.39,26.81-20.45,38.13-4.44,5.5-9.46,10.6-14.92,15.1-5.44,4.53-11.3,8.45-17.49,11.84-12.39,6.73-26.01,11.17-40,13.07-37.91,5.16-78.39-8.42-102.08-46.71-10.12.94-18.4-7.88-16.83-17.91-3.75-2.66-7.58-5.04-11.6-7.19-4.02-2.14-7.43-5.04-10.24-8.73-2.78-3.65-5.71-7.22-8.7-10.63-3.02-3.44-5.38-7.31-7.07-11.65-1.69-4.35-4.38-8-8.04-10.96,5.2-1.84,10.36-1.72,15.44.33,1.39.54,2.78,1.03,4.17,1.42-.24-1.72-.3-3.5-.18-5.25.15-2.11.57-4.17,1.24-6.19.66-1.99,1.57-3.9,2.69-5.68,1.12-1.81,2.33-3.53,3.56-5.22,1.24-1.72,2.51-3.41,3.75-5.1,1.93,1.36,3.99,2.51,6.16,3.47,2.18.97,4.35,1.9,6.59,2.78,2.24.85,4.17,2.14,5.86,3.9,1.21,1.24,2.11,2.66,2.72,4.26,1.06-1.99,2.24-3.92,3.5-5.8,2.84-4.14,4.44-8.79,4.77-13.92,3.9,3.29,6.5,7.37,7.79,12.2,1.3,4.86,1.48,9.75.57,14.67-.91,4.95-.57,9.81,1.03,14.58,1.6,4.77,2.02,9.6,1.3,14.52-.69,4.5-1.15,9.03-1.42,13.59,8.13,5.31,9.46,16.7,2.75,23.73l.15.21Z"/>
  <path class="st0" d="M302.23,390.83c1.57-1.75,3.23-3.41,4.71-6.28,5.47-10.84,13.47-18.96,21.48-25.03,8.67-6.55,17.34-10.63,23.47-13.77,6.13-3.11,9.73-5.25,14.29-13.34-2.69,23.49-7.64,31.73-13.17,37.41-5.56,5.68-11.66,8.79-19.27,10.96-6.25,1.81-13.5,3.02-21.51,7.04-2.84,1.45-5.07,3.5-7.16,5.74l-3.38-2.11c.18-.21.36-.39.54-.6Z"/>
  <path class="st0" d="M301.81,397.35c.09,2.51.27,5.01.54,7.52.64,6.07,1.78,12.08,3.5,17.94,1.72,5.86,4.02,11.56,6.89,16.94,2.96,5.53,6.53,10.72,10.63,15.49,4.17,4.8,8.91,9.15,14.14,12.8,5.26,3.65,11.03,6.61,17.1,8.55,3.66,1.18,7.46,1.99,11.27,2.42,3.38.36,6.8.42,10.21.21,7.61-.51,15.11-2.51,22.14-5.5,1.78-.76,3.53-1.6,5.26-2.48,2.3-1.15,4.5-2.39,6.68-3.74,3.78-2.29,7.4-4.86,10.88-7.58l.21-.27c-6.71-7.04-5.38-18.42,2.75-23.73-.24-4.56-.72-9.09-1.39-13.59-.76-4.92-.33-9.75,1.27-14.52,1.6-4.77,1.96-9.63,1.06-14.58-.94-4.92-.72-9.81.57-14.67,1.3-4.83,3.87-8.91,7.76-12.2.33,5.13,1.93,9.78,4.77,13.92,1.27,1.87,2.45,3.81,3.5,5.8.6-1.6,1.51-3.02,2.75-4.26,1.66-1.75,3.63-3.05,5.83-3.9,2.23-.87,4.44-1.81,6.58-2.78,2.18-.97,4.23-2.11,6.19-3.47,1.24,1.69,2.48,3.38,3.72,5.1,1.27,1.69,2.45,3.41,3.56,5.22,1.12,1.78,2.02,3.68,2.69,5.68.7,2.02,1.09,4.08,1.24,6.19.15,1.75.06,3.53-.18,5.25,1.39-.39,2.78-.87,4.17-1.42,5.11-2.05,10.24-2.17,15.44-.33-3.66,2.96-6.31,6.61-8.03,10.96-1.69,4.35-4.05,8.21-7.07,11.65-2.99,3.41-5.89,6.98-8.7,10.63-2.78,3.68-6.19,6.58-10.24,8.73-3.99,2.14-7.85,4.53-11.6,7.19,1.6,10.02-6.71,18.84-16.8,17.91-23.72,38.29-64.17,51.87-102.11,46.71-13.96-1.9-27.61-6.34-39.97-13.07-6.19-3.38-12.08-7.31-17.52-11.84-4.56-3.77-8.79-7.94-12.66-12.41.09-.09.15-.21.21-.3,2.05-2.57,3.99-5.19,5.8-7.91,3.87,4.74,8.22,9.12,12.96,13.04,4.95,4.07,10.3,7.67,15.95,10.72,11.33,6.16,23.8,10.24,36.58,11.99,9.06,1.24,18.28,1.3,27.37.09,6.28-.85,12.51-2.29,18.49-4.41,6.04-2.11,11.81-4.89,17.22-8.27,2.81-1.75,5.5-3.65,8.07-5.74-3.99,1.69-8.1,3.05-12.3,4.07-4.11,1-8.28,1.66-12.48,1.93-3.96.27-7.95.18-11.9-.24-4.47-.48-8.91-1.42-13.2-2.81-7.01-2.2-13.65-5.59-19.7-9.78-5.92-4.11-11.27-9.03-15.98-14.49-4.59-5.28-8.58-11.11-11.9-17.3-3.17-5.98-5.74-12.29-7.64-18.78-1.87-6.43-3.14-13.01-3.87-19.69-.7-6.67-.85-13.41-.57-20.14.03-.91.09-1.81.15-2.72.79-12.59,3.11-25.03,6.49-37.2,2.6-9.33,5.83-18.48,9.52-27.42,4.95-11.99,10.75-23.64,16.86-35.08,5.98-11.17,12.3-22.16,18.4-33.24,4.08-7.4,8.1-14.79,11.87-22.34,3.69-.24,7.4-.33,11.09-.18-4.47,9.24-9.33,18.3-14.29,27.29-6.1,11.05-12.36,22.01-18.31,33.12-5.98,11.17-11.63,22.5-16.46,34.21-3.56,8.58-6.68,17.33-9.15,26.3-1.72,6.19-3.17,12.44-4.23,18.78-1.06,6.28-1.78,12.59-2.08,18.93-.06,1.72-.12,3.44-.12,5.19l3.38,2.11c-1.12,1.24-2.21,2.51-3.26,3.8Z"/>
  <path class="st0" d="M379.9,176c.85-.06,1.72-.15,2.57-.27.88-.12,1.78-.24,2.66-.42l.36-.09c-.85,3.56-1.75,7.06-2.75,10.57-2.42,8.33-5.35,16.55-8.67,24.58h-.09c-3.41-.36-6.89-.54-10.33-.57,3.75-8.7,7.01-17.6,9.64-26.69.7-2.33,1.33-4.68,1.9-7.04,1.57.06,3.14,0,4.71-.06Z"/>
  <path class="st0" d="M237.89,335.06c-.27,2.15-.51,4.29-.72,6.43-1.51,15.16-1.75,30.47-.39,45.65,1.27,14.46,3.99,28.81,8.73,42.54,2.33,6.76,5.14,13.34,8.52,19.63-1.24,2.14-2.51,4.29-3.9,6.34-.7,1.03-1.39,2.05-2.12,3.05-4.86-8.09-8.76-16.79-11.87-25.72-4.98-14.52-7.85-29.68-9.21-44.96-.15-1.78-.3-3.56-.42-5.31-.91-14.07-.57-28.2.82-42.18,1.54-15.55,4.38-30.98,8.61-46.02,2.93-10.48,6.49-20.77,10.88-30.74,1.48-3.32,3.02-6.61,4.65-9.84.76-1.48,1.54-2.99,2.33-4.47,2.39-4.41,4.92-8.76,7.64-12.98,3.62-5.62,7.55-11.08,11.78-16.28,8.22-10.11,17.52-19.35,27.64-27.6,10.3-8.43,21.45-15.82,33.08-22.37,7.07-3.99,14.29-7.64,21.66-11.05-1.42-2.9-1.81-6.34-1.63-9.57.36-5.5,2.36-10.3,4.65-13.95,2.27-3.65,4.8-6.16,6.83-10.42,1.99-4.26,3.5-10.24,4.71-16.4.42-2.11.82-4.26,1.24-6.4,1.21-7.31,2.57-12.95,3.99-17.45,2.39-7.52,5.01-11.81,7.49-15.07,3.99-5.22,7.73-7.85,12.29-10.6,4.56-2.75,9.97-5.65,21.27-5.65-.39,5.71-8.19,13.35-15.35,25.97-1.93,4.5-2.78,8.97-2.96,13.44-.21,4.17.12,8.36.33,12.5,2.27-3.26,4.29-5.62,6.31-7.67,4.41-4.5,8.82-7.37,12.51-9.3,3.72-1.9,6.71-2.84,9.61-3.38,2.93-.51,5.77-.63,8.4-.15,2.63.48,5.01,1.54,7.52,2.42,2.51.91,5.11,1.63,7.46,2.29,2.33.63,4.38,1.18,6.07,2.26,1.72,1.06,3.11,2.63,3.32,4.44.21,1.78-.76,3.77-1.63,5.34-.91,1.54-1.75,2.6-2.08,4.32-.33,1.72-.18,4.05-.15,6.61.03,2.57-.09,5.31-1.75,9.03-1.69,3.68-4.92,8.3-9.79,12.05,1.03.27,2.05.57,3.2,1,0,0,.06.03.12.03,7.64,2.72,10.42,2.23,12.36,1.9,1.93-.36,2.99-.51,4.86-1.09,1.87-.54,4.53-1.48,9.03-1.39,4.5.09,10.88,1.24,18.19,7.07-4.2,0-9.36,1.78-12.99,3.86-3.66,2.14-5.74,4.62-7.16,7.94-1.21,2.75-3.11,5.16-5.65,7.22-2.51,2.08-5.62,3.77-8.1,5.71-2.45,1.93-4.23,4.08-7.73,5.62-2.66,1.21-6.31,2.02-17.37,1.42-5.68,1.9-10.91,2.35-15.53,1.81-3.66-.45-6.92-1.54-9.88-2.93-11.15-5.1-15.62-2.66-20.48-1.27-1.66.48-3.35.81-5.05,1.06-3.32.45-6.71.45-9.88,0-3.87-.54-7.4-1.69-10-4.8-7.97,3.59-15.8,7.49-23.44,11.81-11.12,6.25-21.78,13.35-31.69,21.41-9.58,7.82-18.43,16.58-26.22,26.18-7.97,9.84-14.89,20.62-20.6,31.94-2.39,4.71-4.56,9.51-6.56,14.4,6.56-9.06,14.14-17.39,22.57-24.79,9.97-8.76,21.12-16.18,33.11-21.86,7.07-3.35,14.41-6.1,21.96-8.15,7.46-2.02,15.1-3.38,22.84-3.93,6.46-.48,12.99-.42,19.45.24,1.24.12,2.48.24,3.69.42,7.8,1.06,15.47,2.96,22.87,5.68,2.27.84,4.53,1.75,6.77,2.75,3.11-1.99,5.86-2.48,8.7-2.05,4.05.54,8.34,2.84,11.75,4.86,3.38,2.02,5.92,3.71,9.7,4.56,3.78.85,8.79.82,14.92.97,6.13.12,13.38.42,20.06,2.6,6.65,2.17,12.72,6.22,18.25,10.75,5.5,4.56,10.42,9.6,13.87,21.8-7.52-5.49-14.5-6.52-20.87-6.28-2.81.09-5.53.42-8.34.88,9.09,8.63,11.24,13.74,12.45,18.36,1.54,5.71,1.66,10.69.18,17.3-7.79,2.66-15.16,1.87-21.21.6-2.93-.6-5.56-1.33-9.09-3.05,3.26,7.7,4.44,15.61,4.11,23.67-9.06,1.96-14.83.97-20.03-.81-5.2-1.81-9.85-4.47-15.13-9.66-2.21-2.17-4.53-4.8-6.95-8.24.03.45.09.91.15,1.36.36,2.96,1,5.83.87,9.84-.09,4.05-.94,9.27,3.2,22.19-8.31-2.81-12.81-6.55-16.58-11.11-3.78-4.59-6.8-10-8.94-15.31-2.15-5.29-3.41-10.45-3.9-15.49-.48-5.01-.15-9.9-.15-14.65s-.33-9.39-.78-13.92c-.48-4.53-1.09-8.97-1.15-13.65-.06-4.71.42-9.66,1.6-13.44.67-2.17,1.54-3.99,3.32-5.53-.06,0-.12-.06-.18-.06-6.71-2.48-13.68-4.2-20.78-5.16-3.14-.42-6.28-.69-9.46-.78-3.87-.18-7.76-.09-11.63.18-7.1.54-14.14,1.75-21,3.62-6.95,1.9-13.75,4.44-20.3,7.55-11.15,5.28-21.54,12.2-30.81,20.35-9.12,8-17.19,17.21-23.9,27.29-1.78,2.63-3.48,5.35-5.05,8.09-7.82,13.71-13.29,28.74-15.95,44.29v.03Z"/>
  <path class="st0" d="M259.01,71.22c.54-.97,1.36-1.69,2.45-2.14,1.09-.42,2.08-.27,3.05.48.51.42.85.91,1,1.45.12.45.12.91,0,1.42-.3,1.15-.81,2.11-1.6,2.87,1.18-.39,2.39-.42,3.63-.09,1.24.33,2.05,1.15,2.45,2.42.39,1.27.09,2.36-.88,3.23-1,.88-2.05,1.51-3.2,1.9,1.24.39,2.11,1.18,2.66,2.32.33.69.42,1.39.24,2.08-.09.42-.3.88-.6,1.3-.79,1.09-1.78,1.51-3.02,1.27-1.24-.24-2.39-.69-3.41-1.33.39,1.12.42,2.29.15,3.56-.27,1.24-1,2.02-2.24,2.32-1.24.33-2.3,0-3.14-.91-.88-.94-1.27-2.02-1.18-3.26-.27,1.18-.97,2.02-2.09,2.48-1.12.45-2.21.39-3.29-.18-1.06-.57-1.66-1.45-1.75-2.63-.12-1.18.12-2.26.69-3.29-1.21.91-2.6,1.18-4.17.79-1.57-.36-2.48-1.33-2.72-2.93-.06-.33-.06-.63-.06-.94.03-1.18.45-2.17,1.33-3.05,1.09-1.09,2.42-1.57,3.96-1.42-1.18-.88-1.96-2.05-2.39-3.47-.39-1.45-.09-2.75.94-3.93,1.03-1.18,2.24-1.45,3.66-.79,1.39.63,2.45,1.6,3.11,2.9-.3-1.09-.36-2.23-.24-3.44.12-1.21.76-2.02,1.96-2.45,1.18-.42,2.24-.24,3.2.51.97.75,1.45,1.72,1.51,2.93ZM259.88,83.69c1.03-1.42,1.18-2.87.42-4.41-.76-1.45-1.93-2.32-3.62-2.63-1.75-.27-3.14.3-4.14,1.78-.97,1.45-1.12,2.9-.39,4.41.7,1.48,1.9,2.36,3.6,2.57,1.72.24,3.08-.36,4.14-1.72Z"/>
  <path class="st0" d="M304.98,85.84c-10.82.97-21,.36-31.33-1.66-.09-.03-.21-.03-.3-.06,0-.09.03-.15.03-.21.24-1.54,1.3-2.93,1.63-4.56.36-1.63,0-3.47-1-4.83-1-1.33-2.63-2.11-3.53-3.41l-.36-.63-.18-.45c-.33-.79-.57-1.66-.91-2.45-.15-.33-.3-.66-.51-.97-.54-.79-1.36-1.39-2.27-1.84-.63-.3-1.33-.54-1.99-.66-1.21-.24-2.39-.15-3.56-.24l8.43-2.14c6.1-3.9,9.3-7.25,12.02-11.69,2.72-4.44,4.95-9.96,6.37-12.35,5.01-8.51,11.12-11.41,17.82-11.9,10.51-.75,22.45,4.41,24.44,15.58,6.13,1.84,9.27,7.46,9.97,13.83.6,5.59-.7,11.81-3.53,16.49-6.01,9.96-19.03,13.07-31.24,14.16Z"/>
  <path class="st0" d="M279.24,11.71c5.83,9.3,5.59,20.89,1.9,30.95-2.63,7.07-6.95,13.41-12.02,19.05l-8.43,2.14c-.42-.03-.81-.06-1.21-.15-1.6-.3-3.23-1.15-4.8-1.03-.42.03-.85.15-1.27.3-.3.12-.57.24-.85.36-.7.36-1.39.75-2.09,1.06-.12.06-.24.09-.36.15-1.21.51-2.42.69-3.6,1.03-.3.09-.64.21-.94.33l-3.35-7.37c-4.17-11.69-7.07-17.27-9.43-21.41-1.81-3.14-3.32-5.43-4.47-7.46-4.14-7.34-3.47-11.08-1.42-13.65,2.05-2.54,5.5-3.9,8.13-6.28,2.63-2.39,4.41-5.8,7.4-7.01,2.99-1.24,7.19-.27,10.03,1.36,8.97-8.64,20.9-1.66,26.76,7.61Z"/>
  <path class="st0" d="M236.95,83.9v.21l-8.37.54c-3.17.24-6.34.48-9.52.6-3.87.18-7.73.21-11.6,0-3.9-.27-7.82-.85-11.39-2.05-3.59-1.24-6.86-3.14-10.33-5.25-3.47-2.14-7.16-4.5-8.7-7.58-1.18-2.32-1.15-5.07-1.18-7.97,0-.97,0-1.96-.09-2.96-.3-3.99-1.48-8.15-.03-11.44,1.45-3.32,5.5-5.77,9.27-5.92-2.54-12.65,10.54-17.09,21.39-15.94,10.88,1.15,19.49,7.91,25.83,16.24,3.84,5.04,6.83,10.66,10,16.18l3.35,7.37c-1.51.57-2.96,1.6-3.96,2.93-.97,1.36-1.51,3.02-1.81,4.59-.3,1.57-.39,3.05-.94,4.53-.51,1.48-1.48,2.96-1.78,4.59-.09.45-.15.91-.15,1.36v-.03Z"/>
  <path class="st0" d="M244.65,94.11c1.18,1.12,2.36,2.54,3.84,3.08.7.24,1.45.3,2.24.3.91.03,1.84,0,2.69.18-2.96,6.76-2.42,15.19-1.6,19.9.97,5.77.45,6.79-.12,7.79-1.84,3.17-4.2,6.01-6.74,8.67-2.54,2.66-5.29,5.07-8.49,7.01-3.2,1.9-6.86,3.29-10.36,3.02-3.5-.27-6.83-2.17-10.36-3.26-3.5-1.09-7.22-1.36-10.36-2.96-3.14-1.6-5.74-4.56-4.8-8.61-3.29.03-7.34-.69-9.49-3.08-2.11-2.36-2.33-6.34-2.24-9.99.09-3.65.48-7.01,1.3-10.27.85-3.29,2.15-6.52,3.75-9.66,1.54-2.99,3.41-5.89,14.23-6.64,3.38-.24,14.59-2.84,20.45-4.92l8.37-.54c.03,1.15.33,2.33.88,3.32.06.12.12.24.21.33.39.66.88,1.27,1.42,1.81.51.57,1.09,1.06,1.66,1.51,1.21,1.03,2.36,1.87,3.53,3.02Z"/>
  <path class="st0" d="M257.97,99.3c1.63.33,3.53.03,4.83-1,1.33-1,2.05-2.69,3.35-3.59,1.3-.88,3.11-.94,4.56-1.78,1.45-.85,2.48-2.45,2.72-4.11.03-.15.03-.3.03-.45.09-.88-.03-1.75-.12-2.6,9.46,2.81,22.35,3.83,31.3,4.95,11.24,1.36,14.35,5.4,16.28,10.12,3.84,9.33,3.08,21.17-6.56,26.03-.54,1.84-1.15,3.62-2.14,5.28-1.03,1.66-2.45,3.14-4.23,3.68-1.75.51-3.84.03-5.68,0-4.62,9.75-15.32,8.76-24.38,5.13-7.91-3.2-14.59-8.39-18.64-15.16-.57-.97-1.09-1.96-1.54-2.99-3.38-7.43-3.69-16.46-3.11-24.76,1.09.42,2.14,1.03,3.32,1.27v-.03Z"/>
</svg>