<?xml version="1.0" encoding="UTF-8"?>
<svg id="Layer_1" xmlns="http://www.w3.org/2000/svg" version="1.1" viewBox="0 0 1152 648">
  <!-- Generator: Adobe Illustrator 29.7.1, SVG Export Plug-In . SVG Version: 2.1.1 Build 8)  -->
  <defs>
    <style>
      .st0, .st1 {
        fill: #231f20;
      }

      .st1 {
        fill-rule: evenodd;
      }
    </style>
  </defs>
  <path class="st1" d="M630.89,362.45v2.34h-31.28s-11.45-19.88-17.2-29.92c-.68-1.16-1.34-2.32-1.99-3.48-.88-1.56-1.57-2.61-3.25-3.27-.91-.36-1.96-.44-2.53-.44h-9.27l3.65,3.79.05,24.77c0,3.63,2.95,6.2,6.61,6.2h2.12v2.34h-40.04v-2.34h2.12c3.66,0,6.61-2.57,6.61-6.2,0-7.08,0-14.16.01-21.24,0-14.15.02-28.3-.01-42.45,0-.15,0-.3-.05-.45h.05c0-3.66-2.95-6.79-6.61-6.79h-2.12v-2.34h31.31c.62.01,1.24,0,1.86,0,.53,0,1.06,0,1.59,0,5.84.15,9.76.44,14.66,1.05,6.05.76,12.16,2.25,16.9,6.01,4.72,3.79,8.1,9.79,8,15.47-.1,5.7-3.66,11.08-8.63,14.48-4.95,3.41-11.3,4.82-17.23,5.05h-4.19s.91.85,1.88,1.45c1.17.73,2.05,1.2,3.51,1.2h13.76s11.04,19.04,22.64,32.83c1.26,1.49,3.09,1.94,5.06,1.94h2.02ZM587.69,305.6c0-6.89-4.24-14.16-18.69-14.16h-3.63l3.7,3.84v24.04c12.41,0,18.62-6.86,18.62-13.73Z"/>
  <path class="st1" d="M1002.84,362.45v2.34h-31.28s-11.45-19.88-17.2-29.92c-.68-1.16-1.34-2.32-1.99-3.48-.88-1.56-1.57-2.61-3.25-3.27-.92-.36-1.96-.44-2.53-.44h-9.27l3.65,3.79.05,24.77c0,3.63,2.95,6.2,6.61,6.2h2.12v2.34h-40.04v-2.34h2.12c3.66,0,6.61-2.57,6.61-6.2,0-7.08,0-14.16,0-21.24.01-14.15.02-28.3,0-42.45,0-.15,0-.3-.05-.45h.05c0-3.66-2.95-6.79-6.61-6.79h-2.12v-2.34h31.31c.62.01,1.24,0,1.86,0,.53,0,1.06,0,1.59,0,5.84.15,9.75.44,14.66,1.05,6.05.76,12.16,2.25,16.9,6.01,4.72,3.79,8.1,9.79,8,15.47-.1,5.7-3.66,11.08-8.63,14.48-4.95,3.41-11.3,4.82-17.23,5.05h-4.19s.91.85,1.88,1.45c1.17.73,2.05,1.2,3.51,1.2h13.76s11.04,19.04,22.64,32.83c1.26,1.49,3.09,1.94,5.06,1.94h2.02ZM959.63,305.6c0-6.89-4.24-14.16-18.69-14.16h-3.63l3.7,3.84v24.04c12.41,0,18.62-6.86,18.62-13.73Z"/>
  <path class="st0" d="M647.83,364.79h-16.93v-2.34h1.21c1.26,0,2.42-.42,2.97-1.55,1.31-2.7,2.65-5.38,3.96-8.08,1.03-2.12,2.09-4.24,3.13-6.36,2.17-4.39,5.09-10.4,9.1-18.57,4.66-9.59,9.35-19.15,14.04-28.74-1.89-3.31-3.78-6.59-5.67-9.89l-1.31-2.25c-.58-1.03-1.66-1.7-2.85-1.7h-1.52v-2.34h28.42s27.2,47.81,34.06,59.9c3.81-7.75,7.72-16.04,11.5-23.79l9.69-19.5-7.03-12.52c-.58-1.03-1.62-1.72-2.81-1.72h-1.43v-2.37h29.05l44.38,78.02c.61,1.03,1.39,1.46,2.58,1.46h1.54v2.34h-34.67v-2.34h1.82c1.16,0,1.89-.95,1.31-1.96l-29.66-52.18-27.65,56.47h-12.47l-32.23-56.83-20.65,42.21-5.09,10.4c-.5,1.01.21,1.88,1.32,1.88h1.88l.02,2.34Z"/>
  <path class="st0" d="M452.51,282.97v2.27h-1.38c-2.57,0-4.89,1.46-5.97,3.79l-37.09,75.76h-9.53l-43.31-76.14c-1.16-2.09-3.38-3.34-5.8-3.34h-1.14v-2.34h43.21v2.34h-.87c-5.09,0-8.03,5.32-5.46,9.73l25.62,45.05,22.32-45.56c2.14-4.42-.37-9.28-5.27-9.28h-1.31v-2.27h25.98Z"/>
  <path class="st1" d="M909.71,323.88c0,22.59-25.16,40.91-56.2,40.91s-56.2-18.32-56.2-40.91,25.16-40.91,56.2-40.91,56.2,18.32,56.2,40.91ZM853.65,360.11c19.99,0,36.2-16.22,36.2-36.23s-16.21-36.23-36.2-36.23-36.2,16.22-36.2,36.23,16.21,36.23,36.2,36.23Z"/>
  <path class="st0" d="M341.25,318.91l-8.42,8.77h-23.06l8.42-8.77h23.05Z"/>
  <path class="st0" d="M306.97,282.97h26.11l8.17,8.47h-23.05l-2.21-2.34c-1.44-1.46-2.44-1.46-4.18-1.46h-8.67l3.67,3.8v68.67c3.06,0,5.11.15,7.29-2.05,2.19-2.19,4.38-4.53,4.38-4.53h28.78l-10.83,11.25h-66.38v-2.34h2.12c3.63,0,6.55-2.82,6.6-6.42v-64.32c-.05-3.63-2.97-6.39-6.6-6.39h-2.12v-2.34h36.92Z"/>
  <path class="st0" d="M530.73,318.91l-8.42,8.77h-23.06l8.42-8.77h23.05Z"/>
  <path class="st0" d="M496.44,282.97h26.11l8.17,8.47h-23.05l-2.21-2.34c-1.44-1.46-2.44-1.46-4.18-1.46h-8.67l3.67,3.8v68.67c3.06,0,5.11.15,7.29-2.05,2.19-2.19,4.38-4.53,4.38-4.53h28.78l-10.83,11.25h-66.38v-2.34h2.12c3.63,0,6.55-2.82,6.6-6.42v-64.32c-.05-3.63-2.97-6.39-6.6-6.39h-2.12v-2.34h36.92Z"/>
  <path class="st0" d="M1074.04,318.91l-8.42,8.77h-23.05l8.42-8.77h23.05Z"/>
  <path class="st0" d="M1039.75,282.97h26.11l8.17,8.47h-23.05l-2.21-2.34c-1.44-1.46-2.44-1.46-4.18-1.46h-8.67l3.67,3.8v68.67c3.06,0,5.11.15,7.29-2.05,2.19-2.19,4.38-4.53,4.38-4.53h28.78l-10.83,11.25h-66.38v-2.34s2.12,0,2.12,0c3.63,0,6.55-2.82,6.6-6.42v-64.32c-.05-3.63-2.97-6.39-6.6-6.39h-2.12v-2.34h36.92Z"/>
  <path class="st0" d="M115.9,383.14c-2.64,3.76-6.28,6.8-10.87,9.11l-.58-1.18c3.53-1.94,6.05-4.47,7.59-7.59.99-2.26,1.26-4.65.82-7.2-.5-2.94-.36-5.86.42-8.77.78-2.9,2.12-5.52,4.01-7.84,1.91-2.33,4.46-3.5,7.67-3.54-1.61,2.33-2.3,4.87-2.07,7.64.22,2.77-.02,5.46-.74,8.09-.72,2.62-1.88,5.04-3.49,7.25-1,1.37-1.91,2.71-2.76,4.02ZM116.47,376.12c1.83-5.21,2.75-8.81,2.76-10.81-.87,1.49-1.8,5.09-2.76,10.81Z"/>
  <path class="st0" d="M81.67,367.88c.05-.68.17-1.33.4-1.98.21-.64.5-1.24.86-1.81.36-.58.73-1.13,1.14-1.67.4-.55.79-1.09,1.2-1.63.62.43,1.28.8,1.97,1.11.69.31,1.39.61,2.11.89.71.27,1.33.69,1.88,1.24.04.04.08.08.12.13-.53.91-1,1.85-1.38,2.85-.24-.32-.51-.6-.81-.85-.39-.33-.81-.57-1.27-.74-.45-.16-.94-.25-1.43-.25s-.96.19-1.37.57c-.34.31-.58.69-.73,1.14.22-.49.66-.71,1.32-.65.9.08,1.69.4,2.38.94.6.48,1.05,1.05,1.37,1.73-.02.14-.04.28-.05.42-1.31-.4-2.64-.58-3.99-.55-.37,0-.73,0-1.1-.02-.89-.07-1.76-.24-2.62-.52,0-.11,0-.22.02-.34Z"/>
  <path class="st0" d="M151.41,317.82c-.5-.82-1.03-1.62-1.58-2.41v-20.85c0-2.34,0-6.47-.74-8.8.06-.07.12-.13.17-.18.54-.6,1.06-1.23,1.52-1.9.12-.16.23-.33.34-.5.18.3.39.6.6.88.55.74,1.2,1.41,1.91,2.01-.64,2.38-.64,6.26-.64,8.5v20.85s-.06.09-.09.14c-.52.74-1.02,1.51-1.5,2.28Z"/>
  <path class="st0" d="M111.83,298.25c.5.03,1.01.04,1.51.02.19.75.4,1.51.61,2.25.84,2.9,1.9,5.75,3.08,8.53-1.1,0-2.21.07-3.31.18h-.03c-1.06-2.57-2-5.19-2.77-7.86-.33-1.12-.62-2.24-.89-3.38l.12.03c.28.06.57.1.85.14.27.04.55.07.82.09Z"/>
  <path class="st0" d="M86.85,336.61c1.19,2.72,2.97,3.35,5.34,1.88,2.39-1.47,3.91-3.86,4.56-7.15.17.61.36,1.22.54,1.81.15.53.32,1.06.45,1.59.1.41.17.81.22,1.22.07.66.05,1.32-.04,1.98-.05.36-.11.7-.15,1.06-.03.19-.05.39-.07.58-.24.26-.47.51-.71.73-1.69,1.66-3.17,2.51-4.85,3.09-1.66.57-3.51.89-6.41.26-.11-2.4.22-4.76,1.1-7.05Z"/>
  <path class="st0" d="M84.01,327.21c1.4.23,2.82.41,4.24.55.62.06,1.23.12,1.84.15.97.07,1.94.12,2.92.11.89,0,1.79-.04,2.67-.22.07-.02.14-.03.2-.05.07.53.17,1.06.3,1.58.15.59.32,1.16.48,1.74.03.09.06.17.09.27-1.62,3.11-2.72,4.28-3.7,5.09-1.35,1.11-2.5,1.51-3.3,1.51s-1.24-.41-1.5-.98c-.25-.57-.33-1.31.16-2.22-2.68,1.24-3.84.78-4.38.05-.88-1.19-.17-3.1,1.15-4.98-1.34,1.1-2.19,2.21-2.52,3.33-.55,1.82.33,3.05,2.64,3.67-.39.12-.76.2-1.15.28-1.93.41-4.29.66-6.79-.19-.47-2.11-.44-3.71.06-5.53.34-1.26.89-2.64,2.87-4.76.43.06.85.13,1.27.19.82.14,1.63.29,2.46.42Z"/>
  <path class="st0" d="M145.03,321.26c1.03.91,2.02,1.85,2.97,2.85-.49,1.03-.96,2.08-1.39,3.15-1.15-1.28-2.38-2.49-3.67-3.63-2.97-2.61-6.3-4.82-9.86-6.5-2.09-.99-4.26-1.8-6.5-2.41-2.2-.6-4.45-.98-6.71-1.16-1.25-.09-2.5-.12-3.73-.06-1.02.03-2.02.12-3.03.25-2.27.31-4.51.86-6.65,1.65-.02,0-.04,0-.06.02.57.49.85,1.07,1.06,1.77.38,1.21.53,2.79.51,4.29-.02,1.5-.21,2.91-.36,4.36-.15,1.45-.26,2.92-.26,4.45s.11,3.08-.05,4.68c-.15,1.61-.56,3.26-1.25,4.95-.69,1.7-1.65,3.43-2.86,4.89-1.21,1.46-2.65,2.65-5.31,3.55,1.32-4.13,1.05-5.8,1.03-7.09-.04-1.28.16-2.2.28-3.15.13-.95.15-1.92-.1-3.17-.25-1.24-.8-2.78-1.43-5.02-.21-.77-.44-1.62-.55-2.55.26-.1.48-.19.66-.27.24-.13.39-.22.54-.33,1.41-1,3.22-2.65,4.78-6.16-4.84,5.15-6.04,6.13-10.08,6.15-2.24,0-5.38-.29-7.87-.66-2.5-.38-4.35-.84-6.39-.91-2.04-.08-4.27.25-6.68,2.01,1.1-3.9,2.68-5.51,4.45-6.97,1.76-1.45,3.7-2.74,5.83-3.44,2.14-.69,4.46-.79,6.42-.83,1.96-.05,3.57-.04,4.78-.31,1.21-.27,2.02-.81,3.11-1.46,1.08-.65,2.46-1.38,3.75-1.55.91-.14,1.79.02,2.79.66.72-.32,1.44-.61,2.17-.88,2.37-.87,4.83-1.48,7.32-1.81.39-.06.78-.1,1.18-.14,2.07-.21,4.16-.23,6.23-.08,2.48.17,4.92.61,7.31,1.25,2.42.66,4.77,1.53,7.03,2.61,3.84,1.81,7.41,4.19,10.61,6.99Z"/>
  <path class="st0" d="M104.28,392.61c.55.28,1.11.55,1.68.79,2.25.96,4.65,1.59,7.09,1.76,1.09.07,2.19.05,3.27-.07,1.22-.14,2.44-.4,3.61-.77,1.94-.62,3.79-1.56,5.47-2.73,1.67-1.17,3.19-2.56,4.53-4.09,1.32-1.52,2.46-3.18,3.4-4.95.92-1.72,1.65-3.54,2.21-5.41.55-1.87.92-3.79,1.12-5.73.21-1.98.26-3.97.17-5.95-.1-2.03-.32-4.04-.67-6.05-.34-2.03-.79-4.02-1.34-6-.8-2.87-1.8-5.66-2.94-8.41-1.55-3.74-3.36-7.36-5.27-10.93-1.91-3.55-3.91-7.05-5.86-10.59-1.59-2.88-3.14-5.77-4.57-8.72,1.19-.05,2.37-.02,3.55.06,1.21,2.41,2.49,4.78,3.8,7.14,1.96,3.54,3.97,7.05,5.89,10.62,1.95,3.66,3.81,7.38,5.4,11.21,1.18,2.86,2.21,5.78,3.05,8.76,1.08,3.89,1.83,7.86,2.08,11.89.02.29.04.58.05.87.09,2.15.04,4.3-.18,6.44-.23,2.13-.64,4.24-1.24,6.29-.61,2.07-1.43,4.09-2.45,6-1.06,1.98-2.34,3.84-3.81,5.53-1.51,1.75-3.22,3.32-5.12,4.63-1.93,1.34-4.06,2.42-6.31,3.13-1.37.44-2.79.74-4.23.9-1.27.14-2.54.16-3.81.08-1.34-.09-2.68-.3-3.99-.62-1.34-.33-2.66-.76-3.94-1.3.82.67,1.68,1.27,2.58,1.83,1.73,1.08,3.58,1.97,5.51,2.64,1.91.68,3.91,1.14,5.93,1.41,2.9.39,5.85.37,8.75-.03,4.1-.56,8.08-1.86,11.71-3.83,1.81-.97,3.52-2.12,5.11-3.43,1.59-1.31,3.05-2.78,4.32-4.38,1.11-1.37,2.09-2.85,2.95-4.38,1.25-2.18,2.25-4.5,3.08-6.88,1.52-4.39,2.39-8.97,2.79-13.6.44-4.85.36-9.75-.13-14.59-.07-.65-.14-1.3-.21-1.95-.84-5.01-2.6-9.85-5.13-14.26-.02-.03-.03-.05-.05-.08.74-1.24,1.54-2.43,2.4-3.59.42-.55.83-1.09,1.27-1.61.8,2.12,1.51,4.28,2.12,6.48,1.35,4.81,2.26,9.74,2.76,14.71.44,4.47.55,8.98.26,13.48-.04.56-.09,1.13-.14,1.7-.44,4.88-1.34,9.73-2.95,14.37-1.32,3.83-3.12,7.52-5.5,10.81-.34.46-.69.93-1.05,1.38-1.41,1.76-3.02,3.39-4.77,4.83-1.74,1.45-3.63,2.7-5.61,3.78-3.96,2.15-8.33,3.57-12.79,4.18-12.15,1.65-25.1-2.69-32.68-14.93-3.24.3-5.9-2.52-5.39-5.72-1.2-.85-2.44-1.61-3.71-2.3-1.3-.69-2.39-1.61-3.28-2.79-.9-1.17-1.83-2.31-2.79-3.4-.97-1.1-1.72-2.34-2.26-3.72-.55-1.39-1.4-2.56-2.57-3.5,1.66-.59,3.32-.55,4.94.11,1.62.66,3.3.97,5.02.92,1.71-.05,3.38.3,5.02,1.02.32.14.62.31.9.49,1.15.72,1.98,1.74,2.49,3.06.64,1.65.98,3.32,1.03,5.04.03.78.03,1.56.02,2.34.42-1.13.71-2.3.87-3.51.15-1.21.02-2.38-.41-3.54-.43-1.15-1.03-2.19-1.82-3.13-.79-.94-1.76-1.62-2.92-2.06.02-.63.14-1.25.39-1.89.58-1.54,1.32-2.98,2.23-4.31.91-1.32,1.42-2.81,1.53-4.45,1.25,1.05,2.08,2.35,2.49,3.9.42,1.55.48,3.12.19,4.69-.3,1.58-.18,3.14.33,4.66.51,1.52.65,3.07.41,4.64-.21,1.44-.37,2.89-.44,4.34,2.62,1.71,3.02,5.35.86,7.6,1.14.9,2.33,1.74,3.57,2.49.24.15.48.3.74.44.54-.25,1.06-.51,1.57-.79l.58,1.18c-.24.13-.49.25-.74.37Z"/>
  <path class="st0" d="M206.65,329.34c.13-.52.23-1.05.3-1.58.07.02.14.03.2.05.87.18,1.77.22,2.67.22.98,0,1.95-.04,2.92-.11.61-.04,1.22-.1,1.83-.15,1.42-.14,2.83-.32,4.25-.55.82-.14,1.63-.29,2.45-.42.43-.07.85-.14,1.28-.19,1.98,2.11,2.53,3.49,2.87,4.76.49,1.82.53,3.42.06,5.53-2.5.85-4.86.6-6.79.19-.4-.08-.76-.16-1.15-.28,2.31-.62,3.19-1.84,2.64-3.67-.34-1.12-1.18-2.23-2.52-3.33,1.32,1.88,2.03,3.79,1.15,4.98-.54.73-1.71,1.19-4.38-.05.48.91.42,1.65.16,2.22-.26.57-.71.98-1.5.98s-1.94-.4-3.3-1.51c-.99-.8-2.08-1.98-3.7-5.09.03-.1.06-.18.08-.27.17-.58.35-1.15.49-1.74Z"/>
  <path class="st0" d="M204.86,335.97c.04-.41.13-.81.22-1.22.14-.53.3-1.06.45-1.59.18-.6.37-1.21.54-1.81.66,3.29,2.18,5.68,4.56,7.15,2.37,1.47,4.16.83,5.34-1.89.88,2.31,1.2,4.65,1.09,7.06-2.9.63-4.74.31-6.41-.26-1.66-.58-3.14-1.43-4.84-3.09-.23-.22-.46-.47-.71-.73-.02-.19-.04-.39-.07-.58-.05-.36-.12-.7-.15-1.06-.09-.66-.12-1.32-.04-1.98Z"/>
  <path class="st0" d="M213.68,366.15c-.3.25-.57.53-.81.85-.4-.99-.85-1.94-1.38-2.85.04-.05.08-.09.12-.13.54-.56,1.16-.97,1.88-1.24.72-.28,1.41-.58,2.11-.89.7-.31,1.35-.68,1.97-1.11.4.54.8,1.08,1.2,1.63.4.54.78,1.09,1.14,1.67.36.57.65,1.18.86,1.81.21.65.35,1.3.4,1.98,0,.12,0,.23.02.34-.86.28-1.74.45-2.62.52-.37.03-.74.03-1.1.02-1.36-.03-2.69.15-3.99.55,0-.14-.03-.29-.05-.42.31-.68.77-1.24,1.37-1.73.69-.54,1.48-.86,2.38-.94.65-.07,1.09.15,1.31.65-.14-.44-.38-.83-.73-1.14-.41-.38-.86-.57-1.36-.57s-.98.09-1.43.25c-.46.17-.88.41-1.27.74Z"/>
  <path class="st0" d="M171.14,363.43c1.66-.69,3.39-2.07,5.18-4.09-2.21,1.39-3.95,2.76-5.18,4.09ZM176.22,363.7c-2,.58-4.32.97-6.89,2.25-.92.46-1.63,1.12-2.29,1.83l-1.08-.68c.06-.07.12-.13.17-.19.5-.56,1.03-1.09,1.5-2.01,1.76-3.46,4.32-6.06,6.89-8,2.77-2.09,5.55-3.4,7.5-4.4,1.96-.99,3.11-1.68,4.58-4.27-.86,7.51-2.45,10.14-4.22,11.96-1.78,1.81-3.73,2.81-6.17,3.5Z"/>
  <path class="st0" d="M205.11,381.32c-.09-1.46-.23-2.9-.45-4.34-.23-1.57-.1-3.12.42-4.64.51-1.52.62-3.08.33-4.66-.29-1.57-.23-3.14.18-4.69.42-1.54,1.25-2.85,2.49-3.9.11,1.64.62,3.13,1.53,4.45.91,1.33,1.65,2.77,2.23,4.31.24.64.37,1.26.39,1.89-1.16.43-2.13,1.12-2.92,2.06-.78.94-1.39,1.98-1.82,3.13-.43,1.16-.56,2.34-.41,3.54.15,1.22.44,2.38.87,3.51-.02-.78,0-1.56.02-2.34.06-1.72.4-3.39,1.03-5.04.5-1.32,1.33-2.34,2.49-3.06.28-.19.58-.35.9-.49,1.63-.72,3.31-1.07,5.02-1.02,1.72.05,3.39-.26,5.02-.92,1.62-.66,3.28-.69,4.94-.11-1.17.95-2.03,2.11-2.57,3.5-.54,1.39-1.3,2.62-2.26,3.72-.96,1.09-1.89,2.23-2.79,3.4-.9,1.18-1.99,2.1-3.28,2.79-1.29.69-2.51,1.45-3.71,2.3.51,3.2-2.15,6.02-5.39,5.72-7.58,12.24-20.54,16.58-32.68,14.93-4.48-.61-8.84-2.03-12.8-4.18-1.97-1.08-3.86-2.34-5.6-3.78-1.46-1.21-2.82-2.54-4.05-3.97.4-.5.78-1,1.15-1.52.26-.36.52-.72.76-1.1,1.25,1.52,2.64,2.91,4.15,4.17,1.59,1.3,3.31,2.45,5.12,3.43,3.63,1.97,7.61,3.27,11.7,3.83,2.9.4,5.86.41,8.76.03,2.02-.27,4.01-.73,5.93-1.41,1.92-.68,3.78-1.56,5.51-2.64.9-.56,1.76-1.17,2.58-1.83-1.28.54-2.59.97-3.95,1.3-1.31.32-2.64.53-3.98.62-1.27.09-2.55.06-3.81-.08-1.44-.15-2.85-.45-4.23-.9-2.24-.7-4.37-1.79-6.31-3.13-1.9-1.31-3.61-2.89-5.13-4.63-1.46-1.69-2.75-3.55-3.8-5.53-1.03-1.91-1.84-3.93-2.45-6-.61-2.06-1.02-4.16-1.24-6.29-.23-2.13-.28-4.28-.18-6.44,0-.29.03-.58.05-.87.25-4.02.99-8,2.08-11.89.83-2.98,1.87-5.91,3.05-8.76,1.59-3.83,3.44-7.56,5.4-11.21,1.91-3.57,3.93-7.08,5.89-10.62,1.31-2.36,2.59-4.73,3.8-7.14,1.18-.08,2.36-.11,3.55-.06-1.44,2.95-2.99,5.85-4.58,8.72-1.94,3.53-3.96,7.03-5.86,10.59-1.91,3.57-3.71,7.19-5.27,10.93-1.13,2.74-2.13,5.54-2.93,8.41-.55,1.98-1.01,3.98-1.35,6-.34,2.01-.57,4.02-.66,6.05-.02.55-.04,1.1-.04,1.66l1.08.68c-.36.4-.71.8-1.05,1.22.04.8.1,1.6.18,2.4.2,1.94.57,3.86,1.12,5.73.55,1.87,1.29,3.7,2.2,5.41.95,1.77,2.09,3.43,3.4,4.95,1.33,1.53,2.85,2.92,4.53,4.09,1.68,1.17,3.52,2.11,5.47,2.73,1.17.38,2.38.64,3.61.77,1.08.12,2.18.14,3.26.07,2.45-.16,4.85-.8,7.1-1.76.57-.24,1.13-.51,1.68-.79.73-.37,1.44-.76,2.14-1.2,1.24-.75,2.42-1.59,3.56-2.49-2.15-2.26-1.75-5.9.87-7.6Z"/>
  <path class="st0" d="M192.77,298c-.26,1.14-.55,2.26-.88,3.38-.77,2.66-1.71,5.29-2.77,7.86h-.03c-1.1-.12-2.2-.17-3.31-.18,1.19-2.78,2.24-5.63,3.09-8.53.21-.74.42-1.5.61-2.25.5.02,1.01,0,1.51-.02.27-.02.55-.05.82-.09.28-.04.57-.08.85-.14.03,0,.07-.02.11-.03Z"/>
  <path class="st0" d="M206.9,287.08c-.2-.16-.4-.35-.59-.53-.41-.39-.81-.77-1.25-1.12-.21-.17-.44-.34-.66-.49.5-.1.93-.16,1.36-.22,1.49-.19,2.94-.24,4.03-.18,1.09.06,1.82.22,2.8.57.02,0,.03,0,.04,0,2.46.87,3.35.71,3.96.61.61-.12.96-.16,1.56-.35.6-.17,1.45-.47,2.89-.44,1.44.03,3.47.4,5.82,2.26-1.34,0-3,.57-4.17,1.24-1.17.69-1.83,1.48-2.29,2.54-.38.88-1,1.65-1.8,2.31-.8.67-1.81,1.21-2.59,1.82-.78.62-1.36,1.3-2.48,1.79-.53.24-1.2.43-2.49.5,1.12-.61,2.19-1.33,3.1-2.22.12-.11.23-.22.34-.34.57-.61,1.07-1.28,1.46-2.02.04-.06.07-.12.1-.17.03-.07.07-.14.09-.2l.06-.12c.06-.12.11-.25.15-.38.09-.2.15-.41.21-.63,0,0,0-.03.02-.05.06-.2.11-.41.15-.61.02-.03.02-.06.02-.09,0-.02.02-.05.02-.07.04-.21.08-.41.1-.63.07-.6.14-1.21.19-1.8-.58.14-1.17.3-1.76.44-.24.06-.48.09-.73.11-.34.03-.67.04-1.01.04-.38,0-.75-.02-1.13-.04-.4-.03-.78-.08-1.17-.13-.69-.09-1.37-.2-2.04-.37-.47-.13-.94-.27-1.38-.47-.34-.15-.66-.35-.96-.58Z"/>
  <path class="st0" d="M203.74,273.51c-.32.05-.63.13-.94.22-.35.12-.69.26-1.02.42-.68.33-1.31.73-1.91,1.17-.61.44-1.19.92-1.76,1.41.03-.83,0-1.67,0-2.51.28-.34.56-.64.84-.93,1.42-1.44,2.83-2.35,4.01-2.97,1.18-.61,2.14-.91,3.08-1.08.93-.16,1.85-.2,2.69-.05.83.15,1.61.49,2.41.77.79.29,1.63.52,2.38.73.75.2,1.4.38,1.95.72.55.34.99.84,1.05,1.42.07.57-.23,1.21-.52,1.71-.28.49-.55.83-.66,1.38-.12.55-.06,1.29-.05,2.11,0,.82-.03,1.7-.57,2.89-.4.87-1.06,1.9-2.01,2.87l-.29-.09c-.56-.16-1.14-.3-1.72-.37-.69-.09-1.37-.11-2.07-.1-.82,0-1.64.06-2.47.14-.44.06-.9.12-1.33.19-.53.09-1.06.2-1.59.32-.17.04-.34.08-.5.12-.36-.15-.72-.3-1.07-.42-.56-.2-1.13-.37-1.71-.5-.91-.21-1.84-.35-2.78-.41l.06-.2c.38-1.27.64-2.6.77-3.92,1.62-1.54,2.95-2.53,4.02-3.11,1.71-.93,2.79-.83,3.5-.53.71.31,1.04.82,1.09,1.55.05.73-.19,1.69-1.14,2.87,1.57.05,2.59.29,3.32.76.4.26.71.59.91.96.33-1.7-1.09-2.34-1.72-2.59-.12-.04-.2-.08-.44-.14.14-.35.25-.71.31-1.09.08-.56.06-1.14-.12-1.67-.14-.41-.36-.78-.65-1.09-.3-.31-.67-.55-1.06-.72-.44-.19-.93-.29-1.42-.31-.29,0-.58,0-.86.06Z"/>
  <path class="st0" d="M145.52,349.1c-.09.69-.15,1.36-.22,2.05-.48,4.84-.56,9.74-.14,14.59.42,4.62,1.29,9.21,2.79,13.6.74,2.16,1.64,4.27,2.74,6.27-.4.69-.81,1.37-1.25,2.03-.22.33-.44.66-.68.97-1.56-2.59-2.81-5.37-3.8-8.22-1.61-4.64-2.51-9.49-2.95-14.37-.05-.57-.1-1.14-.14-1.7-.29-4.5-.18-9.01.26-13.48.49-4.97,1.4-9.9,2.75-14.71,1.1-3.94,2.5-7.79,4.24-11.47.24-.5.48-1,.73-1.5.48-.96,1-1.9,1.53-2.83.79-1.4,1.65-2.76,2.56-4.08.9-1.33,1.87-2.62,2.88-3.87,2.63-3.23,5.61-6.19,8.84-8.82,3.31-2.69,6.88-5.06,10.59-7.15,2.26-1.27,4.58-2.44,6.94-3.53-.46-.93-.58-2.03-.52-3.06.11-1.76.75-3.29,1.48-4.46.74-1.17,1.55-1.97,2.2-3.33.64-1.36,1.11-3.27,1.51-5.24.14-.68.26-1.36.39-2.05.65-3.88,1.42-6.32,2.22-8.01.48-1.01.98-1.76,1.46-2.38,1.28-1.67,2.47-2.51,3.94-3.39,1.46-.88,3.19-1.8,6.81-1.8-.13,1.82-2.62,4.27-4.91,8.3-.63,1.44-.89,2.87-.96,4.29-.08,1.64.11,3.29.15,4.9.04,1.59-.06,3.15-.83,5.94-.79,2.88-2.28,7.07-6.3,9.83.97-.59,1.89-1.28,2.72-2.06.84-.8,1.6-1.69,2.25-2.64.57-.85,1.06-1.76,1.49-2.7.16-.37.32-.73.45-1.11,1.95.09,3.68.53,4.95,1.03,2.36.92,3.16,2.01,4.08,2.82.91.81,1.94,1.35,3.82,1.73,1.87.38,4.58.61,6.02.24-.38,3.43-3.13,5.56-5.7,6.8-2.56,1.24-4.92,1.61-6.9,1.37-1.18-.14-2.22-.49-3.17-.94-3.57-1.63-4.99-.85-6.55-.41-.52.15-1.06.26-1.62.34-1.06.14-2.15.14-3.16,0-1.24-.17-2.38-.54-3.2-1.53-2.55,1.15-5.07,2.39-7.5,3.77-3.56,2-6.98,4.27-10.14,6.84-3.07,2.5-5.9,5.3-8.39,8.37-2.56,3.15-4.77,6.59-6.6,10.21-.76,1.51-1.46,3.04-2.1,4.6,2.1-2.89,4.53-5.56,7.21-7.92,3.2-2.8,6.77-5.17,10.61-6.99,2.26-1.07,4.61-1.95,7.03-2.61,2.39-.65,4.84-1.08,7.3-1.25,2.08-.15,4.17-.14,6.24.08.4.04.78.08,1.18.14,2.49.34,4.95.95,7.31,1.81.73.27,1.46.56,2.17.88,1.01-.64,1.88-.79,2.79-.66,1.3.17,2.66.91,3.75,1.55s1.91,1.19,3.11,1.46c1.21.27,2.81.26,4.78.31,1.96.04,4.28.14,6.41.83,2.14.69,4.08,1.99,5.84,3.44,1.76,1.46,3.35,3.07,4.45,6.97-2.41-1.76-4.64-2.08-6.68-2.01-2.04.07-3.9.53-6.39.91-2.49.37-5.63.67-7.87.66-4.03-.02-5.23-.99-10.08-6.15,1.56,3.5,3.37,5.15,4.78,6.16.15.11.29.2.54.33.17.08.4.17.66.27-.11.93-.34,1.78-.55,2.55-.63,2.24-1.18,3.77-1.43,5.02-.26,1.25-.22,2.23-.11,3.17.13.95.33,1.86.29,3.15-.04,1.29-.3,2.96,1.03,7.09-2.66-.9-4.1-2.09-5.31-3.55-1.21-1.47-2.18-3.19-2.86-4.89-.7-1.69-1.1-3.34-1.25-4.95-.15-1.6-.05-3.17-.05-4.68s-.11-3-.26-4.45c-.15-1.45-.34-2.87-.36-4.36-.02-1.51.14-3.09.5-4.29.21-.69.5-1.27,1.07-1.77-.02,0-.05-.02-.07-.02-2.15-.79-4.38-1.34-6.64-1.65-1.01-.14-2.01-.22-3.03-.25-1.24-.06-2.49-.03-3.73.06-2.26.17-4.52.56-6.71,1.16-2.23.61-4.41,1.42-6.5,2.41-3.58,1.69-6.9,3.9-9.86,6.5-2.36,2.07-4.51,4.39-6.37,6.91-1.05,1.41-2.02,2.88-2.89,4.4-2.5,4.38-4.26,9.19-5.12,14.16v.02Z"/>
  <path class="st0" d="M188.31,268.78c-.5-.85-1.08-1.66-1.76-2.38-.68-.72-1.44-1.36-2.28-1.89-.91-.58-1.91-1.03-2.94-1.36-.69-.21-1.38-.38-2.1-.5.14-.62.2-1.24.22-1.88,0-.24,0-.49-.02-.73,0-.18-.02-.36-.04-.54.99.14,1.95.37,2.9.68,1.29.41,2.52.97,3.67,1.69,1.06.68,2.04,1.48,2.9,2.39.32.35.63.71.92,1.09-.15.28-.3.57-.44.86-.2.42-.39.85-.55,1.28-.16.43-.32.88-.46,1.32,0,0,0,0,0-.02Z"/>
  <path class="st0" d="M150.1,268.48c.22.47.61.75,1.15.82.54.08.99-.12,1.32-.55.34-.45.39-.92.14-1.41-.23-.46-.62-.74-1.15-.84-.57-.09-1.01.1-1.32.57-.32.46-.36.93-.13,1.41ZM146.84,268.67c0-.38.15-.69.43-.97.35-.35.77-.5,1.27-.45-.39-.28-.64-.66-.76-1.11-.13-.46-.03-.88.3-1.25.32-.38.72-.46,1.16-.25.45.2.78.51,1.01.93-.1-.35-.13-.71-.09-1.1.04-.39.25-.65.63-.78.39-.14.73-.08,1.03.16.3.24.46.55.47.94.18-.31.44-.54.79-.69.34-.14.67-.09.97.15.17.14.28.29.33.46.04.14.03.29,0,.45-.09.37-.26.68-.51.92.39-.13.77-.14,1.17-.03.4.11.66.37.78.77.12.41.03.75-.29,1.03-.31.28-.65.48-1.02.61.39.13.68.38.85.74.11.22.14.44.08.67-.03.14-.1.28-.19.41-.25.35-.57.48-.98.41-.4-.08-.75-.22-1.08-.42.12.36.14.73.05,1.14-.09.4-.33.65-.73.74-.39.11-.73,0-1-.29-.28-.3-.41-.65-.38-1.04-.09.38-.31.65-.67.79-.37.14-.72.13-1.05-.06-.35-.18-.53-.46-.57-.84-.03-.38.05-.72.23-1.05-.4.29-.84.38-1.33.25-.5-.12-.79-.42-.87-.94-.02-.11-.02-.2-.02-.3Z"/>
  <path class="st0" d="M158.76,245.75c1.88,2.97,1.8,6.68.61,9.89-.83,2.26-2.22,4.28-3.84,6.09l-2.71.69c-.13,0-.25-.02-.38-.05-.51-.1-1.04-.37-1.55-.33-.13,0-.25.05-.38.09-.1.04-.2.08-.3.13-.22.11-.44.23-.66.34-.04.02-.08.03-.12.05-.39.16-.77.22-1.15.33-.1.03-.2.07-.3.11l-1.07-2.35c-1.33-3.73-2.26-5.52-3.03-6.84-.58-1-1.05-1.74-1.42-2.38-1.32-2.34-1.12-3.54-.46-4.36.66-.81,1.77-1.24,2.61-2.01.84-.76,1.41-1.85,2.37-2.24.96-.4,2.3-.09,3.21.43,2.87-2.76,6.69-.53,8.56,2.43Z"/>
  <path class="st0" d="M157.41,267.36c.11-.52,0-1.11-.33-1.54-.32-.42-.84-.68-1.12-1.09-.06-.09-.11-.18-.15-.28-.07-.17-.13-.36-.19-.54-.04-.11-.08-.21-.12-.31-.05-.11-.1-.21-.16-.31-.17-.25-.44-.44-.73-.59l-.06-.03c-.09-.04-.17-.07-.26-.1-.11-.04-.21-.07-.32-.09-.4-.08-.76-.05-1.15-.08l2.71-.69c1.95-1.24,2.98-2.32,3.85-3.73.86-1.42,1.59-3.18,2.03-3.95,1.61-2.72,3.57-3.65,5.72-3.8,3.36-.24,7.19,1.41,7.82,4.98,2.11.63,3.1,2.64,3.23,4.85.09,1.67-.34,3.45-1.17,4.83-1.93,3.18-6.09,4.18-10,4.53-3.46.31-6.72.12-10.03-.53-.03,0-.07,0-.1-.02,0-.03,0-.05,0-.07.08-.49.42-.94.52-1.46Z"/>
  <path class="st0" d="M150.9,273.34c.35.14.69.33,1.06.41.52.11,1.12,0,1.55-.32.42-.32.66-.86,1.07-1.15.41-.28,1-.3,1.46-.57.46-.27.79-.78.87-1.31v-.14c.03-.28,0-.56-.04-.83,3.03.9,7.16,1.23,10.01,1.58,3.61.43,4.59,1.73,5.21,3.23,1.23,2.98,1,6.76-2.09,8.32-.17.59-.37,1.16-.7,1.69-.32.53-.78,1-1.34,1.18-.56.16-1.23,0-1.82,0-1.49,3.12-4.9,2.8-7.8,1.64-2.53-1.02-4.68-2.68-5.97-4.84-.18-.31-.36-.63-.5-.96-1.07-2.37-1.17-5.26-.99-7.91h0Z"/>
  <path class="st0" d="M146.56,271.12c.4.33.76.6,1.13.96.38.36.75.81,1.24.98.22.08.46.1.72.1.29,0,.58,0,.85.06-.94,2.16-.77,4.85-.51,6.36.32,1.84.15,2.17-.04,2.49-.59,1.01-1.33,1.92-2.15,2.77-.82.85-1.69,1.62-2.72,2.24-1.03.61-2.2,1.05-3.32.96-1.12-.09-2.19-.69-3.32-1.04-1.12-.35-2.31-.43-3.32-.95-1.02-.51-1.85-1.46-1.54-2.75-1.05,0-2.35-.22-3.04-.98-.69-.75-.74-2.03-.72-3.19.03-1.17.15-2.24.42-3.28.27-1.05.68-2.08,1.2-3.09.49-.96,1.08-1.88,4.55-2.12,1.08-.08,4.66-.91,6.55-1.57l2.68-.17c0,.37.11.73.28,1.06.04.08.09.14.14.21.04.07.09.13.14.19.22.29.5.54.77.76Z"/>
  <path class="st0" d="M125.63,257.34c.46-1.06,1.77-1.84,2.98-1.89-.81-4.04,3.38-5.46,6.85-5.1,3.47.37,6.24,2.53,8.27,5.19,1.23,1.61,2.19,3.41,3.2,5.17l1.07,2.35c-.48.18-.95.51-1.27.94-.32.43-.48.96-.58,1.47-.1.5-.14.97-.3,1.45-.17.47-.47.95-.58,1.47-.03.14-.04.29-.04.43v.07l-2.68.17c-1.02.08-2.04.15-3.06.19-1.24.06-2.47.07-3.71,0-1.24-.09-2.5-.27-3.65-.66-1.15-.4-2.19-1-3.3-1.68-1.11-.69-2.29-1.44-2.79-2.42-.5-.99-.32-2.22-.42-3.49-.03-.41-.09-.81-.14-1.23-.12-.87-.18-1.72.13-2.43h0Z"/>
  <path class="st0" d="M114.52,268.78s0,.02-.02.03c-.04-.14-.09-.27-.14-.4-.24-.76-.53-1.51-.87-2.22-.14-.29-.29-.58-.45-.86.3-.38.6-.74.93-1.09.86-.92,1.84-1.72,2.9-2.39,1.14-.71,2.38-1.27,3.66-1.69,1.19-.39,2.42-.64,3.67-.78.02.18.04.37.07.54.03.25.06.5.09.74.04.42.06.86.07,1.29,0,.18,0,.38,0,.56-1,.13-1.97.33-2.93.63-1.03.33-2.02.78-2.93,1.36-.84.53-1.61,1.17-2.28,1.89-.68.72-1.26,1.53-1.76,2.38Z"/>
  <path class="st0" d="M84.21,293.27c-.8-.66-1.42-1.43-1.8-2.31-.46-1.06-1.13-1.85-2.3-2.54-1.16-.67-2.81-1.24-4.16-1.24,2.34-1.86,4.38-2.23,5.82-2.26s2.29.27,2.89.44c.6.18.94.23,1.56.35.62.11,1.51.26,3.96-.61,0,0,.02,0,.03,0,1-.35,1.72-.51,2.81-.57,1.08-.06,2.54,0,4.03.18.43.06.86.13,1.36.22-.22.15-.44.32-.66.49-.44.35-.84.73-1.25,1.12-.19.18-.39.37-.59.53-.3.23-.62.42-.97.58-.44.2-.9.35-1.37.47-.68.16-1.35.28-2.04.37-.39.05-.78.1-1.17.13-.38.02-.75.04-1.14.04-.33,0-.67,0-1-.04-.24-.02-.49-.05-.73-.11-.59-.14-1.18-.3-1.77-.44.07.6.14,1.21.2,1.8.02.21.06.41.1.63.02.13.05.26.09.39.02.12.05.23.09.34.05.2.12.4.18.58.06.16.13.32.19.47,0,.03.02.06.04.08.04.1.08.19.13.28.03.06.06.12.1.17.17.34.38.67.6.97.13.18.26.37.42.54l.38.43s.04.05.07.07c.37.4.76.75,1.19,1.09.28.22.57.43.86.63.44.31.91.58,1.39.84-1.3-.07-1.95-.26-2.49-.5-1.12-.49-1.69-1.18-2.48-1.79-.79-.62-1.79-1.16-2.59-1.82Z"/>
  <path class="st0" d="M104.73,274.23c-.02.84-.04,1.68-.02,2.51-.56-.49-1.14-.96-1.75-1.41-.61-.43-1.25-.84-1.91-1.17-.33-.16-.67-.31-1.02-.42-.31-.1-.62-.17-.94-.22-.29-.05-.58-.07-.86-.06-.49.02-.98.12-1.42.31-.4.17-.76.41-1.06.72-.29.31-.51.69-.65,1.09-.17.53-.2,1.11-.12,1.67.06.38.16.74.31,1.09-.24.07-.33.11-.44.14-.64.25-2.05.89-1.72,2.59.2-.38.51-.7.91-.96.73-.47,1.74-.71,3.31-.76-.94-1.18-1.19-2.13-1.14-2.87.05-.73.4-1.24,1.1-1.55.71-.3,1.78-.4,3.5.53,1.07.58,2.4,1.56,4.02,3.11.14,1.32.39,2.64.76,3.92.03.07.05.14.07.2-.94.07-1.87.2-2.78.41-.58.14-1.15.3-1.71.5-.37.13-.73.27-1.07.42-.16-.04-.34-.08-.5-.12-.52-.12-1.05-.23-1.59-.32-.44-.08-.89-.14-1.33-.19-.82-.09-1.64-.13-2.48-.14-.69,0-1.37,0-2.06.1-.58.07-1.16.2-1.72.37l-.29.09c-.96-.96-1.62-2-2.01-2.87-.54-1.19-.58-2.07-.57-2.89,0-.82.06-1.56-.05-2.11-.11-.55-.38-.89-.67-1.38-.28-.5-.59-1.14-.52-1.71.07-.58.51-1.08,1.06-1.42.54-.35,1.2-.52,1.94-.72.75-.21,1.59-.44,2.39-.73.8-.28,1.57-.62,2.41-.77.84-.15,1.75-.12,2.69.05.94.17,1.89.47,3.08,1.08,1.18.62,2.59,1.53,4,2.97.28.29.56.59.85.93Z"/>
  <path class="st0" d="M106.08,283.92c.14.38.29.74.45,1.11.42.95.91,1.85,1.49,2.7.65.96,1.41,1.84,2.25,2.64.83.77,1.74,1.47,2.72,2.06-4.01-2.76-5.51-6.96-6.3-9.83-.77-2.8-.87-4.35-.83-5.94.04-1.61.21-3.26.14-4.9-.06-1.43-.32-2.86-.95-4.29-2.29-4.03-4.79-6.48-4.91-8.3,3.62,0,5.35.93,6.81,1.8,1.46.88,2.66,1.72,3.94,3.39.75.99,1.55,2.28,2.28,4.46.5,1.5.99,3.41,1.4,5.93.13.69.25,1.37.39,2.05.39,1.97.87,3.88,1.51,5.24.65,1.36,1.46,2.16,2.19,3.33.73,1.17,1.38,2.7,1.49,4.46.06,1.03-.06,2.13-.52,3.06,2.36,1.09,4.67,2.26,6.94,3.53,3.71,2.09,7.28,4.46,10.58,7.15,3.24,2.63,6.22,5.59,8.85,8.82,1.71,2.11,3.28,4.34,4.68,6.66-.13.22-.26.44-.38.68-.49.84-.95,1.69-1.39,2.55-1.56-2.78-3.36-5.42-5.36-7.89-2.49-3.07-5.33-5.87-8.39-8.37-3.16-2.58-6.59-4.84-10.14-6.84-2.45-1.38-4.95-2.62-7.5-3.78-.83,1-1.96,1.37-3.2,1.54-1.02.14-2.1.14-3.16,0-.55-.08-1.09-.18-1.62-.34-1.56-.44-2.99-1.23-6.56.41-.95.44-1.99.79-3.16.94-1.99.24-4.34-.13-6.9-1.37-2.56-1.24-5.32-3.38-5.7-6.8,1.44.37,4.16.14,6.02-.24,1.88-.38,2.9-.92,3.82-1.73.92-.81,1.72-1.9,4.08-2.82,1.27-.5,2.99-.95,4.95-1.03h0Z"/>
</svg>