<svg width="1018" height="1053" viewBox="0 0 1018 1053" fill="none" xmlns="http://www.w3.org/2000/svg">
<path d="M281.098 907C264.167 931.208 240.878 950.753 211.442 965.565L207.721 958.006C230.351 945.549 246.529 929.277 256.372 909.237C262.707 894.708 264.426 879.33 261.647 862.964C258.421 844.031 259.363 825.31 264.308 806.566C269.324 787.892 277.896 771.078 290.023 756.172C302.245 741.218 318.588 733.659 339.169 733.4C328.878 748.354 324.428 764.743 325.911 782.546C327.348 800.349 325.793 817.657 321.131 834.541C316.539 851.425 309.098 866.92 298.76 881.144C292.378 889.951 286.491 898.57 281.098 907.023V907ZM284.748 861.905C296.476 828.395 302.363 805.247 302.41 792.413C296.829 801.974 290.895 825.098 284.748 861.905Z" fill="#D6C9BA"/>
<path d="M61.7431 808.897C62.0493 804.564 62.8499 800.325 64.2863 796.181C65.6522 792.083 67.5125 788.174 69.7967 784.524C72.0809 780.803 74.5064 777.271 77.1203 773.786C79.6635 770.254 82.2068 766.769 84.7971 763.307C88.7768 766.109 92.9685 768.464 97.4427 770.442C101.846 772.42 106.368 774.351 110.959 776.141C115.481 777.883 119.508 780.544 122.993 784.147C123.252 784.406 123.487 784.642 123.746 784.948C120.332 790.788 117.365 796.864 114.892 803.245C113.338 801.196 111.595 799.407 109.688 797.782C107.215 795.663 104.484 794.132 101.564 793.002C98.6437 791.942 95.5588 791.4 92.3798 791.4C89.2007 791.4 86.2336 792.648 83.5726 795.05C81.4061 797.028 79.8519 799.524 78.9335 802.374C80.37 799.218 83.1487 797.782 87.3639 798.229C93.1333 798.724 98.2198 800.773 102.6 804.258C106.438 807.366 109.358 811.016 111.407 815.373C111.289 816.244 111.148 817.162 111.101 818.104C102.741 815.561 94.1694 814.384 85.5036 814.572C83.1487 814.643 80.7939 814.643 78.439 814.454C72.7403 814.03 67.1593 812.9 61.6489 811.11C61.6489 810.427 61.7196 809.674 61.7667 808.944L61.7431 808.897Z" fill="#D6C9BA"/>
<path d="M508.695 487.083C505.469 481.808 502.125 476.651 498.593 471.564V337.479C498.593 322.455 498.593 295.916 493.883 280.892C494.26 280.468 494.636 280.091 494.99 279.715C498.451 275.876 501.795 271.826 504.715 267.493C505.469 266.433 506.199 265.374 506.881 264.267C508.059 266.198 509.354 268.105 510.72 269.918C514.252 274.699 518.397 278.985 522.918 282.823C518.821 298.153 518.821 323.091 518.821 337.479V471.564C518.632 471.87 518.444 472.129 518.255 472.436C514.912 477.216 511.756 482.114 508.648 487.083H508.695Z" fill="#D6C9BA"/>
<path d="M255.053 361.263C258.28 361.451 261.506 361.522 264.732 361.381C265.98 366.232 267.275 371.059 268.641 375.84C274.033 394.514 280.792 412.811 288.422 430.684C281.357 430.684 274.222 431.108 267.228 431.861H267.04C260.211 415.354 254.206 398.493 249.308 381.35C247.212 374.144 245.351 366.962 243.609 359.638L244.362 359.827C246.152 360.203 248.012 360.439 249.826 360.698C251.568 360.957 253.358 361.122 255.1 361.263H255.053Z" fill="#D6C9BA"/>
<path d="M94.9005 607.887C102.53 625.383 113.928 629.41 129.116 619.991C144.423 610.571 154.149 595.17 158.364 574.024C159.471 577.933 160.648 581.842 161.825 585.68C162.814 589.095 163.874 592.509 164.745 595.924C165.358 598.538 165.852 601.128 166.182 603.742C166.606 607.957 166.488 612.243 165.923 616.458C165.617 618.743 165.24 620.98 164.934 623.287C164.745 624.535 164.628 625.76 164.51 627.008C162.956 628.68 161.472 630.305 159.989 631.718C149.133 642.385 139.666 647.848 128.928 651.569C118.261 655.219 106.439 657.268 87.836 653.241C87.1531 637.793 89.2724 622.652 94.9005 607.887Z" fill="#D6C9BA"/>
<path d="M76.7439 547.461C85.7395 548.945 94.8527 550.122 103.895 550.993C107.875 551.37 111.761 551.747 115.67 551.983C121.863 552.406 128.127 552.736 134.391 552.665C140.089 552.665 145.859 552.406 151.487 551.229C151.911 551.111 152.358 551.041 152.782 550.923C153.206 554.337 153.889 557.752 154.713 561.096C155.655 564.887 156.762 568.537 157.821 572.258C158.01 572.823 158.198 573.365 158.387 574C147.978 593.969 140.961 601.552 134.65 606.686C125.984 613.821 118.59 616.364 113.503 616.364C108.417 616.364 105.567 613.703 103.895 610.03C102.294 606.38 101.8 601.599 104.955 595.759C87.7882 603.695 80.3469 600.775 76.8852 596.065C71.2571 588.436 75.7785 576.143 84.2559 564.039C75.6372 571.104 70.2446 578.263 68.0781 585.445C64.5458 597.172 70.1975 605.061 85.0095 609.017C82.5369 609.771 80.1114 610.312 77.6388 610.807C65.2287 613.421 50.1106 615.022 34.1211 609.559C31.0834 595.971 31.3424 585.728 34.4979 574C36.6644 565.876 40.1967 556.998 52.9129 543.411C55.6445 543.788 58.3762 544.212 61.0371 544.659C66.312 545.53 71.5162 546.519 76.7675 547.391L76.7439 547.461Z" fill="#D6C9BA"/>
<path d="M467.767 509.171C474.337 515.011 480.719 521.087 486.795 527.468C483.639 534.109 480.649 540.867 477.87 547.697C470.499 539.455 462.61 531.684 454.321 524.36C435.294 507.593 413.983 493.394 391.094 482.538C377.694 476.156 363.754 470.928 349.436 467.019C335.378 463.181 320.919 460.685 306.413 459.578C298.407 459.013 290.424 458.825 282.488 459.201C275.988 459.39 269.536 459.955 263.084 460.803C248.531 462.781 234.213 466.313 220.438 471.399C220.32 471.399 220.179 471.47 220.061 471.517C223.711 474.673 225.524 478.393 226.866 482.867C229.292 490.615 230.281 500.811 230.163 510.466C230.045 520.074 228.797 529.211 227.879 538.513C226.89 547.814 226.207 557.304 226.207 567.124C226.207 576.944 226.89 586.905 225.901 597.219C224.912 607.58 222.298 618.201 217.894 629.057C213.491 639.983 207.297 651.074 199.55 660.517C191.803 669.89 182.572 677.59 165.522 683.359C174.023 656.797 172.281 646.082 172.092 637.77C171.833 629.528 173.152 623.617 173.882 617.541C174.683 611.466 174.871 605.202 173.27 597.125C171.669 589.118 168.136 579.252 164.086 564.863C162.72 559.895 161.237 554.431 160.554 548.474C162.226 547.861 163.662 547.226 164.769 546.731C166.323 545.93 167.241 545.295 168.231 544.612C177.273 538.159 188.883 527.563 198.844 505.027C167.783 538.159 160.106 544.423 134.274 544.541C119.885 544.612 99.8221 542.681 83.8091 540.326C67.8197 537.9 55.9277 534.933 42.8347 534.486C29.7418 533.991 15.4478 536.087 0 547.39C7.06455 522.335 17.1668 511.973 28.5172 502.601C39.7969 493.299 52.2542 484.987 65.8887 480.513C79.594 476.038 94.453 475.426 107.051 475.167C119.626 474.861 129.917 474.908 137.665 473.189C145.412 471.447 150.616 467.985 157.61 463.817C164.557 459.672 173.364 454.939 181.653 453.832C187.47 452.961 193.121 453.95 199.503 458.047C204.095 455.999 208.734 454.138 213.397 452.396C228.585 446.815 244.316 442.906 260.305 440.739C262.778 440.362 265.321 440.127 267.864 439.868C281.122 438.502 294.521 438.384 307.779 439.373C323.651 440.48 339.334 443.282 354.64 447.427C370.135 451.642 385.206 457.294 399.712 464.194C424.321 475.85 447.186 491.109 467.697 509.101L467.767 509.171Z" fill="#D6C9BA"/>
<path d="M206.66 967.92C210.192 969.709 213.795 971.452 217.445 973.006C231.881 979.152 247.258 983.25 262.87 984.286C269.888 984.71 276.882 984.592 283.829 983.862C291.647 982.991 299.441 981.319 306.953 978.893C319.41 974.914 331.255 968.838 342.04 961.326C352.755 953.814 362.481 944.889 371.052 935.022C379.483 925.226 386.783 914.535 392.858 903.185C398.745 892.141 403.455 880.413 406.987 868.38C410.519 856.347 412.874 844.007 414.169 831.527C415.535 818.811 415.842 806.024 415.276 793.237C414.664 780.215 413.228 767.239 411.014 754.335C408.848 741.312 405.928 728.455 402.395 715.739C397.262 697.3 390.856 679.309 383.556 661.695C373.643 637.628 362.057 614.362 349.788 591.403C337.566 568.561 324.756 546.048 312.228 523.348C302.055 504.862 292.094 486.235 282.91 467.255C290.54 466.949 298.099 467.137 305.658 467.632C313.405 483.15 321.647 498.339 330.007 513.551C342.582 536.323 355.487 558.906 367.755 581.866C380.283 605.39 392.175 629.316 402.348 653.947C409.907 672.315 416.548 691.107 421.87 710.276C428.817 735.284 433.574 760.834 435.198 786.714C435.316 788.574 435.457 790.435 435.504 792.295C436.07 806.141 435.763 819.964 434.327 833.67C432.843 847.375 430.23 860.915 426.391 874.126C422.482 887.478 417.207 900.43 410.708 912.722C403.902 925.438 395.708 937.424 386.288 948.28C376.61 959.513 365.636 969.615 353.509 978.069C341.122 986.688 327.487 993.635 313.099 998.18C304.292 1001.03 295.179 1002.96 286.019 1003.95C277.894 1004.82 269.723 1005.01 261.599 1004.44C252.98 1003.88 244.432 1002.51 236.002 1000.46C227.383 998.344 218.952 995.566 210.781 992.08C216.056 996.366 221.566 1000.28 227.336 1003.88C238.427 1010.83 250.272 1016.52 262.659 1020.88C274.927 1025.21 287.691 1028.2 300.666 1029.95C319.269 1032.42 338.155 1032.3 356.758 1029.76C383.038 1026.16 408.565 1017.8 431.831 1005.13C443.417 998.862 454.39 991.468 464.563 983.108C474.736 974.678 484.085 965.235 492.28 954.944C499.415 946.137 505.679 936.647 511.189 926.78C519.196 912.746 525.625 897.863 530.899 882.533C540.625 854.298 546.206 824.839 548.82 795.121C551.622 763.919 551.104 732.458 548.019 701.304C547.595 697.159 547.148 692.92 546.653 688.776C541.261 656.585 529.981 625.43 513.803 597.078C513.685 596.889 513.615 596.772 513.497 596.583C518.278 588.648 523.364 580.947 528.874 573.506C531.535 569.974 534.196 566.488 536.999 563.144C542.156 576.803 546.677 590.696 550.586 604.778C559.252 635.674 565.092 667.37 568.247 699.325C571.097 728.055 571.78 757.09 569.919 786.008C569.66 789.61 569.354 793.26 569.048 796.934C566.269 828.324 560.429 859.479 550.139 889.315C541.638 913.947 530.122 937.636 514.863 958.806C512.696 961.774 510.459 964.764 508.104 967.684C499.062 978.987 488.771 989.467 477.539 998.698C466.377 1008 454.296 1016.08 441.58 1023.02C416.242 1036.87 388.219 1045.98 359.584 1049.89C281.733 1060.49 198.748 1032.58 150.144 953.908C129.374 955.839 112.325 937.707 115.622 917.126C107.945 911.662 100.009 906.764 91.8141 902.361C83.5015 897.957 76.5076 891.999 70.8089 884.417C65.0395 876.905 59.0817 869.581 52.9591 862.587C46.7658 855.523 41.9148 847.563 38.4532 838.638C34.9209 829.714 29.4577 822.202 21.9692 816.126C32.6367 812.335 43.2336 812.594 53.642 816.809C64.0504 821.024 74.765 823.026 85.8093 822.696C96.7829 822.39 107.497 824.627 117.977 829.266C120.025 830.208 121.933 831.244 123.746 832.422C131.117 837.084 136.462 843.584 139.665 852.085C143.762 862.681 145.929 873.42 146.305 884.464C146.494 889.48 146.494 894.519 146.423 899.535C149.084 892.282 150.944 884.77 152.004 876.952C152.993 869.204 152.122 861.622 149.39 854.18C146.659 846.81 142.75 840.098 137.734 834.07C132.647 828.042 126.454 823.638 119.013 820.859C119.13 816.832 119.955 812.806 121.485 808.708C125.206 798.794 129.986 789.54 135.803 780.968C141.619 772.467 144.916 762.906 145.599 752.357C153.605 759.115 158.927 767.498 161.518 777.412C164.179 787.397 164.626 797.452 162.766 807.554C160.835 817.727 161.588 827.712 164.885 837.532C168.182 847.328 169.03 857.265 167.499 867.368C166.133 876.599 165.144 885.924 164.65 895.296C181.44 906.27 183.983 929.677 170.16 944.183C177.484 949.952 185.09 955.345 193.026 960.196C194.58 961.185 196.134 962.127 197.735 963.045C201.197 961.444 204.541 959.748 207.767 957.959L211.488 965.518C209.933 966.318 208.332 967.119 206.707 967.873L206.66 967.92Z" fill="#D6C9BA"/>
<path d="M862.723 561.096C863.524 557.752 864.207 554.337 864.654 550.923C865.078 551.04 865.525 551.111 865.949 551.229C871.53 552.406 877.3 552.665 883.046 552.665C889.31 552.736 895.573 552.406 901.767 551.982C905.676 551.723 909.585 551.37 913.494 550.993C922.607 550.122 931.65 548.945 940.692 547.461C945.967 546.59 951.171 545.601 956.376 544.73C959.107 544.306 961.839 543.858 964.547 543.481C977.263 557.069 980.795 565.947 982.962 574.071C986.117 585.798 986.376 596.042 983.339 609.629C967.349 615.092 952.16 613.468 939.821 610.877C937.278 610.383 934.923 609.818 932.45 609.088C947.262 605.108 952.914 597.243 949.382 585.515C947.215 578.31 941.823 571.174 933.204 564.11C941.634 576.214 946.226 588.506 940.575 596.136C937.089 600.846 929.601 603.766 912.505 595.83C915.613 601.67 915.166 606.427 913.564 610.1C911.892 613.75 909.043 616.435 903.957 616.435C898.87 616.435 891.499 613.891 882.81 606.756C876.499 601.599 869.482 594.04 859.073 574.071C859.262 573.459 859.45 572.894 859.568 572.328C860.674 568.608 861.805 564.958 862.723 561.166V561.096Z" fill="#D6C9BA"/>
<path d="M851.255 603.742C851.514 601.128 852.056 598.538 852.691 595.924C853.563 592.509 854.622 589.095 855.611 585.68C856.789 581.842 857.966 577.933 859.073 574.024C863.288 595.17 873.014 610.571 888.32 619.991C903.509 629.41 914.977 625.336 922.536 607.84C928.188 622.675 930.213 637.746 929.53 653.241C910.927 657.268 899.153 655.219 888.438 651.569C877.771 647.848 868.281 642.385 857.448 631.718C855.965 630.281 854.481 628.68 852.927 627.008C852.809 625.76 852.668 624.535 852.503 623.287C852.197 621.003 851.749 618.766 851.514 616.458C850.949 612.243 850.76 607.957 851.255 603.742Z" fill="#D6C9BA"/>
<path d="M907.771 797.805C905.84 799.407 904.121 801.22 902.567 803.269C900.024 796.887 897.104 790.788 893.713 784.971C893.972 784.665 894.207 784.406 894.466 784.171C897.928 780.568 901.908 777.907 906.5 776.164C911.092 774.375 915.542 772.444 920.017 770.466C924.467 768.487 928.683 766.133 932.662 763.33C935.205 766.816 937.796 770.277 940.339 773.809C942.882 777.295 945.355 780.827 947.663 784.548C949.947 788.198 951.807 792.107 953.173 796.204C954.539 800.349 955.41 804.587 955.716 808.92C955.787 809.674 955.787 810.404 955.834 811.087C950.323 812.876 944.672 814.007 939.044 814.431C936.689 814.619 934.334 814.619 931.979 814.548C923.243 814.36 914.742 815.537 906.382 818.081C906.311 817.139 906.194 816.22 906.076 815.349C908.054 811.016 911.021 807.342 914.883 804.234C919.287 800.749 924.373 798.724 930.142 798.206C934.287 797.782 937.136 799.195 938.502 802.35C937.631 799.501 936.077 797.005 933.863 795.027C931.249 792.601 928.353 791.377 925.127 791.377C921.901 791.377 918.863 791.942 915.943 792.978C912.976 794.085 910.291 795.639 907.818 797.758L907.771 797.805Z" fill="#D6C9BA"/>
<path d="M635.126 780.309C645.793 775.835 656.885 767.028 668.353 754.005C654.153 762.93 643.062 771.761 635.126 780.309ZM667.67 782.051C654.836 785.772 639.953 788.245 623.54 796.51C617.653 799.477 613.061 803.716 608.846 808.308L601.899 803.975C602.276 803.551 602.652 803.174 603.006 802.727C606.232 799.124 609.646 795.71 612.613 789.822C623.893 767.546 640.33 750.85 656.743 738.393C674.475 724.923 692.325 716.539 704.829 710.111C717.404 703.729 724.799 699.326 734.218 682.677C728.708 730.951 718.535 747.883 707.184 759.539C695.787 771.196 683.259 777.601 667.646 782.051H667.67Z" fill="#D6C9BA"/>
<path d="M852.855 895.343C852.29 885.971 851.371 876.669 849.935 867.415C848.451 857.312 849.323 847.375 852.596 837.579C855.893 827.782 856.575 817.798 854.715 807.601C852.855 797.499 853.232 787.444 855.893 777.459C858.554 767.545 863.899 759.162 871.882 752.404C872.565 762.953 875.862 772.514 881.678 781.015C887.495 789.587 892.275 798.818 895.996 808.755C897.55 812.853 898.351 816.88 898.468 820.906C891.027 823.709 884.834 828.112 879.747 834.117C874.731 840.145 870.822 846.833 868.091 854.227C865.359 861.669 864.488 869.251 865.477 876.999C866.466 884.817 868.326 892.329 871.058 899.582C870.94 894.566 870.987 889.527 871.176 884.511C871.552 873.467 873.719 862.728 877.746 852.132C880.972 843.631 886.294 837.061 893.735 832.469C895.525 831.221 897.456 830.231 899.504 829.313C909.984 824.65 920.698 822.437 931.672 822.743C942.716 823.049 953.431 821.071 963.839 816.856C974.247 812.641 984.844 812.382 995.512 816.173C988.023 822.249 982.489 829.761 979.028 838.685C975.542 847.61 970.715 855.57 964.522 862.634C958.399 869.652 952.441 876.952 946.672 884.464C940.903 892.023 933.909 897.981 925.667 902.408C917.425 906.811 909.56 911.709 901.859 917.173C905.133 937.777 888.107 955.886 867.337 953.955C818.733 1032.63 735.677 1060.54 657.897 1049.94C629.191 1046.03 601.239 1036.92 575.83 1023.07C563.185 1016.12 551.104 1008.07 539.942 998.745C530.594 990.997 521.833 982.425 513.968 973.242C516.512 970.015 518.984 966.789 521.339 963.445C523.011 961.161 524.683 958.783 526.237 956.381C534.244 966.13 543.168 975.125 552.823 983.179C562.996 991.562 574.017 998.933 585.603 1005.2C608.845 1017.87 634.372 1026.23 660.605 1029.83C679.208 1032.37 698.165 1032.49 716.745 1030.02C729.696 1028.27 742.459 1025.31 754.752 1020.95C767.091 1016.62 778.983 1010.9 790.074 1003.95C795.844 1000.35 801.354 996.437 806.629 992.151C798.458 995.636 790.027 998.415 781.338 1000.53C772.978 1002.58 764.407 1003.95 755.811 1004.51C747.687 1005.08 739.445 1004.89 731.392 1004.02C722.161 1003.03 713.118 1001.1 704.311 998.25C689.923 993.729 676.288 986.782 663.902 978.14C651.751 969.709 640.777 959.583 631.051 948.351C621.703 937.495 613.437 925.509 606.702 912.793C600.132 900.5 594.928 887.549 591.019 874.197C587.11 860.986 584.52 847.445 583.083 833.74C581.6 820.035 581.294 806.188 581.906 792.365C581.976 790.505 582.094 788.645 582.212 786.785C583.813 760.905 588.523 735.355 595.54 710.346C600.862 691.178 607.503 672.386 615.062 654.018C625.235 629.386 637.127 605.438 649.655 581.936C661.923 558.976 674.828 536.393 687.403 513.622C695.763 498.433 704.005 483.221 711.752 467.702C719.311 467.208 726.87 467.019 734.5 467.326C725.269 486.306 715.355 504.932 705.112 523.418C692.654 546.119 679.773 568.655 667.552 591.473C655.354 614.433 643.744 637.699 633.783 661.766C626.53 679.38 620.149 697.371 615.015 715.809C611.483 728.526 608.563 741.359 606.349 754.405C604.183 767.31 602.699 780.285 602.134 793.307C602.016 796.84 601.875 800.372 601.875 803.975L608.822 808.308C606.537 810.851 604.3 813.465 602.063 816.126C602.322 821.283 602.676 826.417 603.241 831.574C604.536 844.055 606.891 856.394 610.423 868.427C613.955 880.46 618.665 892.188 624.552 903.232C630.628 914.582 637.951 925.25 646.382 935.069C654.93 944.936 664.655 953.861 675.393 961.373C686.179 968.885 697.953 974.961 710.481 978.94C717.969 981.366 725.716 983.038 733.605 983.909C740.552 984.663 747.546 984.78 754.493 984.333C770.176 983.273 785.553 979.176 799.988 973.053C803.638 971.499 807.241 969.756 810.774 967.967C815.413 965.612 820.005 963.069 824.479 960.266C832.415 955.439 839.974 950.023 847.274 944.253C833.522 929.724 836.065 906.34 852.855 895.367V895.343Z" fill="#D6C9BA"/>
<path d="M773.78 359.662C772.108 366.985 770.248 374.191 768.152 381.374C763.183 398.493 757.179 415.378 750.42 431.885H750.232C743.167 431.132 736.103 430.778 729.038 430.708C736.668 412.834 743.426 394.537 748.819 375.863C750.185 371.083 751.48 366.255 752.728 361.404C755.954 361.522 759.18 361.404 762.406 361.287C764.149 361.169 765.939 360.981 767.681 360.722C769.471 360.463 771.331 360.227 773.144 359.85C773.333 359.78 773.568 359.733 773.827 359.662H773.78Z" fill="#D6C9BA"/>
<path d="M864.324 289.417C863.028 288.357 861.78 287.18 860.556 286.002C857.942 283.53 855.352 281.034 852.549 278.796C851.183 277.69 849.747 276.63 848.334 275.641C851.56 275.029 854.292 274.581 857.071 274.205C866.608 272.956 875.909 272.65 882.927 273.027C889.921 273.404 894.583 274.464 900.894 276.677C901.012 276.677 901.083 276.748 901.153 276.748C916.884 282.329 922.606 281.34 926.562 280.657C930.471 279.903 932.708 279.597 936.547 278.42C940.385 277.313 945.848 275.382 955.079 275.57C964.31 275.759 977.333 278.114 992.38 290.1C983.762 290.1 973.165 293.75 965.676 298.036C958.188 302.439 953.973 307.526 950.982 314.355C948.556 320.006 944.6 324.975 939.443 329.19C934.286 333.476 927.857 336.938 922.841 340.917C917.826 344.897 914.105 349.301 906.97 352.456C903.555 354.01 899.293 355.258 891.051 355.682C898.233 351.773 905.062 347.111 910.95 341.412C911.703 340.729 912.433 339.975 913.116 339.245C916.766 335.336 919.992 331.003 922.465 326.27C922.724 325.893 922.889 325.517 923.077 325.163C923.265 324.74 923.501 324.292 923.642 323.868L924.019 323.115C924.396 322.361 924.702 321.513 925.008 320.689C925.573 319.394 925.997 318.028 926.374 316.662C926.374 316.592 926.374 316.474 926.491 316.356C926.868 315.061 927.174 313.742 927.433 312.447C927.551 312.259 927.551 312.07 927.551 311.882C927.622 311.764 927.669 311.576 927.669 311.458C927.928 310.092 928.163 308.797 928.281 307.431C928.705 303.593 929.153 299.684 929.529 295.822C925.809 296.764 922.041 297.753 918.249 298.671C916.695 299.048 915.141 299.237 913.611 299.354C911.444 299.543 909.325 299.613 907.158 299.613C904.733 299.613 902.331 299.496 899.905 299.354C897.362 299.166 894.889 298.86 892.417 298.554C888.013 297.988 883.61 297.258 879.347 296.199C876.31 295.398 873.343 294.456 870.493 293.161C868.327 292.172 866.278 290.924 864.347 289.44L864.324 289.417Z" fill="#D6C9BA"/>
<path d="M844.048 202.193C841.999 202.499 840.021 202.994 838.043 203.629C835.806 204.383 833.64 205.301 831.544 206.361C827.211 208.48 823.184 211.071 819.275 213.873C815.366 216.722 811.645 219.76 807.995 222.939C808.184 217.594 808.066 212.201 807.925 206.808C809.714 204.642 811.527 202.711 813.317 200.851C822.43 191.596 831.473 185.709 839.032 181.753C846.591 177.844 852.737 175.913 858.742 174.806C864.7 173.746 870.587 173.511 875.98 174.5C881.302 175.489 886.27 177.655 891.404 179.469C896.49 181.329 901.883 182.812 906.64 184.178C911.467 185.473 915.635 186.604 919.168 188.841C922.7 191.007 925.479 194.234 925.926 197.954C926.35 201.604 924.442 205.702 922.582 208.928C920.792 212.083 919.05 214.273 918.367 217.806C917.613 221.338 917.99 226.118 918.061 231.393C918.061 236.668 917.873 242.32 914.411 249.949C911.868 255.53 907.605 262.171 901.53 268.388L899.67 267.823C896.067 266.763 892.346 265.892 888.625 265.468C884.222 264.903 879.818 264.785 875.367 264.855C870.093 264.926 864.841 265.232 859.566 265.797C856.717 266.174 853.797 266.551 851.018 267.045C847.604 267.611 844.213 268.341 840.845 269.094C839.738 269.353 838.679 269.589 837.619 269.848C835.335 268.859 833.027 267.917 830.743 267.116C827.14 265.821 823.49 264.761 819.769 263.89C813.953 262.524 807.995 261.653 801.99 261.229L802.367 259.934C804.793 251.739 806.464 243.238 807.312 234.737C817.721 224.799 826.222 218.488 833.098 214.768C844.071 208.81 850.948 209.422 855.54 211.353C860.061 213.331 862.227 216.628 862.533 221.338C862.84 226.048 861.285 232.194 855.21 239.776C865.242 240.082 871.812 241.637 876.474 244.674C879.017 246.346 880.996 248.466 882.291 250.868C884.41 239.941 875.297 235.844 871.246 234.242C870.493 233.983 869.951 233.748 868.397 233.3C869.315 231.063 869.998 228.709 870.375 226.283C870.87 222.68 870.752 218.959 869.622 215.545C868.75 212.931 867.337 210.529 865.477 208.527C863.57 206.549 861.215 204.995 858.671 203.865C855.822 202.617 852.714 202.005 849.558 201.887C847.698 201.816 845.838 201.957 844.048 202.264V202.193Z" fill="#D6C9BA"/>
<path d="M470.945 688.163C470.38 692.567 469.956 696.9 469.509 701.327C466.4 732.482 465.906 763.919 468.637 795.144C471.298 824.862 476.879 854.345 486.558 882.556C491.338 896.45 497.107 909.99 504.101 922.895C501.558 927.298 498.897 931.702 496.095 935.917C494.658 938.037 493.246 940.132 491.762 942.181C481.777 925.556 473.724 907.683 467.413 889.315C457.122 859.479 451.306 828.324 448.503 796.934C448.197 793.284 447.891 789.61 447.632 786.007C445.772 757.09 446.455 728.055 449.304 699.325C452.46 667.37 458.3 635.674 466.895 604.778C473.959 579.464 482.884 554.714 494.046 531.001C495.6 527.775 497.155 524.548 498.756 521.393C501.864 515.247 505.138 509.171 508.552 503.213C513.639 494.218 519.149 485.458 524.965 476.957C530.735 468.385 536.928 460.073 543.427 452.066C560.288 431.273 579.386 412.293 600.085 395.361C621.279 378.053 644.144 362.841 667.952 349.395C682.458 341.2 697.34 333.688 712.459 326.694C709.491 320.736 708.738 313.672 709.115 307.031C709.798 295.728 713.942 285.884 718.605 278.372C723.314 270.86 728.519 265.727 732.687 256.967C736.784 248.207 739.822 235.938 742.365 223.269C743.236 218.936 744.037 214.509 744.838 210.105C748.982 185.167 753.951 169.461 759.085 158.605C762.193 152.082 765.348 147.301 768.433 143.275C776.605 132.536 784.234 127.144 793.654 121.492C803.003 115.841 814.118 109.883 837.289 109.883C836.489 121.61 820.499 137.317 805.805 163.244C801.778 172.498 800.106 181.682 799.659 190.843C799.164 201.392 800.342 211.989 800.601 222.35C800.86 232.594 800.224 242.579 795.279 260.57C790.192 279.055 780.655 306.042 754.94 323.797C761.133 320.006 767.02 315.555 772.366 310.587C777.759 305.43 782.586 299.731 786.801 293.585C790.451 288.121 793.607 282.281 796.338 276.206C797.398 273.851 798.387 271.496 799.258 269.071C811.786 269.636 822.877 272.485 831.002 275.711C846.12 281.599 851.277 288.616 857.164 293.82C862.981 299.024 869.621 302.51 881.655 304.935C893.617 307.361 911.043 308.844 920.274 306.489C917.849 328.507 900.187 342.236 883.774 350.219C867.361 358.225 852.219 360.58 839.526 359.026C831.967 358.084 825.279 355.87 819.204 352.998C796.338 342.518 787.225 347.534 777.241 350.384C773.897 351.373 770.435 352.056 766.879 352.55C760.074 353.492 753.127 353.492 746.604 352.55C738.668 351.443 731.368 349.065 726.093 342.683C709.727 350.078 693.62 358.061 678.007 366.938C655.189 379.772 633.265 394.372 612.99 410.927C593.35 426.987 575.194 444.978 559.181 464.712C542.768 484.94 528.639 507.075 516.912 530.365C512.014 540.043 507.563 549.91 503.466 559.965C516.912 541.339 532.477 524.219 549.715 509.03C570.226 491.039 593.091 475.779 617.699 464.099C632.205 457.223 647.253 451.572 662.771 447.356C678.078 443.212 693.761 440.41 709.562 439.303C722.89 438.314 736.266 438.432 749.547 439.797C752.091 440.056 754.563 440.292 757.106 440.669C773.096 442.835 788.85 446.744 803.968 452.325C808.678 454.068 813.317 455.928 817.838 457.977C824.29 453.879 829.871 452.89 835.759 453.762C844.071 454.868 852.808 459.602 859.802 463.746C866.796 467.891 872.023 471.376 879.771 473.119C887.518 474.861 897.809 474.79 910.384 475.097C922.959 475.356 937.841 475.968 951.476 480.442C965.181 484.916 977.638 493.229 988.918 502.531C1000.2 511.903 1010.37 522.264 1017.44 547.32C1002.01 536.04 987.67 533.921 974.601 534.415C961.531 534.839 949.616 537.83 933.626 540.255C917.637 542.61 897.55 544.541 883.185 544.47C857.329 544.353 849.652 538.089 818.615 504.956C828.6 527.468 840.186 538.089 849.228 544.541C850.17 545.224 851.089 545.836 852.69 546.66C853.797 547.155 855.233 547.767 856.905 548.403C856.222 554.361 854.739 559.824 853.373 564.793C849.346 579.181 845.814 589.048 844.189 597.054C842.517 605.108 842.752 611.372 843.506 617.471C844.307 623.546 845.625 629.433 845.366 637.699C845.107 646.012 843.459 656.75 851.936 683.312C834.887 677.543 825.656 669.843 817.909 660.47C810.161 651.051 803.968 639.936 799.564 629.01C795.09 618.154 792.5 607.557 791.558 597.172C790.569 586.881 791.252 576.826 791.252 567.077C791.252 557.328 790.569 547.767 789.58 538.466C788.638 529.164 787.413 520.027 787.296 510.419C787.178 500.741 788.167 490.568 790.522 482.82C791.888 478.346 793.748 474.626 797.398 471.47C797.28 471.47 797.092 471.352 796.974 471.352C783.222 466.266 768.904 462.734 754.398 460.732C747.946 459.861 741.517 459.296 734.995 459.131C727.059 458.754 719.076 458.942 711.069 459.507C696.563 460.614 682.128 463.11 668.046 466.949C653.729 470.858 639.788 476.062 626.389 482.467C603.452 493.323 582.188 507.523 563.161 524.289C548.043 537.641 534.267 552.524 522.304 568.725C515.546 577.792 509.353 587.211 503.772 597.007C487.712 625.171 476.503 656.067 470.992 688.022V688.14L470.945 688.163Z" fill="#D6C9BA"/>
<path d="M745.191 171.792C741.965 166.329 738.244 161.124 733.912 156.462C729.579 151.799 724.68 147.725 719.288 144.311C713.471 140.59 707.066 137.67 700.449 135.574C696.045 134.208 691.595 133.149 687.003 132.348C687.874 128.368 688.298 124.342 688.439 120.244C688.51 118.69 688.439 117.089 688.322 115.534C688.322 114.357 688.204 113.25 688.062 112.049C694.373 112.991 700.59 114.404 706.666 116.382C714.908 119.043 722.844 122.646 730.167 127.238C736.973 131.571 743.237 136.728 748.771 142.615C750.819 144.852 752.797 147.207 754.658 149.633C753.669 151.422 752.727 153.283 751.808 155.143C750.513 157.875 749.336 160.606 748.276 163.385C747.216 166.187 746.227 169.037 745.309 171.886C745.309 171.886 745.309 171.839 745.238 171.768L745.191 171.792Z" fill="#D6C9BA"/>
<path d="M500.264 169.861C501.677 172.899 504.173 174.689 507.635 175.136C511.12 175.63 513.946 174.382 516.065 171.604C518.232 168.684 518.538 165.717 516.936 162.537C515.453 159.57 512.957 157.757 509.566 157.145C505.916 156.58 503.113 157.757 501.065 160.795C499.016 163.762 498.78 166.753 500.264 169.861ZM479.376 171.038C479.376 168.613 480.318 166.564 482.108 164.775C484.345 162.538 487.077 161.548 490.232 161.855C487.76 160.065 486.135 157.639 485.334 154.719C484.534 151.752 485.146 149.068 487.265 146.642C489.314 144.217 491.857 143.675 494.707 145.017C497.627 146.313 499.722 148.314 501.159 150.975C500.547 148.738 500.358 146.383 500.594 143.911C500.853 141.438 502.195 139.743 504.621 138.895C507.093 138.024 509.26 138.4 511.261 139.954C513.192 141.509 514.228 143.487 514.299 145.983C515.476 144.005 517.148 142.498 519.385 141.579C521.552 140.708 523.648 141.014 525.579 142.568C526.685 143.44 527.368 144.429 527.698 145.535C527.957 146.477 527.886 147.396 527.627 148.455C527.062 150.81 525.955 152.788 524.331 154.343C526.803 153.542 529.299 153.471 531.819 154.154C534.362 154.837 536.034 156.509 536.835 159.123C537.588 161.737 537.023 163.974 534.975 165.764C532.997 167.553 530.83 168.872 528.475 169.673C530.948 170.473 532.808 172.098 533.938 174.453C534.621 175.89 534.81 177.302 534.433 178.739C534.244 179.61 533.821 180.529 533.185 181.4C531.584 183.637 529.535 184.508 526.921 184.014C524.378 183.519 522.094 182.577 519.974 181.282C520.728 183.566 520.845 185.992 520.28 188.606C519.715 191.149 518.161 192.774 515.618 193.386C513.145 194.069 510.979 193.386 509.236 191.526C507.446 189.595 506.622 187.358 506.811 184.814C506.245 187.24 504.832 188.982 502.525 189.901C500.17 190.843 497.933 190.702 495.766 189.524C493.529 188.347 492.352 186.557 492.116 184.131C491.928 181.706 492.422 179.469 493.6 177.373C491.057 179.233 488.207 179.799 485.052 178.998C481.826 178.244 479.965 176.266 479.471 172.969C479.353 172.287 479.353 171.674 479.353 171.038H479.376Z" fill="#D6C9BA"/>
<path d="M555.815 23.6954C567.825 42.7932 567.331 66.6243 559.724 87.2999C554.402 101.829 545.478 114.852 535.116 126.461L517.761 130.865C516.96 130.794 516.16 130.747 515.335 130.558C512.039 129.946 508.648 128.204 505.422 128.439C504.621 128.51 503.82 128.745 502.996 129.004C502.384 129.263 501.701 129.499 501.065 129.805C499.629 130.488 498.263 131.288 496.85 131.971C496.591 132.089 496.355 132.16 496.096 132.278C493.624 133.337 491.151 133.714 488.726 134.397C488.113 134.585 487.431 134.821 486.795 135.08L479.919 119.938C471.37 95.9186 465.413 84.4505 460.515 75.9495C456.794 69.4972 453.756 64.7875 451.401 60.6194C442.9 45.5484 444.219 37.848 448.434 32.5731C452.649 27.3689 459.785 24.5667 465.177 19.6686C470.57 14.7705 474.22 7.75303 480.366 5.28044C486.489 2.7372 495.107 4.71526 500.947 8.08269C519.362 -9.67288 543.829 4.66816 555.792 23.7189L555.815 23.6954Z" fill="#D6C9BA"/>
<path d="M547.172 162.655C547.855 159.311 547.102 155.52 545.077 152.718C543.028 149.986 539.684 148.385 537.894 145.7C537.518 145.135 537.211 144.523 536.905 143.911C536.481 142.804 536.105 141.626 535.657 140.425C535.398 139.743 535.163 139.06 534.904 138.447C534.597 137.764 534.291 137.082 533.844 136.469C532.737 134.868 531.042 133.62 529.205 132.678L528.828 132.49C528.263 132.231 527.721 132.066 527.156 131.877C526.473 131.618 525.79 131.453 525.108 131.312C522.564 130.818 520.209 131.006 517.737 130.818L535.092 126.414C547.62 118.408 554.19 111.531 559.771 102.395C565.281 93.2814 569.944 81.931 572.793 77.0094C583.155 59.5128 595.659 53.555 609.435 52.566C630.934 51.0118 655.495 61.6322 659.569 84.592C673.086 88.6188 679.468 101.594 680.268 115.794C680.834 126.532 678.102 138 672.78 146.878C660.37 167.341 633.737 173.747 608.681 175.984C586.498 177.962 565.611 176.737 544.417 172.569C544.229 172.499 543.993 172.499 543.805 172.451C543.805 172.263 543.805 172.145 543.876 172.028C544.37 168.872 546.537 165.999 547.219 162.655H547.172Z" fill="#D6C9BA"/>
<path d="M505.397 201.063C507.634 201.934 509.801 203.182 512.202 203.676C515.546 204.359 519.385 203.747 522.116 201.628C524.777 199.579 526.332 196.117 528.993 194.234C531.606 192.444 535.374 192.303 538.341 190.584C541.309 188.841 543.428 185.568 543.922 182.153V181.211C544.111 179.422 543.922 177.608 543.663 175.866C563.067 181.635 589.536 183.754 607.809 186.039C630.934 188.841 637.245 197.154 641.225 206.832C649.09 226.001 647.606 250.326 627.849 260.311C626.743 264.102 625.494 267.752 623.375 271.167C621.326 274.581 618.359 277.619 614.756 278.726C611.153 279.785 606.891 278.796 603.1 278.726C593.563 298.765 571.686 296.717 553.083 289.275C536.834 282.705 523.082 272.038 514.84 258.121C513.662 256.143 512.556 254.094 511.614 251.975C504.738 236.715 504.125 218.159 505.303 201.11L505.374 201.039L505.397 201.063Z" fill="#D6C9BA"/>
<path d="M477.563 186.792C480.106 188.912 482.461 190.631 484.816 192.986C487.241 195.27 489.643 198.19 492.752 199.32C494.188 199.815 495.719 199.932 497.344 199.932C499.204 200.003 501.064 199.932 502.807 200.309C496.802 214.203 497.862 231.511 499.51 241.189C501.559 253.034 500.499 255.154 499.251 257.202C495.483 263.725 490.703 269.542 485.499 275.005C480.224 280.468 474.643 285.437 468.073 289.393C461.503 293.302 454.014 296.152 446.809 295.586C439.626 295.021 432.797 291.112 425.544 288.875C418.362 286.638 410.732 286.073 404.28 282.8C397.781 279.503 392.435 273.427 394.413 265.115C387.655 265.185 379.342 263.678 374.938 258.78C370.535 253.953 370.158 245.758 370.347 238.246C370.535 230.734 371.336 223.858 373.008 217.146C374.75 210.388 377.34 203.747 380.684 197.295C383.84 191.149 387.631 185.191 409.885 183.637C416.831 183.142 439.767 177.797 451.848 173.535L469.015 172.428C469.085 174.783 469.698 177.137 470.805 179.257C471.064 179.751 471.37 180.199 471.676 180.623C471.935 181.046 472.241 181.494 472.547 181.871C473.984 183.731 475.773 185.356 477.492 186.769L477.563 186.792Z" fill="#D6C9BA"/>
<path d="M343.454 98.203C346.421 91.3739 354.804 86.3581 362.552 86.0519C357.348 60.0544 384.193 50.9411 406.446 53.296C428.7 55.6508 446.432 69.5444 459.43 86.6642C467.296 97.0255 473.442 108.564 479.941 119.915L486.817 135.056C483.709 136.234 480.742 138.353 478.693 141.085C476.644 143.887 475.585 147.278 474.972 150.504C474.36 153.73 474.101 156.768 473.065 159.806C471.958 162.844 470.027 165.881 469.344 169.225C469.156 170.167 469.085 171.086 469.085 172.027V172.451L451.918 173.558C445.419 174.053 438.849 174.547 432.326 174.806C424.39 175.183 416.525 175.23 408.519 174.806C400.583 174.241 392.529 173.064 385.159 170.591C377.788 168.048 371.147 164.139 364.035 159.806C356.9 155.402 349.341 150.551 346.186 144.24C342.96 137.859 344.137 129.97 343.525 121.775C343.336 119.161 342.96 116.571 342.653 113.886C341.9 108.305 341.476 102.842 343.454 98.2501V98.1794V98.203Z" fill="#D6C9BA"/>
<path d="M272.22 171.792C272.22 171.792 272.149 171.91 272.102 171.98C271.843 171.109 271.537 170.238 271.231 169.437C269.677 164.539 267.816 159.759 265.65 155.167C264.708 153.306 263.79 151.446 262.73 149.656C264.661 147.231 266.568 144.876 268.688 142.639C274.198 136.752 280.462 131.595 287.291 127.262C294.615 122.67 302.527 119.067 310.722 116.406C318.352 113.933 326.217 112.309 334.2 111.39C334.317 112.568 334.459 113.745 334.624 114.875C334.812 116.477 335 118.101 335.189 119.656C335.448 122.387 335.565 125.166 335.613 127.968C335.683 129.146 335.683 130.394 335.683 131.571C329.302 132.372 323.038 133.691 316.915 135.598C310.345 137.717 303.963 140.614 298.123 144.358C292.731 147.773 287.833 151.87 283.5 156.509C279.167 161.172 275.446 166.376 272.22 171.839V171.792Z" fill="#D6C9BA"/>
<path d="M77.9917 329.19C72.8346 324.975 68.8785 320.006 66.453 314.355C63.4859 307.526 59.2 302.439 51.7116 298.036C44.2703 293.75 33.6734 290.1 25.0547 290.1C40.0551 278.114 53.1245 275.759 62.3791 275.57C71.6101 275.382 77.0733 277.313 80.9117 278.42C84.7501 279.597 86.9167 279.903 90.8964 280.657C94.8525 281.34 100.575 282.329 116.305 276.748C116.305 276.748 116.423 276.677 116.494 276.677C122.875 274.44 127.538 273.38 134.532 273.027C141.479 272.65 150.827 273.027 160.388 274.204C163.12 274.581 165.898 275.005 169.124 275.641C167.688 276.63 166.275 277.69 164.909 278.796C162.107 281.034 159.517 283.506 156.903 286.002C155.655 287.18 154.43 288.357 153.111 289.417C151.18 290.9 149.132 292.148 146.918 293.137C144.139 294.433 141.149 295.375 138.111 296.175C133.778 297.235 129.445 297.965 125.042 298.53C122.569 298.836 120.026 299.142 117.53 299.331C115.104 299.448 112.702 299.59 110.206 299.59C108.087 299.59 105.92 299.519 103.824 299.331C102.27 299.213 100.669 299.025 99.1618 298.648C95.3941 297.706 91.6028 296.717 87.8115 295.798C88.2354 299.637 88.6828 303.546 89.1066 307.408C89.2244 308.774 89.4834 310.069 89.7189 311.435C89.8367 312.235 90.025 313.107 90.2841 313.907C90.4018 314.661 90.5902 315.391 90.8492 316.074C91.1553 317.369 91.6028 318.617 92.0266 319.794C92.4034 320.854 92.8273 321.843 93.2747 322.832C93.2747 323.02 93.3925 323.209 93.5338 323.327C93.7928 323.939 94.0283 324.575 94.3344 325.116C94.5228 325.493 94.7112 325.87 94.9467 326.223C96.0535 328.39 97.3722 330.509 98.7851 332.487C99.5858 333.664 100.457 334.842 101.446 335.972L103.872 338.774C103.872 338.774 104.131 339.081 104.295 339.198C106.65 341.742 109.194 344.049 111.925 346.216C113.715 347.652 115.575 349.018 117.435 350.243C120.285 352.221 123.252 353.963 126.36 355.635C118.048 355.211 113.833 353.963 110.442 352.409C103.259 349.254 99.5857 344.85 94.5699 340.87C89.4834 336.891 83.1018 333.429 77.9682 329.143L77.9917 329.19Z" fill="#D6C9BA"/>
<path d="M209.487 206.785C209.369 212.178 209.228 217.57 209.369 222.916C205.766 219.76 202.045 216.723 198.16 213.85C194.251 211.047 190.153 208.457 185.891 206.338C183.795 205.278 181.629 204.36 179.392 203.606C177.414 202.994 175.436 202.499 173.387 202.17C171.527 201.863 169.666 201.746 167.877 201.793C164.721 201.911 161.613 202.546 158.763 203.771C156.22 204.878 153.865 206.432 151.958 208.433C150.097 210.412 148.661 212.837 147.813 215.451C146.706 218.865 146.518 222.586 147.06 226.189C147.436 228.614 148.119 230.969 149.038 233.206C147.484 233.63 146.918 233.889 146.188 234.148C142.091 235.773 133.048 239.847 135.144 250.774C136.439 248.348 138.441 246.252 140.961 244.58C145.6 241.543 152.123 239.988 162.154 239.682C156.149 232.123 154.525 225.977 154.831 221.244C155.137 216.534 157.374 213.237 161.895 211.259C166.417 209.328 173.293 208.716 184.337 214.674C191.213 218.394 199.714 224.729 210.123 234.643C210.994 243.144 212.595 251.645 215.021 259.84C215.209 260.264 215.327 260.711 215.444 261.135C209.44 261.559 203.482 262.43 197.665 263.796C193.945 264.667 190.295 265.727 186.692 267.022C184.337 267.823 182.053 268.765 179.816 269.754C178.756 269.495 177.649 269.259 176.589 269C173.246 268.247 169.831 267.517 166.417 266.951C163.567 266.457 160.718 266.08 157.868 265.703C152.594 265.138 147.342 264.832 141.997 264.761C137.593 264.761 133.19 264.832 128.786 265.374C125.065 265.798 121.345 266.669 117.742 267.729L115.881 268.294C109.759 262.1 105.473 255.46 103 249.855C99.5388 242.226 99.2798 236.574 99.3504 231.299C99.4211 226.024 99.7272 221.244 99.0443 217.712C98.3614 214.179 96.6188 212.013 94.7584 208.834C92.9687 205.608 90.9672 201.51 91.4146 197.86C91.8384 194.139 94.7113 190.913 98.2201 188.747C101.705 186.51 105.897 185.403 110.677 184.084C115.505 182.718 120.85 181.235 125.984 179.375C131.141 177.585 136.015 175.395 141.408 174.406C146.801 173.417 152.617 173.652 158.646 174.712C164.65 175.819 170.726 177.75 178.356 181.659C185.915 185.638 194.957 191.526 204.023 200.757C205.813 202.617 207.626 204.548 209.487 206.714V206.785Z" fill="#D6C9BA"/>
<path d="M218.176 269.118C219.047 271.543 220.036 273.898 221.096 276.253C223.757 282.329 226.936 288.169 230.633 293.632C234.778 299.778 239.676 305.477 245.069 310.634C250.391 315.603 256.231 320.053 262.494 323.845C236.779 306.089 227.172 279.102 222.156 260.617C217.187 242.626 216.575 232.641 216.834 222.398C217.093 212.036 218.2 201.416 217.705 190.89C217.328 181.706 215.656 172.522 211.63 163.291C196.935 137.364 180.946 121.657 180.145 109.93C203.317 109.93 214.432 115.888 223.781 121.539C233.129 127.191 240.83 132.584 249.001 143.322C253.829 149.703 258.915 157.969 263.625 171.98C266.851 181.588 269.936 193.88 272.62 210.129C273.421 214.532 274.222 218.936 275.093 223.292C277.566 235.938 280.674 248.23 284.771 256.99C288.916 265.727 294.12 270.884 298.783 278.396C303.492 285.908 307.637 295.775 308.32 307.054C308.697 313.695 307.943 320.76 304.976 326.717C320.094 333.735 334.906 341.247 349.483 349.418C373.29 362.888 396.156 378.077 417.279 395.385C438.048 412.316 457.123 431.32 473.984 452.09C484.957 465.677 494.989 480.018 503.984 494.901C503.184 496.337 502.312 497.75 501.559 499.234C498.403 504.626 495.483 510.09 492.634 515.6C482.649 497.727 471.134 480.725 458.3 464.853C442.311 445.119 424.155 427.128 404.492 411.068C384.217 394.514 362.293 379.914 339.475 367.08C323.791 358.202 307.731 350.195 291.388 342.754C286.066 349.206 278.814 351.561 270.878 352.691C264.378 353.563 257.432 353.563 250.602 352.691C247.07 352.197 243.609 351.514 240.241 350.525C230.257 347.676 221.096 342.636 198.231 353.139C192.155 355.988 185.467 358.225 177.955 359.167C165.192 360.721 150.121 358.367 133.708 350.36C117.294 342.354 99.6095 328.648 97.2075 306.631C106.439 308.985 123.864 307.502 135.827 305.076C147.86 302.651 154.43 299.189 160.317 293.961C166.205 288.757 171.362 281.74 186.48 275.853C194.604 272.627 205.625 269.777 218.223 269.212V269.141L218.176 269.118Z" fill="#D6C9BA"/>
</svg>
