<?xml version="1.0" encoding="UTF-8"?>
<svg id="Layer_1" xmlns="http://www.w3.org/2000/svg" version="1.1" viewBox="0 0 512 512">
  <!-- Generator: Adobe Illustrator 29.7.1, SVG Export Plug-In . SVG Version: 2.1.1 Build 8)  -->
  <defs>
    <style>
      .st0 {
        fill: #231f20;
      }
    </style>
  </defs>
  <path class="st0" d="M207.86,292.41c.12-3.59,1.45-6.78,4.19-9.44,3.37-3.36,7.45-4.86,12.22-4.4-3.67-2.72-6.11-6.31-7.33-10.77-1.28-4.46-.29-8.51,2.85-12.1,3.14-3.65,6.92-4.46,11.29-2.43,4.36,1.97,7.62,4.98,9.72,8.98-.93-3.36-1.16-6.95-.76-10.66.35-3.71,2.39-6.2,6.05-7.53,3.72-1.27,7.04-.75,10.01,1.56,2.97,2.32,4.54,5.39,4.66,9.09,1.75-3.07,4.25-5.27,7.62-6.6,3.37-1.39,6.52-.93,9.43,1.45,1.69,1.33,2.68,2.78,3.14,4.46.35,1.33.35,2.78,0,4.4-.87,3.53-2.56,6.49-5,8.92,3.72-1.22,7.45-1.33,11.35-.35,3.84,1.04,6.34,3.53,7.56,7.47,1.16,3.94.23,7.3-2.79,10.02-3.03,2.72-6.34,4.69-9.89,5.91,3.84,1.22,6.58,3.59,8.26,7.12,1.05,2.2,1.28,4.34.81,6.43-.29,1.33-.93,2.72-1.92,4.05-2.44,3.42-5.59,4.69-9.43,3.94-3.9-.75-7.39-2.14-10.53-4.17,1.16,3.53,1.28,7.18.47,11.06-.87,3.82-3.2,6.25-7.04,7.24-3.78.93-7.04,0-9.72-2.9-2.68-2.84-3.9-6.2-3.67-10.08-.81,3.71-2.97,6.25-6.46,7.7-3.49,1.39-6.87,1.22-10.18-.52-3.38-1.8-5.18-4.52-5.53-8.17-.29-3.65.47-7.01,2.27-10.13-3.84,2.78-8.15,3.59-13.03,2.43-4.83-1.16-7.62-4.17-8.38-9.09-.17-.98-.23-1.97-.23-2.9ZM263.49,293.22c3.2-4.34,3.67-8.86,1.28-13.61-2.39-4.75-5.99-7.24-11.23-8.11-5.47-.87-9.72.93-12.86,5.5-3.03,4.4-3.43,8.98-1.22,13.61,2.21,4.57,5.94,7.24,11.17,7.93,5.35.7,9.6-1.04,12.86-5.33Z"/>
  <path class="st0" d="M305.66,309.09c.47-3.13,0-6.31-.29-9.38,29.33,8.63,69.42,11.87,97.12,15.23,34.97,4.29,44.57,16.79,50.57,31.33,11.93,28.78,9.6,65.5-20.31,80.5-1.69,5.68-3.55,11.24-6.69,16.33-3.14,5.1-7.62,9.73-13.09,11.35-5.47,1.62-11.93.17-17.63-.06-14.43,30.12-47.6,27.11-75.7,15.87-24.61-9.9-45.33-25.94-57.9-46.91-1.75-2.95-3.37-6.02-4.83-9.21-10.42-22.99-11.41-50.85-9.66-76.51,3.43,1.27,6.69,3.13,10.36,3.88,5.06,1.04,10.94.06,15.01-3.07,4.07-3.13,6.4-8.34,10.42-11.12,3.96-2.72,9.66-2.95,14.14-5.5,4.48-2.61,7.74-7.59,8.5-12.74Z"/>
  <path class="st0" d="M282.73,234.44c-.76-.35-1.51-.64-2.27-.87-1.11-.41-2.21-.7-3.32-.93-5.06-.93-9.89-.23-14.9-1.22-4.95-.93-10.07-3.59-14.95-3.19-.52,0-1.11.12-1.63.29-.58.12-1.11.23-1.69.46-.29.06-.58.17-.87.29-.99.35-1.92.81-2.91,1.33-1.98.93-3.9,2.03-5.88,2.95-.41.17-.76.35-1.16.52-3.67,1.51-7.45,2.08-11.17,3.13-.99.29-1.92.64-2.91.98-4.6,1.8-9.14,4.98-12.22,9.15-3.08,4.17-4.66,9.32-5.64,14.19-.99,4.81-1.28,9.38-2.91,13.96-1.63,4.52-4.6,9.15-5.59,14.19-.29,1.39-.41,2.78-.41,4.23,0,3.76.93,7.59,2.74,10.89.17.35.41.69.58,1.04,2.5,4.11,6.11,7.41,9.6,10.31,3.72,3.13,7.33,5.79,10.94,9.27,3.67,3.53,7.33,7.88,11.99,9.5,2.15.75,4.54.93,6.92.98,2.79.12,5.64.06,8.32.58-9.14,20.91-7.51,46.91-5,61.5,3.08,17.84,1.45,21.02-.35,24.09-5.7,9.78-13.03,18.65-20.89,26.81-7.91,8.17-16.41,15.75-26.36,21.66-9.95,5.91-21.3,10.19-32.18,9.38-10.88-.87-21.24-6.78-32.12-10.14-10.94-3.36-22.46-4.17-32.24-9.15-9.78-4.98-17.86-14.13-14.9-26.58-10.24,0-22.87-2.2-29.44-9.5-6.63-7.3-7.27-19.63-6.98-30.98.29-11.29,1.45-21.6,4.07-31.74,2.62-10.19,6.58-20.21,11.64-29.88,4.77-9.27,10.53-18.19,44.17-20.56,10.47-.7,45.27-8.75,63.49-15.17-9.83.75-19.73,1.45-29.62,1.91-11.99.52-23.92.64-36.02-.17-12.05-.81-24.21-2.55-35.38-6.37-11.11-3.76-21.24-9.61-32-16.22-10.77-6.54-22.23-13.9-27.06-23.46-3.03-5.96-3.43-12.86-3.55-20.21-.12-4.34,0-8.92-.41-13.55-.93-12.34-4.54-25.19-.06-35.39,4.48-10.25,17.05-17.78,28.8-18.3-7.86-39.15,32.76-52.88,66.45-49.28,33.69,3.53,60.52,24.44,80.19,50.27,11.93,15.58,21.24,32.95,31.07,49.98-12.98-36.14-21.94-53.4-29.33-66.14-5.59-9.73-10.3-16.79-13.85-23.05-12.86-22.7-10.82-34.28-4.42-42.22,6.34-7.88,17.11-12.1,25.25-19.52,8.15-7.36,13.73-17.9,22.99-21.66,9.31-3.76,22.34-.81,31.13,4.29,27.87-26.76,64.94-5.15,83.1,23.51,18.15,28.73,17.4,64.57,5.88,95.67-8.09,21.89-21.53,41.47-37.24,58.9,18.97-11.99,28.86-22.41,37.3-36.14,8.44-13.73,15.42-30.75,19.78-38.17,15.59-26.35,34.57-35.21,55.34-36.72,32.64-2.37,69.77,13.61,75.94,48.13,20.48,6.14,30.2,25.6,31.31,46.97.87,16.16-3.2,33.42-11.29,46.74-18.74,30.87-59.12,40.42-97.06,43.84-33.52,2.95-65.17,1.16-97.23-5.21-.35-.06-.64-.12-.99-.17.06-.17.06-.41.12-.58.76-4.81,4.02-9.09,5.12-14.13,1.05-4.98-.12-10.77-3.2-14.88-3.08-4.11-8.15-6.54-10.94-10.66-.35-.52-.64-1.04-.93-1.56-.58-1.1-1.05-2.32-1.45-3.53-.41-1.16-.81-2.43-1.28-3.65-.17-.58-.41-1.22-.7-1.8,0-.12-.06-.23-.12-.35-.47-1.04-.99-2.03-1.63-2.95-1.8-2.61-4.54-4.58-7.56-5.97Z"/>
</svg>