<?xml version="1.0" encoding="UTF-8"?>
<svg id="Layer_1" xmlns="http://www.w3.org/2000/svg" version="1.1" viewBox="0 0 1152 648">
  <!-- Generator: Adobe Illustrator 29.7.1, SVG Export Plug-In . SVG Version: 2.1.1 Build 8)  -->
  <defs>
    <style>
      .st0, .st1 {
        fill: #231f20;
      }

      .st1 {
        fill-rule: evenodd;
      }
    </style>
  </defs>
  <path class="st1" d="M520.84,371.96v2.91h-38.93s-14.25-24.72-21.4-37.2c-.85-1.44-1.66-2.89-2.48-4.33-1.1-1.95-1.96-3.25-4.04-4.07-1.14-.45-2.43-.55-3.15-.55h-11.54l4.54,4.72.06,30.8c0,4.52,3.67,7.72,8.23,7.72h2.64v2.91h-49.82v-2.91h2.64c4.55,0,8.23-3.2,8.23-7.72,0-8.81,0-17.61.01-26.41.01-17.6.03-35.19-.01-52.78,0-.19,0-.38-.06-.56h.06c0-4.55-3.67-8.44-8.23-8.44h-2.64v-2.91h38.96c.77.01,1.55,0,2.32,0,.66,0,1.32,0,1.98,0,7.27.18,12.14.55,18.24,1.31,7.53.94,15.13,2.79,21.03,7.47,5.87,4.71,10.08,12.17,9.95,19.23-.13,7.09-4.55,13.77-10.74,18.01-6.15,4.24-14.06,5.99-21.44,6.28h-5.21s1.14,1.05,2.34,1.8c1.45.91,2.54,1.49,4.36,1.49h17.12s13.74,23.68,28.17,40.82c1.57,1.85,3.85,2.41,6.3,2.41h2.51ZM467.07,301.27c0-8.57-5.27-17.6-23.26-17.6h-4.52l4.6,4.77v29.9c15.45,0,23.17-8.53,23.17-17.07Z"/>
  <path class="st1" d="M983.7,371.96v2.91h-38.93s-14.25-24.72-21.41-37.2c-.85-1.44-1.66-2.89-2.48-4.33-1.1-1.95-1.96-3.25-4.04-4.07-1.14-.45-2.43-.55-3.16-.55h-11.53l4.54,4.72.06,30.8c0,4.52,3.67,7.72,8.23,7.72h2.64v2.91h-49.82v-2.91h2.64c4.55,0,8.23-3.2,8.23-7.72,0-8.81,0-17.61.01-26.41.01-17.6.03-35.19-.01-52.78,0-.19,0-.38-.06-.56h.06c0-4.55-3.67-8.44-8.23-8.44h-2.64v-2.91h38.96c.77.01,1.55,0,2.32,0,.66,0,1.32,0,1.98,0,7.27.18,12.14.55,18.24,1.31,7.54.94,15.13,2.79,21.03,7.47,5.87,4.71,10.08,12.17,9.95,19.23-.12,7.09-4.55,13.77-10.73,18.01-6.15,4.24-14.06,5.99-21.44,6.28h-5.21s1.14,1.05,2.34,1.8c1.45.91,2.54,1.49,4.37,1.49h17.12s13.73,23.68,28.16,40.82c1.57,1.85,3.86,2.41,6.3,2.41h2.52ZM929.93,301.27c0-8.57-5.27-17.6-23.25-17.6h-4.52l4.6,4.77v29.9c15.44,0,23.17-8.53,23.17-17.07Z"/>
  <path class="st0" d="M541.91,374.87h-21.07v-2.91h1.51c1.57,0,3.01-.52,3.7-1.93,1.63-3.36,3.29-6.68,4.93-10.04,1.29-2.64,2.6-5.27,3.89-7.91,2.7-5.46,6.34-12.93,11.33-23.09,5.8-11.92,11.64-23.82,17.48-35.74-2.35-4.11-4.71-8.19-7.06-12.3l-1.63-2.79c-.72-1.29-2.07-2.11-3.55-2.11h-1.89v-2.91h35.37s33.85,59.45,42.38,74.48c4.74-9.63,9.61-19.95,14.32-29.58l12.06-24.25-8.75-15.57c-.72-1.29-2.02-2.14-3.49-2.14h-1.77v-2.95h36.15l55.22,97.01c.75,1.29,1.74,1.82,3.21,1.82h1.91v2.91h-43.14v-2.91h2.26c1.44,0,2.35-1.18,1.63-2.43l-36.91-64.88-34.4,70.22h-15.52l-40.1-70.66-25.7,52.49-6.34,12.93c-.63,1.25.26,2.34,1.64,2.34h2.34l.02,2.91Z"/>
  <path class="st0" d="M298.86,273.13v2.82h-1.72c-3.2,0-6.09,1.82-7.44,4.71l-46.16,94.2h-11.86l-53.9-94.67c-1.44-2.6-4.2-4.15-7.22-4.15h-1.42v-2.91h53.77v2.91h-1.09c-6.34,0-10,6.61-6.8,12.1l31.88,56.01,27.78-56.65c2.67-5.49-.47-11.54-6.55-11.54h-1.63v-2.82h32.33Z"/>
  <path class="st1" d="M867.8,324c0,28.09-31.31,50.87-69.94,50.87s-69.94-22.77-69.94-50.87,31.31-50.87,69.94-50.87,69.94,22.77,69.94,50.87ZM798.05,369.05c24.88,0,45.05-20.17,45.05-45.05s-20.17-45.05-45.05-45.05-45.05,20.17-45.05,45.05,20.17,45.05,45.05,45.05Z"/>
  <path class="st0" d="M160.39,317.82l-10.48,10.9h-28.69l10.48-10.9h28.69Z"/>
  <path class="st0" d="M117.73,273.13h32.49l10.17,10.54h-28.69l-2.75-2.91c-1.79-1.81-3.03-1.81-5.2-1.81h-10.79l4.57,4.72v85.38c3.81,0,6.35.18,9.08-2.54,2.72-2.72,5.45-5.63,5.45-5.63h35.81l-13.48,13.99h-82.61v-2.91s2.63,0,2.63,0c4.52,0,8.15-3.5,8.22-7.99v-79.98c-.06-4.52-3.7-7.95-8.22-7.95h-2.63v-2.91h45.94Z"/>
  <path class="st0" d="M396.18,317.82l-10.48,10.9h-28.69l10.48-10.9h28.69Z"/>
  <path class="st0" d="M353.52,273.13h32.49l10.17,10.54h-28.69l-2.75-2.91c-1.79-1.81-3.03-1.81-5.2-1.81h-10.79l4.57,4.72v85.38c3.81,0,6.35.18,9.08-2.54,2.72-2.72,5.45-5.63,5.45-5.63h35.81l-13.48,13.99h-82.61v-2.91h2.63c4.52,0,8.15-3.5,8.22-7.99v-79.98c-.06-4.52-3.7-7.95-8.22-7.95h-2.63v-2.91h45.94Z"/>
  <path class="st0" d="M1072.3,317.82l-10.48,10.9h-28.69l10.48-10.9h28.69Z"/>
  <path class="st0" d="M1029.64,273.13h32.5l10.16,10.54h-28.69l-2.75-2.91c-1.79-1.81-3.03-1.81-5.2-1.81h-10.78l4.57,4.72v85.38c3.81,0,6.35.18,9.07-2.54,2.73-2.72,5.45-5.63,5.45-5.63h35.81l-13.48,13.99h-82.61v-2.91h2.63c4.52,0,8.16-3.5,8.22-7.99v-79.98c-.07-4.52-3.7-7.95-8.22-7.95h-2.63v-2.91h45.94Z"/>
</svg>