<?xml version="1.0" encoding="UTF-8"?>
<svg id="Layer_1" xmlns="http://www.w3.org/2000/svg" version="1.1" viewBox="0 0 1152 648">
  <!-- Generator: Adobe Illustrator 29.7.1, SVG Export Plug-In . SVG Version: 2.1.1 Build 8)  -->
  <defs>
    <style>
      .st0, .st1 {
        fill: #231f20;
      }

      .st1 {
        fill-rule: evenodd;
      }
    </style>
  </defs>
  <g>
    <path class="st1" d="M520.84,501.25v2.91h-38.93s-14.25-24.72-21.4-37.2c-.85-1.44-1.66-2.89-2.48-4.33-1.1-1.95-1.96-3.25-4.04-4.07-1.14-.45-2.43-.55-3.15-.55h-11.54l4.54,4.72.06,30.8c0,4.52,3.67,7.72,8.23,7.72h2.64v2.91h-49.82v-2.91h2.64c4.55,0,8.23-3.2,8.23-7.72,0-8.81,0-17.61.01-26.41.01-17.6.03-35.19-.01-52.78,0-.19,0-.38-.06-.56h.06c0-4.55-3.67-8.44-8.23-8.44h-2.64v-2.91h38.96c.77.01,1.55,0,2.32,0,.66,0,1.32,0,1.98,0,7.27.18,12.14.55,18.24,1.31,7.53.94,15.13,2.79,21.03,7.47,5.87,4.71,10.08,12.17,9.95,19.23-.13,7.09-4.55,13.77-10.74,18.01-6.15,4.24-14.06,5.99-21.44,6.28h-5.21s1.14,1.05,2.34,1.8c1.45.91,2.54,1.49,4.36,1.49h17.12s13.74,23.68,28.17,40.82c1.57,1.85,3.85,2.41,6.3,2.41h2.51ZM467.07,430.56c0-8.57-5.27-17.6-23.26-17.6h-4.52l4.6,4.77v29.9c15.45,0,23.17-8.53,23.17-17.07Z"/>
    <path class="st1" d="M983.7,501.25v2.91h-38.93s-14.25-24.72-21.41-37.2c-.85-1.44-1.66-2.89-2.48-4.33-1.1-1.95-1.96-3.25-4.04-4.07-1.14-.45-2.43-.55-3.16-.55h-11.53l4.54,4.72.06,30.8c0,4.52,3.67,7.72,8.23,7.72h2.64v2.91h-49.82v-2.91h2.64c4.55,0,8.23-3.2,8.23-7.72,0-8.81,0-17.61.01-26.41.01-17.6.03-35.19-.01-52.78,0-.19,0-.38-.06-.56h.06c0-4.55-3.67-8.44-8.23-8.44h-2.64v-2.91h38.96c.77.01,1.55,0,2.32,0,.66,0,1.32,0,1.98,0,7.27.18,12.14.55,18.24,1.31,7.54.94,15.13,2.79,21.03,7.47,5.87,4.71,10.08,12.17,9.95,19.23-.12,7.09-4.55,13.77-10.73,18.01-6.15,4.24-14.06,5.99-21.44,6.28h-5.21s1.14,1.05,2.34,1.8c1.45.91,2.54,1.49,4.37,1.49h17.12s13.73,23.68,28.16,40.82c1.57,1.85,3.86,2.41,6.3,2.41h2.52ZM929.93,430.56c0-8.57-5.27-17.6-23.25-17.6h-4.52l4.6,4.77v29.9c15.44,0,23.17-8.53,23.17-17.07Z"/>
    <path class="st0" d="M541.91,504.15h-21.07v-2.91h1.51c1.57,0,3.01-.52,3.7-1.93,1.63-3.36,3.29-6.68,4.93-10.04,1.29-2.64,2.6-5.27,3.89-7.91,2.7-5.46,6.34-12.93,11.33-23.09,5.8-11.92,11.64-23.82,17.48-35.74-2.35-4.11-4.71-8.19-7.06-12.3l-1.63-2.79c-.72-1.29-2.07-2.11-3.55-2.11h-1.89v-2.91h35.37s33.85,59.45,42.38,74.48c4.74-9.63,9.61-19.95,14.32-29.58l12.06-24.25-8.75-15.57c-.72-1.29-2.02-2.14-3.49-2.14h-1.77v-2.95h36.15l55.22,97.01c.75,1.29,1.74,1.82,3.21,1.82h1.91v2.91h-43.14v-2.91h2.26c1.44,0,2.35-1.18,1.63-2.43l-36.91-64.88-34.4,70.22h-15.52l-40.1-70.66-25.7,52.49-6.34,12.93c-.63,1.25.26,2.34,1.64,2.34h2.34l.02,2.91Z"/>
    <path class="st0" d="M298.86,402.42v2.82h-1.72c-3.2,0-6.09,1.82-7.44,4.71l-46.16,94.2h-11.86l-53.9-94.67c-1.44-2.6-4.2-4.15-7.22-4.15h-1.42v-2.91h53.77v2.91h-1.09c-6.34,0-10,6.61-6.8,12.1l31.88,56.01,27.78-56.65c2.67-5.49-.47-11.54-6.55-11.54h-1.63v-2.82h32.33Z"/>
    <path class="st1" d="M867.8,453.29c0,28.09-31.31,50.87-69.94,50.87s-69.94-22.77-69.94-50.87,31.31-50.87,69.94-50.87,69.94,22.77,69.94,50.87ZM798.05,498.34c24.88,0,45.05-20.17,45.05-45.05s-20.17-45.05-45.05-45.05-45.05,20.17-45.05,45.05,20.17,45.05,45.05,45.05Z"/>
    <path class="st0" d="M160.39,447.11l-10.48,10.9h-28.69l10.48-10.9h28.69Z"/>
    <path class="st0" d="M117.73,402.42h32.49l10.17,10.54h-28.69l-2.75-2.91c-1.79-1.81-3.03-1.81-5.2-1.81h-10.79l4.57,4.72v85.38c3.81,0,6.35.18,9.08-2.54,2.72-2.72,5.45-5.63,5.45-5.63h35.81l-13.48,13.99h-82.61v-2.91s2.63,0,2.63,0c4.52,0,8.15-3.5,8.22-7.99v-79.98c-.06-4.52-3.7-7.95-8.22-7.95h-2.63v-2.91h45.94Z"/>
    <path class="st0" d="M396.18,447.11l-10.48,10.9h-28.69l10.48-10.9h28.69Z"/>
    <path class="st0" d="M353.52,402.42h32.49l10.17,10.54h-28.69l-2.75-2.91c-1.79-1.81-3.03-1.81-5.2-1.81h-10.79l4.57,4.72v85.38c3.81,0,6.35.18,9.08-2.54,2.72-2.72,5.45-5.63,5.45-5.63h35.81l-13.48,13.99h-82.61v-2.91h2.63c4.52,0,8.15-3.5,8.22-7.99v-79.98c-.06-4.52-3.7-7.95-8.22-7.95h-2.63v-2.91h45.94Z"/>
    <path class="st0" d="M1072.3,447.11l-10.48,10.9h-28.69l10.48-10.9h28.69Z"/>
    <path class="st0" d="M1029.64,402.42h32.5l10.16,10.54h-28.69l-2.75-2.91c-1.79-1.81-3.03-1.81-5.2-1.81h-10.78l4.57,4.72v85.38c3.81,0,6.35.18,9.07-2.54,2.73-2.72,5.45-5.63,5.45-5.63h35.81l-13.48,13.99h-82.61v-2.91h2.63c4.52,0,8.16-3.5,8.22-7.99v-79.98c-.07-4.52-3.7-7.95-8.22-7.95h-2.63v-2.91h45.94Z"/>
  </g>
  <g>
    <path class="st0" d="M531.4,320.72c-3.3,4.72-7.84,8.53-13.59,11.42l-.72-1.48c4.41-2.43,7.57-5.6,9.49-9.51,1.23-2.83,1.57-5.83,1.03-9.03-.63-3.69-.45-7.34.52-11,.98-3.64,2.65-6.92,5.02-9.82,2.38-2.92,5.57-4.39,9.58-4.44-2.01,2.92-2.88,6.11-2.59,9.58.28,3.47-.02,6.85-.93,10.14-.89,3.29-2.34,6.32-4.36,9.09-1.24,1.72-2.39,3.4-3.44,5.05ZM532.11,311.93c2.28-6.53,3.43-11.05,3.44-13.55-1.09,1.86-2.25,6.38-3.44,13.55Z"/>
    <path class="st0" d="M488.62,301.6c.06-.85.22-1.67.5-2.48.27-.8.63-1.56,1.08-2.27.45-.73.92-1.42,1.43-2.09.5-.69.99-1.37,1.5-2.04.77.54,1.6,1,2.47,1.39.86.39,1.74.76,2.63,1.11.88.34,1.67.86,2.34,1.56.05.05.1.1.14.16-.66,1.14-1.25,2.32-1.73,3.57-.3-.4-.64-.75-1.02-1.06-.48-.41-1.01-.71-1.58-.93-.57-.21-1.17-.31-1.79-.31s-1.2.24-1.72.71c-.42.39-.72.87-.91,1.43.28-.62.82-.9,1.64-.81,1.12.1,2.12.5,2.97,1.17.75.6,1.32,1.32,1.72,2.17-.02.17-.05.35-.06.53-1.63-.5-3.3-.73-4.99-.69-.46.01-.92.01-1.38-.02-1.11-.08-2.2-.3-3.28-.65,0-.13.01-.28.02-.42Z"/>
    <path class="st0" d="M575.78,238.84c-.63-1.03-1.28-2.03-1.97-3.02v-26.15c0-2.93,0-8.11-.92-11.03.07-.08.14-.16.22-.23.68-.75,1.33-1.54,1.9-2.38.14-.21.29-.41.42-.63.23.38.48.75.75,1.1.69.93,1.5,1.77,2.38,2.52-.8,2.99-.8,7.85-.8,10.66v26.15c-.04.06-.07.11-.11.17-.65.93-1.27,1.89-1.87,2.86Z"/>
    <path class="st0" d="M526.32,214.3c.63.04,1.26.05,1.89.02.24.94.5,1.89.76,2.82,1.05,3.64,2.37,7.21,3.86,10.7-1.38,0-2.77.08-4.13.23h-.04c-1.33-3.22-2.5-6.51-3.46-9.85-.41-1.4-.77-2.81-1.11-4.23l.14.04c.35.07.71.12,1.06.17.34.05.69.08,1.03.11Z"/>
    <path class="st0" d="M495.09,262.4c1.49,3.41,3.71,4.2,6.67,2.36,2.98-1.84,4.88-4.84,5.7-8.97.22.76.45,1.52.68,2.27.19.67.4,1.33.57,2,.12.51.22,1.02.28,1.52.08.82.06,1.66-.05,2.48-.06.45-.13.88-.19,1.33-.04.24-.06.48-.08.73-.3.33-.59.64-.88.92-2.12,2.08-3.97,3.15-6.06,3.87-2.08.71-4.39,1.11-8.01.33-.13-3.01.28-5.96,1.38-8.84Z"/>
    <path class="st0" d="M491.55,250.61c1.75.29,3.53.52,5.29.69.77.07,1.54.14,2.3.19,1.21.08,2.43.15,3.65.13,1.11,0,2.24-.05,3.34-.28.08-.02.17-.04.25-.06.08.67.22,1.33.37,1.98.18.74.4,1.45.6,2.18.04.11.07.22.11.34-2.03,3.9-3.4,5.37-4.63,6.38-1.69,1.39-3.13,1.89-4.12,1.89s-1.55-.52-1.87-1.23c-.31-.71-.41-1.64.21-2.78-3.35,1.55-4.8.98-5.48.06-1.1-1.49-.22-3.88,1.44-6.24-1.68,1.38-2.73,2.77-3.15,4.17-.69,2.29.41,3.82,3.3,4.6-.48.14-.95.25-1.44.35-2.42.51-5.37.82-8.49-.24-.59-2.65-.54-4.65.07-6.93.42-1.58,1.11-3.31,3.59-5.96.53.07,1.06.16,1.58.24,1.03.17,2.04.36,3.07.53Z"/>
    <path class="st0" d="M567.8,243.15c1.28,1.14,2.53,2.32,3.71,3.57-.62,1.29-1.2,2.61-1.74,3.94-1.44-1.61-2.97-3.12-4.59-4.55-3.71-3.27-7.87-6.04-12.33-8.15-2.61-1.25-5.33-2.26-8.12-3.02-2.74-.75-5.56-1.23-8.39-1.45-1.56-.11-3.12-.14-4.67-.07-1.27.04-2.53.14-3.78.31-2.84.39-5.63,1.08-8.31,2.07-.02,0-.05.01-.07.02.71.62,1.06,1.34,1.33,2.21.47,1.51.67,3.5.64,5.38-.02,1.88-.27,3.65-.45,5.47-.19,1.81-.33,3.67-.33,5.58s.13,3.86-.06,5.87c-.19,2.02-.7,4.09-1.56,6.21-.86,2.13-2.07,4.29-3.58,6.13-1.51,1.83-3.31,3.33-6.64,4.45,1.66-5.18,1.32-7.27,1.28-8.89-.05-1.61.21-2.76.35-3.94.16-1.19.19-2.41-.12-3.98-.31-1.56-1-3.48-1.79-6.29-.27-.97-.56-2.03-.69-3.19.33-.12.6-.24.82-.34.3-.16.48-.28.68-.41,1.77-1.26,4.03-3.33,5.97-7.72-6.05,6.46-7.55,7.68-12.59,7.71-2.8.01-6.72-.36-9.84-.82-3.12-.47-5.44-1.05-7.99-1.14-2.55-.1-5.34.31-8.35,2.52,1.38-4.89,3.35-6.91,5.56-8.74,2.2-1.82,4.63-3.44,7.29-4.31,2.67-.87,5.57-.99,8.03-1.04,2.45-.06,4.46-.05,5.97-.39,1.51-.34,2.53-1.02,3.89-1.83,1.35-.81,3.07-1.73,4.69-1.95,1.14-.17,2.24.02,3.48.82.89-.4,1.8-.76,2.71-1.1,2.96-1.09,6.03-1.85,9.15-2.27.48-.07.98-.12,1.47-.17,2.59-.27,5.2-.29,7.78-.1,3.09.22,6.15.76,9.14,1.57,3.02.82,5.96,1.92,8.79,3.27,4.8,2.27,9.26,5.25,13.26,8.76Z"/>
    <path class="st0" d="M516.88,332.6c.69.35,1.39.69,2.1.99,2.82,1.2,5.81,2,8.86,2.2,1.37.08,2.73.06,4.09-.08,1.52-.17,3.05-.5,4.51-.97,2.43-.77,4.74-1.96,6.84-3.42,2.09-1.46,3.99-3.21,5.66-5.13,1.64-1.91,3.07-3.99,4.25-6.21,1.15-2.15,2.07-4.44,2.76-6.79.69-2.35,1.15-4.75,1.4-7.19.27-2.48.33-4.97.22-7.46-.12-2.54-.4-5.07-.83-7.59-.42-2.54-.99-5.05-1.68-7.52-1-3.59-2.25-7.1-3.67-10.54-1.93-4.69-4.19-9.23-6.59-13.71-2.38-4.45-4.88-8.84-7.32-13.27-1.98-3.61-3.93-7.23-5.72-10.94,1.49-.06,2.96-.02,4.44.07,1.51,3.02,3.12,5.99,4.75,8.95,2.45,4.44,4.97,8.84,7.36,13.32,2.44,4.59,4.76,9.26,6.74,14.06,1.47,3.58,2.77,7.25,3.81,10.99,1.35,4.88,2.28,9.86,2.6,14.91.02.36.05.73.06,1.09.11,2.7.05,5.4-.23,8.07-.29,2.67-.8,5.31-1.55,7.89-.76,2.6-1.79,5.13-3.06,7.53-1.33,2.48-2.92,4.82-4.76,6.93-1.89,2.19-4.03,4.16-6.39,5.81-2.42,1.68-5.08,3.04-7.88,3.92-1.72.56-3.49.93-5.28,1.12-1.58.17-3.18.21-4.76.1-1.68-.11-3.35-.37-4.99-.77-1.68-.41-3.32-.96-4.92-1.63,1.03.84,2.1,1.6,3.23,2.3,2.16,1.35,4.47,2.47,6.89,3.31,2.39.85,4.88,1.43,7.41,1.77,3.63.48,7.31.46,10.94-.04,5.12-.7,10.1-2.33,14.64-4.8,2.26-1.22,4.4-2.66,6.38-4.29,1.98-1.65,3.81-3.48,5.4-5.49,1.39-1.72,2.61-3.57,3.69-5.49,1.56-2.73,2.82-5.64,3.84-8.63,1.9-5.5,2.99-11.25,3.49-17.05.54-6.09.45-12.22-.16-18.29-.08-.81-.17-1.63-.27-2.44-1.05-6.28-3.25-12.35-6.41-17.88-.02-.04-.04-.06-.06-.1.93-1.55,1.92-3.05,3-4.5.52-.69,1.04-1.37,1.58-2.02,1,2.66,1.89,5.37,2.65,8.12,1.69,6.03,2.83,12.21,3.44,18.44.56,5.6.69,11.26.33,16.9-.05.7-.11,1.42-.17,2.13-.54,6.12-1.68,12.2-3.69,18.02-1.66,4.8-3.9,9.42-6.88,13.55-.42.58-.86,1.16-1.32,1.73-1.77,2.2-3.77,4.25-5.96,6.05-2.18,1.82-4.53,3.39-7.01,4.74-4.94,2.7-10.41,4.48-15.99,5.24-15.18,2.07-31.37-3.38-40.84-18.72-4.05.38-7.37-3.16-6.73-7.17-1.5-1.06-3.05-2.02-4.64-2.88-1.62-.86-2.98-2.02-4.1-3.5-1.12-1.46-2.28-2.89-3.48-4.26-1.21-1.38-2.15-2.93-2.83-4.67-.69-1.74-1.75-3.21-3.21-4.39,2.08-.74,4.15-.69,6.18.13,2.03.82,4.12,1.21,6.27,1.15,2.14-.06,4.23.38,6.27,1.28.4.18.77.39,1.12.62,1.44.91,2.48,2.18,3.11,3.84.8,2.07,1.22,4.16,1.29,6.32.04.98.04,1.96.02,2.94.52-1.41.88-2.88,1.09-4.4.19-1.51.02-2.99-.51-4.44-.53-1.44-1.29-2.75-2.27-3.92-.99-1.17-2.2-2.03-3.65-2.58.02-.79.18-1.57.48-2.37.73-1.94,1.66-3.74,2.79-5.41,1.14-1.66,1.78-3.52,1.91-5.58,1.56,1.32,2.6,2.95,3.11,4.89.52,1.95.6,3.91.24,5.88-.37,1.98-.23,3.93.41,5.84s.81,3.85.51,5.82c-.27,1.8-.46,3.62-.56,5.44,3.28,2.14,3.77,6.7,1.08,9.53,1.43,1.12,2.91,2.18,4.46,3.12.3.19.6.37.92.56.68-.31,1.33-.64,1.96-.99l.72,1.48c-.3.16-.62.31-.93.46Z"/>
    <path class="st0" d="M644.82,253.27c.16-.65.29-1.32.37-1.98.08.02.17.04.25.06,1.09.23,2.21.28,3.34.28,1.22.01,2.44-.05,3.65-.13.76-.05,1.52-.12,2.28-.19,1.78-.17,3.54-.4,5.31-.69,1.03-.17,2.04-.36,3.06-.53.53-.08,1.06-.17,1.6-.24,2.48,2.65,3.17,4.38,3.59,5.96.62,2.29.66,4.28.07,6.93-3.12,1.06-6.08.75-8.48.24-.5-.1-.96-.21-1.44-.35,2.89-.77,3.99-2.31,3.3-4.6-.42-1.4-1.47-2.8-3.15-4.17,1.64,2.36,2.54,4.76,1.44,6.24-.68.92-2.14,1.49-5.48-.06.6,1.14.52,2.07.21,2.78-.33.71-.88,1.23-1.87,1.23s-2.43-.5-4.12-1.89c-1.23-1-2.6-2.48-4.63-6.38.04-.12.07-.23.1-.34.22-.73.43-1.44.62-2.18Z"/>
    <path class="st0" d="M642.58,261.59c.05-.51.16-1.02.28-1.52.17-.67.37-1.33.57-2,.23-.75.46-1.51.68-2.27.82,4.13,2.72,7.13,5.7,8.97,2.96,1.84,5.2,1.04,6.67-2.37,1.1,2.89,1.5,5.83,1.37,8.86-3.63.79-5.92.39-8.01-.33-2.08-.73-3.93-1.79-6.04-3.87-.29-.28-.58-.59-.88-.92-.02-.24-.05-.48-.08-.73-.06-.45-.14-.88-.19-1.33-.11-.82-.14-1.66-.05-2.48Z"/>
    <path class="st0" d="M653.61,299.43c-.37.31-.71.67-1.02,1.06-.5-1.25-1.06-2.43-1.73-3.57.05-.06.1-.11.14-.16.68-.7,1.45-1.22,2.34-1.56.89-.35,1.76-.73,2.63-1.11.87-.39,1.69-.85,2.47-1.39.5.68,1,1.35,1.5,2.04.5.68.98,1.37,1.43,2.09.45.71.81,1.48,1.08,2.27.27.81.43,1.63.5,2.48.01.14.01.29.02.42-1.08.35-2.18.57-3.27.65-.46.04-.92.04-1.38.02-1.7-.04-3.36.19-4.99.69-.01-.18-.04-.36-.06-.53.39-.85.97-1.56,1.72-2.17.86-.68,1.85-1.08,2.97-1.17.81-.08,1.37.19,1.63.81-.17-.56-.47-1.04-.91-1.43-.51-.47-1.08-.71-1.7-.71s-1.22.11-1.79.31c-.58.22-1.1.52-1.58.93Z"/>
    <path class="st0" d="M600.44,296.02c2.08-.87,4.24-2.59,6.48-5.13-2.77,1.74-4.93,3.46-6.48,5.13ZM606.78,296.36c-2.5.73-5.4,1.21-8.61,2.82-1.15.58-2.04,1.4-2.86,2.3l-1.35-.85c.07-.08.14-.16.22-.24.63-.7,1.29-1.37,1.87-2.52,2.2-4.34,5.4-7.6,8.61-10.03,3.46-2.63,6.94-4.26,9.38-5.52,2.45-1.25,3.89-2.11,5.73-5.35-1.08,9.41-3.06,12.72-5.27,14.99-2.22,2.27-4.67,3.52-7.71,4.39Z"/>
    <path class="st0" d="M642.9,318.45c-.11-1.83-.29-3.64-.57-5.44-.29-1.97-.12-3.91.52-5.82.64-1.91.77-3.86.41-5.84-.36-1.97-.29-3.93.23-5.88.52-1.94,1.56-3.57,3.12-4.89.13,2.06.77,3.92,1.91,5.58,1.14,1.67,2.07,3.47,2.79,5.41.3.8.46,1.59.48,2.37-1.45.55-2.66,1.4-3.65,2.58-.98,1.17-1.74,2.48-2.27,3.92-.53,1.45-.7,2.93-.51,4.44.19,1.52.56,2.99,1.09,4.4-.02-.98-.01-1.96.02-2.94.07-2.15.5-4.25,1.28-6.32.63-1.66,1.67-2.94,3.12-3.84.35-.24.72-.44,1.12-.62,2.04-.91,4.13-1.34,6.27-1.28,2.15.06,4.24-.33,6.27-1.15,2.03-.82,4.1-.87,6.18-.13-1.46,1.19-2.54,2.65-3.21,4.39-.68,1.74-1.62,3.29-2.83,4.67-1.2,1.37-2.36,2.79-3.48,4.26-1.12,1.48-2.49,2.64-4.1,3.5-1.61.86-3.14,1.81-4.64,2.88.64,4.02-2.68,7.55-6.73,7.17-9.48,15.34-25.67,20.79-40.84,18.72-5.6-.76-11.05-2.54-16-5.24-2.47-1.35-4.82-2.93-7-4.74-1.82-1.51-3.53-3.18-5.06-4.97.5-.63.98-1.26,1.44-1.91.33-.45.65-.91.96-1.38,1.56,1.9,3.3,3.65,5.18,5.23,1.98,1.63,4.13,3.07,6.39,4.29,4.53,2.47,9.51,4.1,14.62,4.8,3.63.5,7.32.52,10.95.04,2.53-.34,5.02-.92,7.41-1.77,2.41-.85,4.73-1.96,6.89-3.31,1.12-.7,2.2-1.46,3.23-2.3-1.6.68-3.24,1.22-4.93,1.63-1.63.4-3.3.67-4.98.77-1.58.11-3.19.07-4.76-.1-1.8-.19-3.57-.57-5.28-1.12-2.8-.88-5.46-2.24-7.88-3.92-2.37-1.65-4.51-3.62-6.41-5.81-1.83-2.12-3.43-4.45-4.75-6.93-1.28-2.4-2.3-4.92-3.06-7.53-.76-2.58-1.27-5.21-1.55-7.89-.29-2.67-.35-5.37-.23-8.07.01-.36.04-.73.06-1.09.31-5.05,1.23-10.03,2.6-14.91,1.04-3.74,2.33-7.4,3.81-10.99,1.98-4.8,4.3-9.47,6.74-14.06,2.39-4.48,4.91-8.88,7.36-13.32,1.63-2.96,3.24-5.93,4.75-8.95,1.47-.1,2.95-.13,4.44-.07-1.8,3.7-3.73,7.33-5.73,10.94-2.43,4.43-4.94,8.82-7.32,13.27-2.38,4.48-4.64,9.01-6.59,13.71-1.41,3.44-2.66,6.94-3.66,10.54-.69,2.48-1.26,4.98-1.69,7.52-.42,2.52-.71,5.05-.82,7.59-.02.69-.05,1.38-.05,2.08l1.35.85c-.45.5-.88,1-1.32,1.52.05,1,.12,2.01.23,3.01.25,2.43.71,4.84,1.4,7.19.69,2.35,1.61,4.63,2.76,6.79,1.18,2.21,2.61,4.3,4.25,6.21,1.67,1.92,3.56,3.67,5.66,5.13,2.1,1.46,4.4,2.65,6.84,3.42,1.46.47,2.97.8,4.51.97,1.35.15,2.72.17,4.07.08,3.06-.21,6.05-1,8.87-2.2.71-.3,1.41-.64,2.1-.99.91-.46,1.8-.96,2.67-1.5,1.55-.94,3.02-2,4.45-3.12-2.68-2.83-2.19-7.39,1.09-9.53Z"/>
    <path class="st0" d="M627.48,213.99c-.33,1.43-.69,2.83-1.1,4.23-.97,3.34-2.14,6.63-3.46,9.85h-.04c-1.38-.15-2.76-.22-4.13-.23,1.49-3.48,2.8-7.05,3.86-10.7.27-.93.52-1.88.76-2.82.63.02,1.26,0,1.89-.02.34-.02.69-.06,1.03-.11.35-.05.71-.1,1.06-.17.04-.01.08-.02.13-.04Z"/>
    <path class="st0" d="M645.13,200.29c-.25-.21-.5-.44-.74-.67-.51-.48-1.02-.97-1.56-1.4-.27-.22-.54-.42-.82-.62.63-.12,1.16-.21,1.7-.28,1.86-.24,3.67-.3,5.04-.23,1.37.07,2.27.28,3.51.71.02,0,.04.01.05.01,3.07,1.09,4.18.9,4.96.76.76-.15,1.2-.21,1.95-.44.75-.22,1.81-.59,3.61-.56,1.8.04,4.34.5,7.28,2.83-1.68,0-3.75.71-5.21,1.55-1.46.86-2.28,1.85-2.86,3.18-.47,1.1-1.25,2.07-2.25,2.89-1,.83-2.26,1.51-3.24,2.29-.98.77-1.7,1.63-3.09,2.25-.66.3-1.5.54-3.11.63,1.4-.76,2.73-1.67,3.88-2.78.14-.13.29-.28.42-.42.71-.76,1.34-1.61,1.82-2.53.05-.07.08-.15.12-.22.04-.08.08-.17.11-.25l.07-.15c.07-.15.13-.31.19-.47.11-.25.19-.52.27-.79,0-.01,0-.04.02-.06.07-.25.13-.51.18-.76.02-.04.02-.07.02-.11.01-.02.02-.06.02-.08.05-.27.1-.52.12-.79.08-.75.17-1.51.24-2.26-.73.18-1.46.38-2.2.56-.3.07-.6.11-.91.13-.42.04-.83.05-1.26.05-.47,0-.94-.02-1.41-.05-.5-.04-.98-.1-1.46-.16-.86-.11-1.72-.25-2.55-.46-.59-.16-1.17-.34-1.73-.59-.42-.19-.82-.44-1.2-.73Z"/>
    <path class="st0" d="M641.18,183.28c-.4.06-.79.16-1.17.28-.44.15-.86.33-1.27.53-.85.41-1.63.92-2.39,1.46-.76.56-1.49,1.15-2.2,1.77.04-1.04.01-2.09-.01-3.15.35-.42.7-.8,1.05-1.16,1.78-1.8,3.54-2.95,5.02-3.73,1.47-.76,2.67-1.14,3.84-1.36,1.16-.21,2.31-.25,3.36-.06,1.04.19,2.01.62,3.01.97.99.36,2.04.65,2.97.92.94.25,1.75.47,2.44.91.69.42,1.23,1.05,1.32,1.78.08.71-.29,1.51-.65,2.14-.35.62-.69,1.04-.82,1.73-.14.69-.07,1.62-.06,2.65,0,1.03-.04,2.13-.71,3.62-.5,1.09-1.33,2.38-2.51,3.59l-.36-.11c-.7-.21-1.43-.38-2.15-.46-.86-.11-1.72-.13-2.59-.12-1.03.01-2.05.07-3.08.18-.56.07-1.12.15-1.67.24-.66.11-1.33.25-1.98.4-.22.05-.42.1-.63.15-.45-.19-.89-.38-1.34-.53-.7-.25-1.41-.46-2.14-.63-1.14-.27-2.3-.44-3.47-.52l.07-.25c.47-1.6.8-3.25.97-4.91,2.03-1.94,3.69-3.17,5.03-3.9,2.14-1.16,3.48-1.04,4.38-.67.88.39,1.31,1.03,1.37,1.95.06.92-.24,2.12-1.43,3.59,1.96.06,3.24.36,4.15.96.5.33.88.74,1.14,1.21.41-2.13-1.37-2.93-2.15-3.24-.14-.05-.25-.1-.56-.18.18-.44.31-.9.39-1.37.1-.7.07-1.43-.14-2.09-.17-.51-.45-.98-.81-1.37-.37-.39-.83-.69-1.33-.91-.56-.24-1.16-.36-1.78-.39-.36-.01-.72.01-1.07.07Z"/>
    <path class="st0" d="M568.42,278.05c-.11.86-.19,1.71-.28,2.57-.6,6.07-.7,12.21-.17,18.29.52,5.8,1.61,11.54,3.49,17.05.93,2.71,2.06,5.35,3.42,7.86-.5.86-1.01,1.72-1.56,2.54-.28.41-.56.82-.85,1.22-1.95-3.24-3.52-6.73-4.75-10.31-2.01-5.82-3.14-11.89-3.69-18.02-.06-.71-.12-1.43-.17-2.13-.36-5.64-.23-11.3.33-16.9.62-6.23,1.75-12.41,3.43-18.44,1.38-4.94,3.12-9.76,5.29-14.38.3-.63.6-1.26.92-1.88.6-1.2,1.24-2.38,1.91-3.55.99-1.75,2.07-3.46,3.2-5.12,1.12-1.67,2.33-3.29,3.6-4.85,3.29-4.05,7.01-7.75,11.05-11.06,4.13-3.38,8.59-6.34,13.23-8.97,2.83-1.6,5.73-3.06,8.68-4.43-.58-1.16-.73-2.54-.65-3.84.13-2.2.94-4.13,1.85-5.59.92-1.46,1.93-2.47,2.74-4.17.8-1.71,1.39-4.1,1.89-6.57.17-.85.33-1.71.48-2.57.81-4.86,1.78-7.92,2.78-10.04.6-1.27,1.22-2.2,1.83-2.99,1.6-2.09,3.08-3.15,4.92-4.25,1.83-1.1,3.99-2.26,8.51-2.26-.16,2.29-3.27,5.35-6.14,10.41-.79,1.8-1.11,3.59-1.2,5.38-.1,2.06.13,4.13.18,6.15.05,2-.07,3.94-1.04,7.45-.99,3.61-2.85,8.87-7.87,12.33,1.21-.74,2.36-1.61,3.4-2.58,1.05-1,1.99-2.12,2.82-3.32.71-1.06,1.33-2.2,1.86-3.39.21-.46.4-.92.57-1.39,2.44.11,4.6.67,6.19,1.29,2.95,1.15,3.95,2.52,5.1,3.53,1.14,1.02,2.43,1.69,4.77,2.17,2.33.47,5.73.76,7.53.3-.47,4.3-3.92,6.97-7.12,8.53-3.2,1.56-6.15,2.02-8.63,1.72-1.47-.18-2.78-.62-3.96-1.17-4.46-2.04-6.24-1.06-8.18-.51-.65.19-1.33.33-2.02.42-1.33.18-2.68.18-3.95,0-1.55-.22-2.97-.68-4-1.92-3.19,1.44-6.33,3-9.38,4.73-4.45,2.5-8.73,5.35-12.68,8.58-3.83,3.13-7.37,6.64-10.49,10.49-3.2,3.94-5.96,8.26-8.24,12.8-.95,1.89-1.83,3.81-2.62,5.77,2.62-3.63,5.66-6.97,9.02-9.93,4-3.51,8.46-6.49,13.26-8.76,2.83-1.34,5.76-2.44,8.79-3.27,2.98-.81,6.04-1.35,9.13-1.57,2.6-.19,5.21-.17,7.8.1.5.05.98.1,1.48.17,3.12.42,6.19,1.19,9.14,2.27.92.34,1.83.7,2.71,1.1,1.26-.8,2.34-.99,3.49-.82,1.62.22,3.32,1.14,4.69,1.95,1.37.81,2.38,1.49,3.89,1.83,1.51.34,3.52.33,5.97.39,2.45.05,5.35.17,8.01,1.04,2.67.87,5.1,2.49,7.3,4.31,2.2,1.83,4.18,3.85,5.56,8.74-3.01-2.2-5.8-2.61-8.35-2.52-2.55.08-4.87.67-7.99,1.14-3.12.46-7.03.84-9.84.82-5.04-.02-6.54-1.25-12.59-7.71,1.95,4.39,4.21,6.46,5.97,7.72.18.13.36.25.68.41.22.1.5.22.82.34-.13,1.16-.42,2.23-.69,3.19-.79,2.81-1.48,4.73-1.79,6.29-.33,1.57-.28,2.79-.13,3.98.16,1.19.41,2.33.36,3.94-.05,1.62-.37,3.71,1.28,8.89-3.32-1.13-5.12-2.63-6.64-4.45-1.51-1.84-2.72-4-3.58-6.13-.87-2.12-1.38-4.19-1.56-6.21-.19-2.01-.06-3.97-.06-5.87s-.13-3.76-.33-5.58c-.18-1.82-.42-3.59-.45-5.47-.02-1.89.17-3.87.63-5.38.27-.87.63-1.6,1.34-2.21-.02,0-.06-.02-.08-.02-2.68-.99-5.48-1.68-8.3-2.07-1.26-.17-2.51-.28-3.78-.31-1.55-.07-3.11-.04-4.67.07-2.83.22-5.64.7-8.39,1.45-2.79.76-5.51,1.78-8.12,3.02-4.47,2.12-8.62,4.89-12.33,8.15-2.95,2.6-5.63,5.51-7.97,8.66-1.32,1.77-2.53,3.61-3.61,5.52-3.13,5.49-5.32,11.52-6.39,17.75v.02Z"/>
    <path class="st0" d="M621.9,177.35c-.63-1.06-1.35-2.08-2.2-2.99-.85-.91-1.8-1.71-2.85-2.37-1.14-.73-2.38-1.29-3.67-1.71-.86-.27-1.73-.47-2.62-.63.17-.77.25-1.56.28-2.36.01-.3,0-.62-.02-.92,0-.23-.02-.45-.05-.68,1.23.18,2.44.46,3.63.85,1.61.52,3.15,1.22,4.58,2.12,1.33.85,2.55,1.85,3.63,3,.4.44.79.9,1.15,1.37-.19.35-.37.71-.56,1.08-.25.53-.48,1.06-.69,1.61-.21.54-.4,1.1-.58,1.66,0,0,0,0-.01-.02Z"/>
    <path class="st0" d="M574.14,176.98c.28.59.76.94,1.44,1.03.68.1,1.23-.15,1.64-.69.42-.57.48-1.15.17-1.77-.29-.58-.77-.93-1.44-1.05-.71-.11-1.26.12-1.66.71-.4.58-.45,1.16-.16,1.77ZM570.07,177.21c0-.47.18-.87.53-1.22.44-.44.97-.63,1.58-.57-.48-.35-.8-.82-.95-1.39-.16-.58-.04-1.1.37-1.57.4-.47.89-.58,1.45-.31.57.25.98.64,1.26,1.16-.12-.44-.16-.9-.11-1.38.05-.48.31-.81.79-.98.48-.17.91-.1,1.29.21.37.3.58.69.59,1.17.23-.39.56-.68.99-.86.42-.17.83-.11,1.21.19.22.17.35.36.41.58.05.18.04.36-.01.57-.11.46-.33.85-.64,1.15.48-.16.97-.17,1.46-.04.5.13.82.46.98.97.14.51.04.94-.36,1.29-.39.35-.81.6-1.27.76.48.16.85.47,1.06.93.13.28.17.56.1.83-.04.17-.12.35-.24.52-.31.44-.71.6-1.22.51-.5-.1-.94-.28-1.35-.53.14.45.17.92.06,1.43-.11.5-.41.81-.91.93-.48.13-.91,0-1.24-.36-.35-.38-.51-.81-.47-1.31-.11.47-.39.81-.83.99-.46.18-.89.16-1.32-.07-.43-.23-.66-.58-.71-1.05-.04-.47.06-.91.29-1.32-.5.36-1.05.47-1.67.31-.63-.15-.99-.53-1.09-1.17-.02-.13-.02-.25-.02-.38Z"/>
    <path class="st0" d="M584.97,148.47c2.34,3.73,2.25,8.37.76,12.4-1.04,2.83-2.78,5.37-4.8,7.63l-3.38.86c-.16-.01-.31-.02-.47-.06-.64-.12-1.31-.46-1.93-.41-.16.01-.31.06-.47.11-.12.05-.25.1-.37.16-.28.13-.54.29-.82.42-.05.02-.1.04-.14.06-.48.21-.97.28-1.44.41-.12.04-.25.08-.37.13l-1.34-2.95c-1.67-4.68-2.83-6.92-3.78-8.58-.73-1.26-1.32-2.18-1.78-2.99-1.66-2.94-1.4-4.44-.58-5.47.82-1.02,2.21-1.56,3.26-2.52s1.76-2.32,2.96-2.81c1.2-.5,2.88-.11,4.01.54,3.59-3.46,8.36-.67,10.7,3.05Z"/>
    <path class="st0" d="M583.29,175.57c.13-.65-.01-1.39-.41-1.94-.4-.53-1.05-.85-1.4-1.37-.07-.11-.13-.23-.19-.35-.08-.22-.16-.45-.24-.68-.05-.13-.1-.27-.14-.39-.06-.13-.12-.27-.21-.39-.22-.31-.54-.56-.91-.74l-.07-.04c-.11-.05-.22-.08-.33-.12-.13-.05-.27-.08-.4-.11-.5-.1-.96-.06-1.44-.1l3.38-.86c2.44-1.56,3.72-2.9,4.81-4.68,1.08-1.78,1.98-3.99,2.54-4.95,2.02-3.41,4.46-4.57,7.14-4.77,4.19-.3,8.98,1.77,9.78,6.24,2.63.79,3.88,3.32,4.04,6.09.11,2.09-.42,4.33-1.46,6.06-2.42,3.99-7.61,5.24-12.5,5.67-4.33.39-8.4.15-12.53-.67-.04-.01-.08-.01-.12-.02,0-.04,0-.06.01-.08.1-.62.52-1.17.65-1.83Z"/>
    <path class="st0" d="M575.14,183.06c.43.17.86.41,1.33.51.65.13,1.4.01,1.93-.4.52-.4.82-1.08,1.34-1.44.51-.35,1.24-.38,1.83-.71.58-.34.99-.98,1.09-1.65v-.18c.04-.35,0-.7-.05-1.04,3.78,1.13,8.94,1.54,12.51,1.98,4.51.54,5.74,2.17,6.51,4.05,1.54,3.74,1.25,8.48-2.61,10.43-.22.74-.46,1.45-.87,2.12-.4.67-.98,1.26-1.68,1.48-.7.21-1.54.01-2.27,0-1.86,3.91-6.13,3.51-9.75,2.06-3.17-1.28-5.85-3.36-7.46-6.07-.23-.39-.45-.79-.63-1.2-1.34-2.98-1.46-6.59-1.23-9.92h.01Z"/>
    <path class="st0" d="M569.71,180.28c.5.41.96.75,1.41,1.21.47.45.94,1.02,1.55,1.23.28.1.58.12.89.12.36.01.73,0,1.06.07-1.17,2.71-.97,6.09-.64,7.97.4,2.31.19,2.72-.05,3.12-.74,1.27-1.67,2.41-2.68,3.47-1.03,1.06-2.12,2.03-3.4,2.81-1.28.76-2.74,1.32-4.15,1.21-1.4-.11-2.73-.87-4.15-1.31-1.4-.44-2.89-.54-4.15-1.19-1.27-.64-2.31-1.83-1.92-3.45-1.32.01-2.94-.28-3.8-1.23-.86-.94-.93-2.54-.89-4,.04-1.46.19-2.81.52-4.11.34-1.32.85-2.61,1.5-3.87.62-1.2,1.35-2.36,5.69-2.66,1.35-.1,5.83-1.14,8.18-1.97l3.35-.22c.01.46.13.92.35,1.33.05.1.11.18.17.27.05.08.11.17.17.24.28.36.63.68.97.96Z"/>
    <path class="st0" d="M543.56,163c.58-1.33,2.21-2.31,3.72-2.37-1.01-5.07,4.22-6.85,8.56-6.39,4.34.46,7.8,3.17,10.33,6.51,1.54,2.02,2.73,4.27,4,6.49l1.34,2.95c-.6.23-1.19.64-1.58,1.17-.4.54-.6,1.21-.73,1.84-.12.63-.17,1.22-.37,1.81-.22.59-.59,1.19-.73,1.84-.04.18-.05.36-.05.54v.08l-3.35.22c-1.27.1-2.55.19-3.82.24-1.55.07-3.08.08-4.64,0-1.55-.11-3.12-.34-4.56-.82-1.44-.5-2.73-1.26-4.12-2.11-1.39-.86-2.86-1.8-3.48-3.04-.63-1.25-.4-2.78-.52-4.38-.04-.51-.11-1.02-.17-1.54-.14-1.09-.23-2.15.16-3.05h0Z"/>
    <path class="st0" d="M529.67,177.35s-.01.02-.02.04c-.05-.17-.11-.34-.17-.5-.3-.96-.66-1.89-1.09-2.78-.18-.36-.36-.73-.57-1.08.37-.47.75-.93,1.16-1.37,1.07-1.15,2.3-2.15,3.63-3,1.43-.9,2.97-1.6,4.57-2.12,1.49-.48,3.02-.8,4.58-.98.02.23.05.46.08.68.04.31.07.63.11.93.05.53.07,1.08.08,1.62.01.23.01.47.01.7-1.24.16-2.47.41-3.66.79-1.28.41-2.53.98-3.66,1.71-1.05.67-2.01,1.46-2.85,2.37-.85.91-1.57,1.92-2.2,2.99Z"/>
    <path class="st0" d="M491.79,208.05c-1-.82-1.78-1.79-2.25-2.89-.58-1.33-1.41-2.32-2.88-3.18-1.45-.83-3.52-1.55-5.2-1.55,2.92-2.34,5.47-2.79,7.28-2.83,1.8-.04,2.86.34,3.61.56.75.23,1.17.29,1.95.44.77.13,1.89.33,4.96-.76,0,0,.02-.01.04-.01,1.25-.44,2.15-.64,3.52-.71,1.35-.07,3.18,0,5.04.23.53.07,1.08.16,1.7.28-.28.19-.56.4-.82.62-.54.44-1.05.92-1.56,1.4-.24.23-.48.46-.74.67-.37.29-.77.53-1.21.73-.54.25-1.12.44-1.72.59-.85.21-1.69.35-2.55.46-.48.06-.98.12-1.46.16-.47.02-.94.05-1.43.05-.41,0-.83-.01-1.24-.05-.3-.02-.62-.06-.91-.13-.74-.18-1.47-.38-2.21-.56.08.75.17,1.51.25,2.26.02.27.07.52.12.79.02.16.06.33.11.48.02.15.06.29.11.42.06.25.14.5.23.73.07.21.16.4.24.59,0,.04.02.07.05.1.05.12.1.24.16.35.04.07.07.15.12.22.22.42.47.83.75,1.22.16.23.33.46.52.68l.47.54s.05.06.08.08c.46.5.95.94,1.49,1.37.35.28.71.54,1.08.79.56.39,1.14.73,1.74,1.05-1.62-.08-2.44-.33-3.11-.63-1.4-.62-2.12-1.48-3.09-2.25-.99-.77-2.24-1.45-3.24-2.29Z"/>
    <path class="st0" d="M517.44,184.18c-.02,1.05-.05,2.11-.02,3.15-.7-.62-1.43-1.21-2.19-1.77-.76-.54-1.56-1.05-2.39-1.46-.41-.21-.83-.39-1.27-.53-.39-.12-.77-.22-1.17-.28-.36-.06-.73-.08-1.08-.07-.62.02-1.22.15-1.78.39-.5.22-.95.52-1.33.91-.36.39-.64.86-.81,1.37-.22.67-.25,1.39-.14,2.09.07.47.21.93.39,1.37-.3.08-.41.13-.56.18-.8.31-2.56,1.11-2.15,3.24.25-.47.64-.88,1.14-1.21.91-.59,2.18-.9,4.13-.96-1.17-1.48-1.49-2.67-1.43-3.59.06-.92.5-1.56,1.38-1.95.88-.38,2.22-.5,4.38.67,1.34.73,3,1.96,5.03,3.9.17,1.66.48,3.32.95,4.91.04.08.06.17.08.25-1.17.08-2.33.25-3.47.52-.72.17-1.44.38-2.14.63-.46.16-.91.34-1.34.53-.21-.05-.42-.1-.63-.15-.65-.15-1.32-.29-1.98-.4-.56-.1-1.11-.17-1.67-.24-1.03-.11-2.05-.17-3.09-.18-.86,0-1.72.01-2.57.12-.73.08-1.45.25-2.15.46l-.36.11c-1.2-1.21-2.03-2.5-2.51-3.59-.68-1.49-.72-2.59-.71-3.62.01-1.03.07-1.96-.06-2.65-.13-.69-.47-1.11-.83-1.73-.35-.63-.74-1.43-.65-2.14.08-.73.64-1.36,1.33-1.78.68-.44,1.5-.65,2.43-.91.94-.27,1.98-.56,2.98-.92,1-.35,1.96-.77,3.01-.97,1.05-.19,2.19-.15,3.36.06,1.17.22,2.36.59,3.84,1.36,1.48.77,3.24,1.92,5,3.73.35.36.7.74,1.06,1.16Z"/>
    <path class="st0" d="M519.13,196.34c.17.47.36.93.57,1.39.52,1.19,1.14,2.32,1.86,3.39.81,1.2,1.77,2.31,2.82,3.32,1.04.97,2.18,1.84,3.4,2.58-5.02-3.46-6.89-8.72-7.87-12.33-.97-3.51-1.09-5.46-1.04-7.45.05-2.02.27-4.09.17-6.15-.07-1.79-.4-3.58-1.18-5.38-2.86-5.06-5.98-8.12-6.14-10.41,4.52,0,6.68,1.16,8.51,2.26,1.83,1.1,3.32,2.15,4.92,4.25.94,1.25,1.93,2.86,2.85,5.59.63,1.88,1.23,4.27,1.75,7.44.16.86.31,1.72.48,2.57.48,2.47,1.09,4.86,1.89,6.57.81,1.71,1.83,2.71,2.73,4.17.92,1.46,1.73,3.39,1.86,5.59.07,1.29-.07,2.67-.65,3.84,2.95,1.37,5.84,2.83,8.68,4.43,4.64,2.63,9.1,5.59,13.22,8.97,4.05,3.3,7.77,7.01,11.06,11.06,2.14,2.65,4.1,5.45,5.85,8.35-.16.28-.33.56-.47.85-.62,1.05-1.18,2.12-1.74,3.19-1.95-3.48-4.19-6.8-6.7-9.9-3.12-3.85-6.66-7.36-10.49-10.49-3.95-3.23-8.23-6.07-12.68-8.58-3.06-1.73-6.19-3.29-9.38-4.74-1.04,1.26-2.45,1.72-4,1.94-1.27.17-2.62.17-3.95,0-.69-.1-1.37-.23-2.02-.42-1.95-.56-3.74-1.54-8.19.51-1.19.56-2.49.99-3.95,1.17-2.49.3-5.43-.16-8.63-1.72-3.2-1.56-6.65-4.23-7.12-8.53,1.8.46,5.2.17,7.53-.3,2.34-.47,3.63-1.15,4.77-2.17,1.15-1.02,2.15-2.38,5.1-3.53,1.58-.63,3.73-1.19,6.19-1.29h0Z"/>
  </g>
</svg>