<?xml version="1.0" encoding="UTF-8"?>
<svg id="Layer_1" xmlns="http://www.w3.org/2000/svg" version="1.1" viewBox="0 0 1152 648">
  <!-- Generator: Adobe Illustrator 29.7.1, SVG Export Plug-In . SVG Version: 2.1.1 Build 8)  -->
  <defs>
    <style>
      .st0 {
        fill: #231f20;
      }
    </style>
  </defs>
  <path class="st0" d="M479.34,485.79c-7.19,10.28-17.08,18.58-29.58,24.87l-1.58-3.21c9.61-5.29,16.48-12.2,20.66-20.71,2.69-6.17,3.42-12.7,2.24-19.65-1.37-8.04-.97-15.99,1.13-23.95,2.13-7.93,5.77-15.07,10.92-21.4,5.19-6.35,12.13-9.56,20.87-9.67-4.37,6.35-6.26,13.31-5.63,20.87.61,7.56-.05,14.91-2.03,22.08-1.95,7.17-5.11,13.75-9.5,19.79-2.71,3.74-5.21,7.4-7.5,10.99ZM480.89,466.64c4.98-14.23,7.48-24.06,7.5-29.51-2.37,4.06-4.89,13.88-7.5,29.51Z"/>
  <path class="st0" d="M386.19,444.13c.13-1.84.47-3.64,1.08-5.4.58-1.74,1.37-3.4,2.34-4.95.97-1.58,2-3.08,3.11-4.56,1.08-1.5,2.16-2.98,3.26-4.45,1.69,1.19,3.47,2.19,5.37,3.03,1.87.84,3.79,1.66,5.74,2.42,1.92.74,3.63,1.87,5.11,3.4.11.11.21.21.32.34-1.45,2.48-2.71,5.06-3.76,7.77-.66-.87-1.4-1.63-2.21-2.32-1.05-.9-2.21-1.55-3.45-2.03-1.24-.45-2.55-.68-3.9-.68s-2.61.53-3.74,1.55c-.92.84-1.58,1.9-1.97,3.11.61-1.34,1.79-1.95,3.58-1.76,2.45.21,4.61,1.08,6.47,2.56,1.63,1.32,2.87,2.87,3.74,4.72-.05.37-.11.76-.13,1.16-3.55-1.08-7.19-1.58-10.87-1.5-1,.03-2,.03-3-.05-2.42-.18-4.79-.66-7.13-1.42,0-.29.03-.61.05-.92Z"/>
  <path class="st0" d="M575.99,307.47c-1.37-2.24-2.79-4.43-4.29-6.59v-56.94c0-6.38,0-17.65-2-24.03.16-.18.32-.34.47-.5,1.47-1.63,2.89-3.35,4.13-5.19.32-.45.63-.9.92-1.37.5.82,1.05,1.63,1.63,2.4,1.5,2.03,3.26,3.85,5.18,5.48-1.74,6.51-1.74,17.1-1.74,23.21v56.94c-.08.13-.16.24-.24.37-1.42,2.03-2.76,4.11-4.08,6.22Z"/>
  <path class="st0" d="M468.28,254.04c1.37.08,2.74.11,4.11.05.53,2.06,1.08,4.11,1.66,6.14,2.29,7.93,5.16,15.7,8.4,23.29-3,0-6.03.18-9,.5h-.08c-2.9-7.01-5.45-14.17-7.53-21.45-.89-3.06-1.68-6.11-2.42-9.22l.32.08c.76.16,1.55.26,2.32.37.74.11,1.5.18,2.24.24Z"/>
  <path class="st0" d="M400.27,358.77c3.24,7.43,8.08,9.14,14.53,5.14,6.5-4,10.63-10.54,12.42-19.52.47,1.66.97,3.32,1.47,4.95.42,1.45.87,2.9,1.24,4.35.26,1.11.47,2.21.61,3.32.18,1.79.13,3.61-.11,5.4-.13.97-.29,1.92-.42,2.9-.08.53-.13,1.05-.18,1.58-.66.71-1.29,1.4-1.92,2-4.61,4.53-8.63,6.85-13.19,8.43-4.53,1.55-9.55,2.42-17.45.71-.29-6.56.61-12.99,3-19.26Z"/>
  <path class="st0" d="M392.56,333.11c3.82.63,7.69,1.13,11.53,1.5,1.69.16,3.34.32,5,.42,2.63.18,5.29.32,7.95.29,2.42,0,4.87-.11,7.26-.61.18-.05.37-.08.55-.13.18,1.45.47,2.9.82,4.32.4,1.61.87,3.16,1.32,4.74.08.24.16.47.24.74-4.42,8.48-7.4,11.7-10.08,13.88-3.68,3.03-6.82,4.11-8.98,4.11s-3.37-1.13-4.08-2.69c-.68-1.55-.89-3.58.45-6.06-7.29,3.37-10.45,2.13-11.92.13-2.39-3.24-.47-8.46,3.13-13.6-3.66,3-5.95,6.04-6.87,9.09-1.5,4.98.9,8.33,7.19,10.01-1.05.32-2.08.55-3.13.76-5.27,1.11-11.69,1.79-18.48-.53-1.29-5.77-1.18-10.12.16-15.1.92-3.45,2.42-7.22,7.82-12.99,1.16.16,2.32.34,3.45.53,2.24.37,4.45.79,6.68,1.16Z"/>
  <path class="st0" d="M558.61,316.85c2.79,2.48,5.5,5.06,8.08,7.77-1.34,2.82-2.61,5.69-3.79,8.59-3.13-3.5-6.48-6.8-10-9.91-8.08-7.12-17.13-13.15-26.85-17.76-5.69-2.71-11.61-4.93-17.69-6.59-5.97-1.63-12.11-2.69-18.27-3.16-3.4-.24-6.79-.32-10.16-.16-2.76.08-5.5.32-8.24.68-6.18.84-12.26,2.34-18.11,4.5-.05,0-.11.03-.16.05,1.55,1.34,2.32,2.92,2.89,4.82,1.03,3.29,1.45,7.62,1.4,11.72-.05,4.08-.58,7.96-.97,11.91-.42,3.95-.71,7.98-.71,12.15s.29,8.4-.13,12.78c-.42,4.4-1.53,8.91-3.4,13.52-1.87,4.64-4.5,9.35-7.79,13.36-3.29,3.98-7.21,7.25-14.45,9.7,3.61-11.28,2.87-15.83,2.79-19.36-.11-3.5.45-6.01.76-8.59.34-2.58.42-5.24-.26-8.67-.68-3.4-2.18-7.59-3.9-13.7-.58-2.11-1.21-4.43-1.5-6.96.71-.26,1.32-.53,1.79-.74.66-.34,1.05-.61,1.47-.9,3.84-2.74,8.77-7.24,13-16.81-13.19,14.07-16.45,16.73-27.42,16.78-6.11.03-14.63-.79-21.43-1.79-6.79-1.03-11.84-2.29-17.4-2.48-5.56-.21-11.63.68-18.19,5.48,3-10.64,7.29-15.04,12.11-19.02,4.79-3.95,10.08-7.48,15.87-9.38,5.82-1.9,12.13-2.16,17.48-2.27,5.34-.13,9.71-.11,13-.84,3.29-.74,5.5-2.21,8.47-3.98,2.95-1.76,6.69-3.77,10.21-4.24,2.47-.37,4.87.05,7.58,1.79,1.95-.87,3.92-1.66,5.9-2.4,6.45-2.37,13.13-4.03,19.92-4.95,1.05-.16,2.13-.26,3.21-.37,5.63-.58,11.32-.63,16.95-.21,6.74.47,13.4,1.66,19.9,3.42,6.58,1.79,12.98,4.19,19.14,7.12,10.45,4.95,20.16,11.43,28.87,19.07Z"/>
  <path class="st0" d="M447.73,511.66c1.5.76,3.03,1.5,4.58,2.16,6.13,2.61,12.66,4.35,19.29,4.79,2.98.18,5.95.13,8.9-.18,3.32-.37,6.63-1.08,9.82-2.11,5.29-1.69,10.32-4.27,14.9-7.46,4.55-3.19,8.68-6.98,12.32-11.17,3.58-4.16,6.68-8.7,9.26-13.52,2.5-4.69,4.5-9.67,6-14.78,1.5-5.11,2.5-10.35,3.05-15.65.58-5.4.71-10.83.47-16.26-.26-5.53-.87-11.04-1.81-16.52-.92-5.53-2.16-10.99-3.66-16.39-2.18-7.83-4.9-15.47-8-22.95-4.21-10.22-9.13-20.1-14.34-29.85-5.19-9.7-10.63-19.26-15.95-28.9-4.32-7.85-8.55-15.76-12.45-23.82,3.24-.13,6.45-.05,9.66.16,3.29,6.59,6.79,13.04,10.34,19.5,5.34,9.67,10.82,19.26,16.03,29.01,5.32,9.99,10.37,20.15,14.69,30.61,3.21,7.8,6.03,15.78,8.29,23.92,2.95,10.62,4.97,21.47,5.66,32.46.05.79.11,1.58.13,2.37.24,5.88.11,11.75-.5,17.57-.63,5.82-1.74,11.57-3.37,17.18-1.66,5.67-3.9,11.17-6.66,16.39-2.89,5.4-6.37,10.49-10.37,15.1-4.11,4.77-8.77,9.06-13.92,12.65-5.26,3.66-11.05,6.61-17.16,8.54-3.74,1.21-7.61,2.03-11.5,2.45-3.45.37-6.92.45-10.37.21-3.66-.24-7.29-.82-10.87-1.69-3.66-.9-7.24-2.08-10.71-3.56,2.24,1.82,4.58,3.48,7.03,5.01,4.71,2.95,9.74,5.37,15,7.22,5.21,1.84,10.63,3.11,16.14,3.85,7.9,1.05,15.92,1,23.82-.08,11.16-1.53,22-5.08,31.88-10.46,4.92-2.66,9.58-5.8,13.9-9.35,4.32-3.58,8.29-7.59,11.77-11.96,3.03-3.74,5.69-7.77,8.03-11.96,3.4-5.96,6.13-12.28,8.37-18.79,4.13-11.99,6.5-24.5,7.61-37.12,1.19-13.25.97-26.61-.34-39.84-.18-1.76-.37-3.56-.58-5.32-2.29-13.67-7.08-26.9-13.95-38.94-.05-.08-.08-.13-.13-.21,2.03-3.37,4.19-6.64,6.53-9.8,1.13-1.5,2.26-2.98,3.45-4.4,2.19,5.8,4.11,11.7,5.77,17.68,3.68,13.12,6.16,26.58,7.5,40.15,1.21,12.2,1.5,24.53.71,36.81-.11,1.53-.24,3.08-.37,4.64-1.18,13.33-3.66,26.56-8.03,39.23-3.61,10.46-8.5,20.52-14.98,29.51-.92,1.26-1.87,2.53-2.87,3.77-3.84,4.8-8.21,9.25-12.98,13.17-4.74,3.95-9.87,7.38-15.27,10.33-10.76,5.88-22.66,9.75-34.82,11.41-33.06,4.5-68.3-7.35-88.94-40.76-8.82.82-16.06-6.88-14.66-15.62-3.26-2.32-6.63-4.4-10.11-6.27-3.53-1.87-6.5-4.4-8.92-7.62-2.45-3.19-4.98-6.3-7.58-9.27-2.63-3-4.69-6.38-6.16-10.17-1.5-3.79-3.82-6.98-7-9.56,4.53-1.61,9.03-1.5,13.45.29,4.42,1.79,8.97,2.64,13.66,2.5,4.66-.13,9.21.82,13.66,2.79.87.4,1.68.84,2.45,1.34,3.13,1.98,5.4,4.74,6.76,8.35,1.74,4.5,2.66,9.06,2.82,13.75.08,2.13.08,4.27.05,6.4,1.13-3.08,1.92-6.27,2.37-9.59.42-3.29.05-6.51-1.11-9.67-1.16-3.13-2.82-5.98-4.95-8.54-2.16-2.56-4.79-4.43-7.95-5.61.05-1.71.4-3.42,1.05-5.16,1.58-4.21,3.61-8.14,6.08-11.78,2.47-3.61,3.87-7.67,4.16-12.15,3.4,2.87,5.66,6.43,6.76,10.64,1.13,4.24,1.32,8.51.53,12.8-.82,4.32-.5,8.56.9,12.73,1.4,4.16,1.76,8.38,1.11,12.67-.58,3.92-1,7.88-1.21,11.86,7.13,4.66,8.21,14.6,2.34,20.76,3.11,2.45,6.34,4.74,9.71,6.8.66.42,1.32.82,2,1.21,1.47-.68,2.89-1.4,4.26-2.16l1.58,3.21c-.66.34-1.34.68-2.03,1Z"/>
  <path class="st0" d="M726.33,338.9c.34-1.42.63-2.87.82-4.32.18.05.37.08.55.13,2.37.5,4.82.61,7.26.61,2.66.03,5.32-.11,7.95-.29,1.66-.11,3.32-.26,4.98-.42,3.87-.37,7.71-.87,11.55-1.5,2.24-.37,4.45-.79,6.66-1.16,1.16-.18,2.32-.37,3.47-.53,5.4,5.77,6.9,9.54,7.82,12.99,1.34,4.98,1.45,9.33.16,15.1-6.79,2.32-13.24,1.63-18.48.53-1.08-.21-2.08-.45-3.13-.76,6.29-1.69,8.69-5.03,7.19-10.01-.92-3.06-3.21-6.09-6.87-9.09,3.58,5.14,5.53,10.36,3.13,13.6-1.48,2-4.66,3.24-11.92-.13,1.32,2.48,1.13,4.5.45,6.06-.71,1.55-1.92,2.69-4.08,2.69s-5.29-1.08-8.98-4.11c-2.68-2.19-5.66-5.4-10.08-13.88.08-.26.16-.5.21-.74.47-1.58.95-3.13,1.34-4.74Z"/>
  <path class="st0" d="M721.46,357.01c.11-1.11.34-2.21.61-3.32.37-1.45.82-2.9,1.24-4.35.5-1.63,1-3.29,1.47-4.95,1.79,8.98,5.92,15.52,12.42,19.52,6.45,4,11.32,2.27,14.53-5.16,2.4,6.3,3.26,12.7,2.97,19.28-7.9,1.71-12.9.84-17.45-.71-4.53-1.58-8.56-3.9-13.16-8.43-.63-.61-1.26-1.29-1.92-2-.05-.53-.11-1.05-.18-1.58-.13-.97-.32-1.92-.42-2.9-.24-1.79-.32-3.61-.11-5.4Z"/>
  <path class="st0" d="M745.46,439.42c-.82.68-1.55,1.45-2.21,2.32-1.08-2.71-2.32-5.3-3.76-7.77.11-.13.21-.24.32-.34,1.47-1.53,3.16-2.66,5.11-3.4,1.95-.76,3.84-1.58,5.74-2.42,1.89-.84,3.68-1.84,5.37-3.03,1.08,1.48,2.18,2.95,3.26,4.45,1.08,1.48,2.13,2.98,3.11,4.56.97,1.55,1.76,3.21,2.34,4.95.58,1.76.95,3.56,1.08,5.4.03.32.03.63.05.92-2.34.76-4.74,1.24-7.13,1.42-1,.08-2,.08-3,.05-3.71-.08-7.32.42-10.87,1.5-.03-.4-.08-.79-.13-1.16.84-1.84,2.1-3.4,3.74-4.72,1.87-1.48,4.03-2.34,6.48-2.56,1.76-.18,2.97.42,3.55,1.76-.37-1.21-1.03-2.27-1.97-3.11-1.11-1.03-2.34-1.55-3.71-1.55s-2.66.24-3.9.68c-1.26.47-2.4,1.13-3.45,2.03Z"/>
  <path class="st0" d="M629.68,431.99c4.53-1.9,9.24-5.64,14.11-11.17-6.03,3.79-10.74,7.54-14.11,11.17ZM643.5,432.73c-5.45,1.58-11.77,2.63-18.74,6.14-2.5,1.26-4.45,3.06-6.24,5.01l-2.95-1.84c.16-.18.32-.34.47-.53,1.37-1.53,2.82-2.98,4.08-5.48,4.79-9.46,11.77-16.55,18.74-21.84,7.53-5.72,15.11-9.28,20.42-12.01,5.34-2.71,8.48-4.58,12.48-11.65-2.34,20.5-6.66,27.69-11.48,32.64-4.84,4.95-10.16,7.67-16.79,9.56Z"/>
  <path class="st0" d="M722.14,480.84c-.24-3.98-.63-7.93-1.24-11.86-.63-4.29-.26-8.51,1.13-12.67,1.4-4.16,1.69-8.4.9-12.73-.79-4.29-.63-8.56.5-12.8,1.13-4.21,3.4-7.77,6.79-10.64.29,4.48,1.69,8.54,4.16,12.15,2.47,3.64,4.5,7.56,6.08,11.78.66,1.74,1,3.45,1.05,5.16-3.16,1.19-5.79,3.06-7.95,5.61-2.13,2.56-3.79,5.4-4.95,8.54-1.16,3.16-1.53,6.38-1.11,9.67.42,3.32,1.21,6.51,2.37,9.59-.05-2.13-.03-4.27.05-6.4.16-4.69,1.08-9.25,2.79-13.75,1.37-3.61,3.63-6.4,6.79-8.35.76-.53,1.58-.95,2.45-1.34,4.45-1.98,9-2.92,13.66-2.79,4.69.13,9.24-.71,13.66-2.5,4.42-1.79,8.92-1.9,13.45-.29-3.18,2.58-5.53,5.77-7,9.56-1.48,3.79-3.53,7.17-6.16,10.17-2.6,2.98-5.13,6.08-7.58,9.27-2.45,3.21-5.42,5.74-8.92,7.62-3.5,1.87-6.84,3.95-10.11,6.27,1.39,8.75-5.84,16.44-14.66,15.62-20.64,33.41-55.91,45.26-88.94,40.76-12.19-1.66-24.06-5.53-34.85-11.41-5.37-2.95-10.5-6.37-15.24-10.33-3.97-3.29-7.69-6.93-11.03-10.83,1.08-1.37,2.13-2.74,3.13-4.16.71-.97,1.42-1.98,2.08-3,3.4,4.14,7.19,7.96,11.29,11.38,4.32,3.56,9,6.69,13.92,9.35,9.87,5.38,20.71,8.93,31.85,10.46,7.9,1.08,15.95,1.13,23.84.08,5.5-.74,10.92-2,16.14-3.85,5.24-1.84,10.29-4.27,15-7.22,2.45-1.53,4.79-3.19,7.03-5.01-3.47,1.48-7.05,2.66-10.74,3.56-3.55.87-7.19,1.45-10.84,1.69-3.45.24-6.95.16-10.37-.21-3.92-.42-7.76-1.24-11.5-2.45-6.11-1.92-11.9-4.87-17.16-8.54-5.16-3.58-9.82-7.88-13.95-12.65-3.97-4.61-7.48-9.7-10.34-15.1-2.79-5.22-5-10.72-6.66-16.39-1.66-5.61-2.76-11.36-3.37-17.18-.63-5.82-.76-11.7-.5-17.57.03-.79.08-1.58.13-2.37.68-10.99,2.68-21.84,5.66-32.46,2.26-8.14,5.08-16.12,8.29-23.92,4.32-10.46,9.37-20.63,14.69-30.61,5.21-9.75,10.69-19.34,16.03-29.01,3.55-6.45,7.05-12.91,10.34-19.5,3.21-.21,6.42-.29,9.66-.16-3.92,8.06-8.13,15.97-12.48,23.82-5.29,9.64-10.76,19.21-15.95,28.9-5.18,9.75-10.11,19.63-14.34,29.85-3.08,7.48-5.79,15.12-7.97,22.95-1.5,5.4-2.74,10.85-3.68,16.39-.92,5.48-1.55,10.99-1.79,16.52-.05,1.5-.11,3-.11,4.53l2.95,1.84c-.97,1.08-1.92,2.19-2.87,3.32.11,2.19.26,4.37.5,6.56.55,5.3,1.55,10.54,3.05,15.65,1.5,5.11,3.5,10.09,6,14.78,2.58,4.82,5.69,9.35,9.27,13.52,3.63,4.19,7.76,7.98,12.32,11.17,4.58,3.19,9.58,5.77,14.9,7.46,3.18,1.03,6.47,1.74,9.82,2.11,2.95.32,5.92.37,8.87.18,6.66-.45,13.19-2.19,19.32-4.79,1.55-.66,3.08-1.4,4.58-2.16,1.97-1,3.92-2.08,5.82-3.27,3.37-2.05,6.58-4.35,9.68-6.8-5.84-6.17-4.76-16.1,2.37-20.76Z"/>
  <path class="st0" d="M688.56,253.36c-.71,3.11-1.5,6.17-2.39,9.22-2.11,7.27-4.66,14.44-7.53,21.45h-.08c-3-.32-6-.47-9-.5,3.24-7.59,6.11-15.36,8.4-23.29.58-2.03,1.13-4.08,1.66-6.14,1.37.05,2.74,0,4.11-.05.74-.05,1.5-.13,2.24-.24.76-.11,1.55-.21,2.32-.37.08-.03.18-.05.29-.08Z"/>
  <path class="st0" d="M727.01,223.53c-.55-.45-1.08-.95-1.6-1.45-1.11-1.05-2.21-2.11-3.4-3.06-.58-.47-1.19-.92-1.79-1.34,1.37-.26,2.53-.45,3.71-.61,4.05-.53,8-.66,10.98-.5,2.97.16,4.95.61,7.63,1.55.05,0,.08.03.11.03,6.68,2.37,9.11,1.95,10.79,1.66,1.66-.32,2.61-.45,4.24-.95,1.63-.47,3.95-1.29,7.87-1.21,3.92.08,9.45,1.08,15.84,6.17-3.66,0-8.16,1.55-11.34,3.37-3.18,1.87-4.97,4.03-6.24,6.93-1.03,2.4-2.71,4.51-4.9,6.3-2.19,1.82-4.92,3.29-7.05,4.98-2.13,1.69-3.71,3.56-6.74,4.9-1.45.66-3.26,1.19-6.76,1.37,3.05-1.66,5.95-3.64,8.45-6.06.32-.29.63-.61.92-.92,1.55-1.66,2.92-3.5,3.97-5.51.11-.16.18-.32.26-.47.08-.18.18-.37.24-.55l.16-.32c.16-.32.29-.68.42-1.03.24-.55.42-1.13.58-1.71,0-.03,0-.08.05-.13.16-.55.29-1.11.4-1.66.05-.08.05-.16.05-.24.03-.05.05-.13.05-.18.11-.58.21-1.13.26-1.71.18-1.63.37-3.29.53-4.93-1.58.4-3.18.82-4.79,1.21-.66.16-1.32.24-1.97.29-.92.08-1.82.11-2.74.11-1.03,0-2.05-.05-3.08-.11-1.08-.08-2.13-.21-3.18-.34-1.87-.24-3.74-.55-5.55-1-1.29-.34-2.55-.74-3.76-1.29-.92-.42-1.79-.95-2.61-1.58Z"/>
  <path class="st0" d="M718.4,186.49c-.87.13-1.71.34-2.55.61-.95.32-1.87.71-2.76,1.16-1.84.9-3.55,2-5.21,3.19-1.66,1.21-3.24,2.5-4.79,3.85.08-2.27.03-4.56-.03-6.85.76-.92,1.53-1.74,2.29-2.53,3.87-3.93,7.71-6.43,10.92-8.11,3.21-1.66,5.82-2.48,8.37-2.95,2.53-.45,5.03-.55,7.32-.13,2.26.42,4.37,1.34,6.55,2.11,2.16.79,4.45,1.42,6.47,2,2.05.55,3.82,1.03,5.32,1.98,1.5.92,2.68,2.29,2.87,3.87.18,1.55-.63,3.29-1.42,4.66-.76,1.34-1.5,2.27-1.79,3.77-.32,1.5-.16,3.53-.13,5.77,0,2.24-.08,4.64-1.55,7.88-1.08,2.37-2.89,5.19-5.47,7.83l-.79-.24c-1.53-.45-3.11-.82-4.69-1-1.87-.24-3.74-.29-5.63-.26-2.24.03-4.47.16-6.71.4-1.21.16-2.45.32-3.63.53-1.45.24-2.89.55-4.32.87-.47.11-.92.21-1.37.32-.97-.42-1.95-.82-2.92-1.16-1.53-.55-3.08-1-4.66-1.37-2.47-.58-5-.95-7.55-1.13l.16-.55c1.03-3.48,1.74-7.09,2.1-10.7,4.42-4.22,8.03-6.9,10.95-8.48,4.66-2.53,7.58-2.27,9.53-1.45,1.92.84,2.84,2.24,2.97,4.24.13,2-.53,4.61-3.11,7.83,4.26.13,7.05.79,9.03,2.08,1.08.71,1.92,1.61,2.47,2.63.9-4.64-2.97-6.38-4.69-7.06-.32-.11-.55-.21-1.21-.4.39-.95.68-1.95.84-2.98.21-1.53.16-3.11-.32-4.56-.37-1.11-.97-2.13-1.76-2.98-.81-.84-1.81-1.5-2.89-1.98-1.21-.53-2.53-.79-3.87-.84-.79-.03-1.58.03-2.34.16Z"/>
  <path class="st0" d="M559.96,392.86c-.24,1.87-.42,3.71-.61,5.59-1.32,13.23-1.53,26.58-.37,39.84,1.13,12.62,3.5,25.14,7.61,37.12,2.03,5.9,4.48,11.65,7.45,17.13-1.08,1.87-2.21,3.74-3.4,5.53-.61.9-1.21,1.79-1.84,2.66-4.24-7.06-7.66-14.65-10.34-22.45-4.37-12.67-6.84-25.9-8.03-39.23-.13-1.55-.26-3.11-.37-4.64-.79-12.28-.5-24.61.71-36.81,1.34-13.57,3.82-27.03,7.47-40.15,3-10.75,6.79-21.26,11.53-31.33.66-1.37,1.32-2.74,2-4.08,1.32-2.61,2.71-5.19,4.16-7.72,2.16-3.82,4.5-7.54,6.97-11.15,2.45-3.64,5.08-7.17,7.84-10.57,7.16-8.83,15.27-16.89,24.06-24.08,9-7.35,18.71-13.81,28.82-19.52,6.16-3.48,12.48-6.67,18.9-9.64-1.26-2.53-1.58-5.53-1.42-8.35.29-4.8,2.05-8.98,4.03-12.17,2-3.19,4.21-5.37,5.98-9.09,1.74-3.72,3.03-8.93,4.11-14.31.37-1.84.71-3.72,1.05-5.59,1.76-10.59,3.87-17.26,6.05-21.87,1.32-2.77,2.66-4.8,3.97-6.51,3.47-4.56,6.71-6.85,10.71-9.25,3.97-2.4,8.69-4.93,18.53-4.93-.34,4.98-7.13,11.65-13.37,22.66-1.71,3.93-2.42,7.83-2.61,11.72-.21,4.48.29,8.98.4,13.38.11,4.35-.16,8.59-2.26,16.23-2.16,7.85-6.21,19.31-17.13,26.85,2.63-1.61,5.13-3.5,7.4-5.61,2.29-2.19,4.34-4.61,6.13-7.22,1.55-2.32,2.89-4.8,4.05-7.38.45-1,.87-2,1.24-3.03,5.32.24,10.03,1.45,13.48,2.82,6.42,2.5,8.61,5.48,11.11,7.69,2.47,2.21,5.29,3.69,10.4,4.72,5.08,1.03,12.48,1.66,16.4.66-1.03,9.35-8.53,15.18-15.5,18.57-6.97,3.4-13.4,4.4-18.79,3.74-3.21-.4-6.05-1.34-8.63-2.56-9.71-4.45-13.58-2.32-17.82-1.11-1.42.42-2.89.71-4.4.92-2.89.4-5.84.4-8.61,0-3.37-.47-6.47-1.48-8.71-4.19-6.95,3.14-13.79,6.53-20.42,10.3-9.69,5.45-19,11.65-27.61,18.68-8.34,6.82-16.05,14.46-22.85,22.84-6.97,8.59-12.97,17.99-17.95,27.88-2.08,4.11-3.97,8.3-5.71,12.57,5.71-7.91,12.32-15.18,19.64-21.63,8.71-7.64,18.42-14.12,28.87-19.08,6.16-2.92,12.55-5.32,19.14-7.11,6.5-1.76,13.16-2.95,19.87-3.42,5.66-.42,11.34-.37,16.98.21,1.08.11,2.13.21,3.21.37,6.79.92,13.48,2.58,19.9,4.95,2,.74,3.97,1.53,5.89,2.4,2.74-1.74,5.11-2.16,7.61-1.79,3.53.47,7.24,2.48,10.21,4.24,2.97,1.76,5.19,3.24,8.48,3.98,3.29.74,7.66.71,13,.84,5.34.11,11.66.37,17.45,2.27,5.82,1.9,11.11,5.43,15.9,9.38,4.79,3.98,9.11,8.38,12.11,19.02-6.55-4.79-12.64-5.69-18.19-5.48-5.55.18-10.61,1.45-17.4,2.48-6.79,1-15.32,1.82-21.42,1.79-10.98-.05-14.24-2.71-27.42-16.78,4.24,9.56,9.16,14.07,13,16.81.4.29.79.55,1.47.9.47.21,1.08.47,1.79.74-.29,2.53-.92,4.85-1.5,6.96-1.71,6.11-3.21,10.3-3.9,13.7-.71,3.42-.61,6.08-.29,8.67.34,2.58.9,5.08.79,8.59-.11,3.53-.81,8.09,2.79,19.37-7.24-2.45-11.16-5.72-14.45-9.7-3.29-4-5.92-8.72-7.79-13.36-1.9-4.61-3-9.11-3.4-13.52-.42-4.37-.13-8.64-.13-12.78s-.29-8.2-.71-12.15c-.4-3.95-.92-7.83-.97-11.91-.05-4.11.37-8.43,1.37-11.72.58-1.9,1.37-3.48,2.92-4.82-.05,0-.13-.05-.18-.05-5.84-2.16-11.92-3.66-18.08-4.51-2.74-.37-5.47-.61-8.24-.68-3.37-.16-6.76-.08-10.16.16-6.16.47-12.29,1.53-18.27,3.16-6.08,1.66-12,3.87-17.69,6.59-9.74,4.61-18.77,10.64-26.85,17.76-6.42,5.67-12.27,11.99-17.35,18.87-2.87,3.85-5.5,7.85-7.87,12.01-6.82,11.96-11.58,25.08-13.92,38.65v.05Z"/>
  <path class="st0" d="M676.42,173.58c-1.37-2.32-2.95-4.53-4.79-6.51-1.84-1.98-3.92-3.71-6.21-5.16-2.47-1.58-5.19-2.82-8-3.71-1.87-.58-3.76-1.03-5.71-1.37.37-1.69.55-3.4.61-5.14.03-.66,0-1.34-.05-2,0-.5-.05-.97-.11-1.48,2.68.4,5.32,1,7.9,1.84,3.5,1.13,6.87,2.66,9.98,4.61,2.89,1.84,5.55,4.03,7.9,6.53.87.95,1.71,1.95,2.5,2.98-.42.76-.82,1.55-1.21,2.34-.55,1.16-1.05,2.32-1.5,3.5-.45,1.19-.87,2.4-1.26,3.61,0,0,0-.02-.03-.05Z"/>
  <path class="st0" d="M572.41,172.76c.6,1.29,1.66,2.05,3.13,2.24,1.48.21,2.68-.32,3.58-1.5.92-1.24,1.05-2.5.37-3.85-.63-1.26-1.69-2.03-3.13-2.29-1.55-.24-2.74.26-3.61,1.55-.87,1.26-.97,2.53-.34,3.85ZM563.54,173.26c0-1.03.4-1.9,1.16-2.66.95-.95,2.11-1.37,3.45-1.24-1.05-.76-1.74-1.79-2.08-3.03-.34-1.26-.08-2.4.82-3.43.87-1.03,1.95-1.26,3.16-.69,1.24.55,2.13,1.4,2.74,2.53-.26-.95-.34-1.95-.24-3,.11-1.05.68-1.77,1.71-2.13,1.05-.37,1.97-.21,2.82.45.82.66,1.26,1.5,1.29,2.56.5-.84,1.21-1.48,2.16-1.87.92-.37,1.81-.24,2.63.42.47.37.76.79.9,1.26.11.4.08.79-.03,1.24-.24,1-.71,1.84-1.4,2.5,1.05-.34,2.11-.37,3.18-.08,1.08.29,1.79,1,2.13,2.11.32,1.11.08,2.06-.79,2.82-.84.76-1.76,1.32-2.76,1.66,1.05.34,1.84,1.03,2.32,2.03.29.61.37,1.21.21,1.82-.08.37-.26.76-.53,1.13-.68.95-1.55,1.32-2.66,1.11-1.08-.21-2.05-.61-2.95-1.16.32.97.37,2,.13,3.11-.24,1.08-.9,1.77-1.98,2.03-1.05.29-1.97,0-2.71-.79-.76-.82-1.11-1.77-1.03-2.85-.24,1.03-.84,1.77-1.82,2.16-1,.4-1.95.34-2.87-.16-.95-.5-1.45-1.26-1.55-2.29-.08-1.03.13-1.98.63-2.87-1.08.79-2.29,1.03-3.63.69-1.37-.32-2.16-1.16-2.37-2.56-.05-.29-.05-.55-.05-.82Z"/>
  <path class="st0" d="M596,110.69c5.1,8.11,4.89,18.23,1.66,27.01-2.26,6.17-6.05,11.7-10.45,16.63l-7.37,1.87c-.34-.03-.68-.05-1.03-.13-1.4-.26-2.84-1-4.21-.9-.34.03-.68.13-1.03.24-.26.11-.55.21-.82.34-.61.29-1.19.63-1.79.92-.11.05-.21.08-.32.13-1.05.45-2.1.61-3.13.9-.26.08-.55.18-.82.29l-2.92-6.43c-3.63-10.2-6.16-15.07-8.24-18.68-1.58-2.74-2.87-4.74-3.87-6.51-3.61-6.4-3.05-9.67-1.26-11.91,1.79-2.21,4.82-3.4,7.11-5.48s3.84-5.06,6.45-6.11c2.6-1.08,6.26-.24,8.74,1.19,7.82-7.54,18.21-1.45,23.29,6.64Z"/>
  <path class="st0" d="M592.33,169.7c.29-1.42-.03-3.03-.89-4.22-.87-1.16-2.29-1.84-3.05-2.98-.16-.24-.29-.5-.42-.76-.18-.47-.34-.97-.53-1.48-.11-.29-.21-.58-.32-.84-.13-.29-.26-.58-.45-.84-.47-.68-1.19-1.21-1.97-1.61l-.16-.08c-.24-.11-.47-.18-.71-.26-.29-.11-.58-.18-.87-.24-1.08-.21-2.08-.13-3.13-.21l7.37-1.87c5.32-3.4,8.11-6.32,10.48-10.2,2.34-3.87,4.32-8.69,5.53-10.78,4.4-7.43,9.71-9.96,15.56-10.38,9.13-.66,19.56,3.85,21.29,13.6,5.74,1.71,8.45,7.22,8.79,13.25.24,4.56-.92,9.43-3.18,13.2-5.27,8.69-16.58,11.41-27.22,12.36-9.42.84-18.29.32-27.29-1.45-.08-.03-.18-.03-.26-.05,0-.08,0-.13.03-.18.21-1.34,1.13-2.56,1.42-3.98Z"/>
  <path class="st0" d="M574.59,186.01c.95.37,1.87.9,2.89,1.11,1.42.29,3.05.03,4.21-.87,1.13-.87,1.79-2.34,2.92-3.14,1.11-.76,2.71-.82,3.97-1.55,1.26-.74,2.16-2.13,2.37-3.58v-.4c.08-.76,0-1.53-.11-2.27,8.24,2.45,19.48,3.35,27.24,4.32,9.82,1.19,12.5,4.72,14.19,8.83,3.34,8.14,2.71,18.47-5.68,22.71-.47,1.61-1,3.16-1.9,4.61-.87,1.45-2.13,2.74-3.66,3.21-1.53.45-3.34.03-4.95,0-4.05,8.51-13.34,7.64-21.24,4.48-6.9-2.79-12.74-7.32-16.24-13.23-.5-.84-.97-1.71-1.37-2.61-2.92-6.48-3.18-14.36-2.68-21.6l.03-.03Z"/>
  <path class="st0" d="M562.77,179.95c1.08.9,2.08,1.63,3.08,2.63,1.03.97,2.05,2.21,3.37,2.69.61.21,1.26.26,1.95.26.79.03,1.58,0,2.32.16-2.55,5.9-2.1,13.25-1.4,17.36.87,5.03.42,5.93-.11,6.8-1.6,2.77-3.63,5.24-5.84,7.56-2.24,2.32-4.61,4.43-7.4,6.11-2.79,1.66-5.97,2.87-9.03,2.63-3.05-.24-5.95-1.9-9.03-2.85-3.05-.95-6.29-1.19-9.03-2.58-2.76-1.4-5.03-3.98-4.19-7.51-2.87.03-6.4-.61-8.27-2.69-1.87-2.05-2.03-5.53-1.95-8.72.08-3.19.42-6.11,1.13-8.96.74-2.87,1.84-5.69,3.26-8.43,1.34-2.61,2.95-5.14,12.4-5.8,2.95-.21,12.69-2.48,17.82-4.29l7.29-.47c.03,1,.29,2,.76,2.9.11.21.24.4.37.58.11.18.24.37.37.53.61.79,1.37,1.48,2.1,2.08Z"/>
  <path class="st0" d="M505.82,142.33c1.26-2.9,4.82-5.03,8.11-5.16-2.21-11.04,9.19-14.91,18.64-13.91,9.45,1,16.98,6.9,22.5,14.17,3.34,4.4,5.95,9.3,8.71,14.12l2.92,6.43c-1.32.5-2.58,1.4-3.45,2.56-.87,1.19-1.32,2.63-1.58,4-.26,1.37-.37,2.66-.81,3.95-.47,1.29-1.29,2.58-1.58,4-.08.4-.11.79-.11,1.19v.18l-7.29.47c-2.76.21-5.55.42-8.32.53-3.37.16-6.71.18-10.11,0-3.37-.24-6.79-.74-9.92-1.79-3.13-1.08-5.95-2.74-8.97-4.58-3.03-1.87-6.24-3.93-7.58-6.61-1.37-2.71-.87-6.06-1.13-9.54-.08-1.11-.24-2.21-.37-3.35-.32-2.37-.5-4.69.34-6.64v-.03Z"/>
  <path class="st0" d="M475.57,173.58s-.03.05-.05.08c-.11-.37-.24-.74-.37-1.08-.66-2.08-1.45-4.11-2.37-6.06-.4-.79-.79-1.58-1.24-2.34.82-1.03,1.63-2.03,2.53-2.98,2.34-2.5,5-4.69,7.9-6.53,3.11-1.95,6.47-3.48,9.95-4.61,3.24-1.05,6.58-1.74,9.97-2.13.05.5.11,1,.18,1.48.08.68.16,1.37.24,2.03.11,1.16.16,2.34.18,3.53.03.5.03,1.03.03,1.53-2.71.34-5.37.9-7.97,1.71-2.79.9-5.5,2.13-7.98,3.72-2.29,1.45-4.37,3.19-6.21,5.16-1.84,1.98-3.42,4.19-4.79,6.51Z"/>
  <path class="st0" d="M393.09,240.42c-2.19-1.79-3.87-3.9-4.9-6.3-1.26-2.9-3.08-5.06-6.26-6.93-3.16-1.82-7.66-3.37-11.32-3.37,6.37-5.09,11.92-6.09,15.85-6.17,3.92-.08,6.24.74,7.87,1.21,1.63.5,2.55.63,4.24.95,1.68.29,4.11.71,10.79-1.66,0,0,.05-.03.08-.03,2.71-.95,4.69-1.4,7.66-1.55,2.95-.16,6.92,0,10.98.5,1.16.16,2.34.34,3.71.61-.61.42-1.21.87-1.79,1.34-1.19.95-2.29,2-3.4,3.06-.53.5-1.05,1-1.61,1.45-.82.63-1.69,1.16-2.63,1.58-1.18.55-2.45.95-3.74,1.29-1.84.45-3.68.76-5.55,1-1.05.13-2.13.26-3.19.34-1.03.05-2.05.11-3.11.11-.9,0-1.82-.03-2.71-.11-.66-.05-1.34-.13-1.98-.29-1.6-.4-3.21-.82-4.82-1.21.18,1.63.37,3.29.55,4.93.05.58.16,1.13.26,1.71.05.34.13.71.24,1.05.05.32.13.63.24.92.13.55.32,1.08.5,1.58.16.45.34.87.53,1.29,0,.08.05.16.11.21.11.26.21.53.34.76.08.16.16.32.26.47.47.92,1.03,1.82,1.63,2.66.34.5.71,1,1.13,1.48l1.03,1.19s.11.13.18.18c1,1.08,2.08,2.06,3.24,2.98.76.61,1.55,1.19,2.34,1.71,1.21.84,2.47,1.58,3.79,2.29-3.53-.18-5.32-.71-6.76-1.37-3.05-1.34-4.61-3.21-6.74-4.9-2.16-1.69-4.87-3.16-7.05-4.98Z"/>
  <path class="st0" d="M448.93,188.44c-.05,2.29-.11,4.58-.05,6.85-1.53-1.34-3.11-2.63-4.76-3.85-1.66-1.19-3.4-2.29-5.21-3.19-.89-.45-1.81-.84-2.76-1.16-.84-.26-1.68-.47-2.55-.61-.79-.13-1.58-.18-2.34-.16-1.34.05-2.66.32-3.87.84-1.08.47-2.08,1.13-2.89,1.98-.79.84-1.4,1.87-1.76,2.98-.47,1.45-.55,3.03-.32,4.56.16,1.03.45,2.03.84,2.98-.66.18-.9.29-1.21.4-1.74.69-5.58,2.42-4.69,7.06.55-1.03,1.4-1.92,2.47-2.63,1.97-1.29,4.74-1.95,9-2.08-2.55-3.21-3.24-5.82-3.11-7.83.13-2,1.08-3.4,3-4.24,1.92-.82,4.84-1.08,9.53,1.45,2.92,1.58,6.53,4.27,10.95,8.48.37,3.61,1.05,7.22,2.08,10.7.08.18.13.37.18.55-2.55.18-5.08.55-7.55,1.13-1.58.37-3.13.82-4.66,1.37-1,.34-1.97.74-2.92,1.16-.45-.11-.92-.21-1.37-.32-1.42-.32-2.87-.63-4.32-.87-1.21-.21-2.42-.37-3.63-.53-2.24-.24-4.47-.37-6.74-.4-1.87,0-3.74.03-5.61.26-1.58.18-3.16.55-4.69,1l-.79.24c-2.6-2.63-4.42-5.45-5.47-7.83-1.47-3.24-1.58-5.64-1.55-7.88.03-2.24.16-4.27-.13-5.77-.29-1.5-1.03-2.42-1.82-3.77-.76-1.37-1.61-3.11-1.42-4.66.18-1.58,1.4-2.95,2.89-3.87,1.48-.95,3.26-1.42,5.29-1.98,2.05-.58,4.32-1.21,6.5-2,2.19-.76,4.26-1.69,6.55-2.11,2.29-.42,4.76-.32,7.32.13,2.55.47,5.13,1.29,8.37,2.95,3.21,1.69,7.05,4.19,10.9,8.11.76.79,1.53,1.61,2.32,2.53Z"/>
  <path class="st0" d="M452.62,214.91c.37,1.03.79,2.03,1.24,3.03,1.13,2.58,2.48,5.06,4.05,7.38,1.76,2.61,3.84,5.03,6.13,7.22,2.26,2.11,4.74,4,7.4,5.61-10.92-7.54-15-19-17.13-26.85-2.11-7.64-2.37-11.88-2.26-16.23.11-4.4.58-8.91.37-13.38-.16-3.9-.87-7.8-2.58-11.72-6.24-11.01-13.03-17.68-13.37-22.66,9.84,0,14.56,2.53,18.53,4.93,3.97,2.4,7.24,4.69,10.71,9.25,2.05,2.71,4.21,6.22,6.21,12.17,1.37,4.08,2.68,9.3,3.82,16.2.34,1.87.68,3.74,1.05,5.59,1.05,5.37,2.37,10.59,4.11,14.31,1.76,3.71,3.97,5.9,5.95,9.09,2,3.19,3.76,7.38,4.05,12.17.16,2.82-.16,5.82-1.42,8.35,6.42,2.98,12.71,6.17,18.9,9.64,10.11,5.72,19.82,12.17,28.79,19.52,8.82,7.19,16.92,15.26,24.08,24.08,4.66,5.77,8.92,11.86,12.74,18.18-.34.61-.71,1.21-1.03,1.84-1.34,2.29-2.58,4.61-3.79,6.95-4.24-7.59-9.13-14.81-14.58-21.55-6.79-8.38-14.5-16.02-22.85-22.84-8.61-7.03-17.92-13.23-27.61-18.68-6.66-3.77-13.48-7.17-20.42-10.33-2.26,2.74-5.34,3.74-8.71,4.22-2.76.37-5.71.37-8.61,0-1.5-.21-2.97-.5-4.4-.92-4.24-1.21-8.13-3.35-17.84,1.11-2.58,1.21-5.42,2.16-8.61,2.56-5.42.66-11.82-.34-18.79-3.74-6.97-3.4-14.48-9.22-15.5-18.57,3.92,1,11.32.37,16.4-.66,5.11-1.03,7.9-2.5,10.4-4.72,2.5-2.21,4.69-5.19,11.11-7.69,3.45-1.37,8.13-2.58,13.48-2.82v-.03Z"/>
</svg>